AnekGujarati-Thin.ufo
<glyph name="Danda.gj" format="2">
  <advance width="458"/>
  <unicode hex="0964"/>
  <anchor x="216" y="-86" name="Bottom"/>
  <anchor x="200" y="1263" name="Top"/>
  <anchor x="229" y="1263" name="Top2"/>
  <outline>
    <contour>
      <point x="210" y="539" type="line"/>
      <point x="248" y="539" type="line"/>
      <point x="248" y="1177" type="line"/>
      <point x="210" y="1177" type="line"/>
    </contour>
    <contour>
      <point x="210" y="0" type="line"/>
      <point x="248" y="0" type="line"/>
      <point x="248" y="710" type="line"/>
      <point x="210" y="710" type="line"/>
    </contour>
  </outline>
</glyph>
<glyph name="Chandrabindu.gj" format="2">
  <unicode hex="0A81"/>
  <guideline x="120" y="1599" angle="0"/>
  <guideline x="597" y="1263" angle="0"/>
  <guideline x="372" y="1372" angle="90"/>
  <anchor x="372" y="1263" name="_Top2"/>
  <outline>
    <contour>
      <point x="372" y="1302" type="curve" smooth="yes"/>
      <point x="547" y="1302"/>
      <point x="641" y="1385"/>
      <point x="641" y="1566" type="curve" smooth="yes"/>
      <point x="641" y="1576"/>
      <point x="641" y="1585"/>
      <point x="640" y="1598" type="curve"/>
      <point x="608" y="1598" type="line"/>
      <point x="608" y="1569" type="line" smooth="yes"/>
      <point x="608" y="1404"/>
      <point x="524" y="1333"/>
      <point x="372" y="1333" type="curve" smooth="yes"/>
      <point x="217" y="1333"/>
      <point x="136" y="1404"/>
      <point x="136" y="1569" type="curve" smooth="yes"/>
      <point x="136" y="1598" type="line"/>
      <point x="104" y="1598" type="line"/>
      <point x="103" y="1585"/>
      <point x="103" y="1576"/>
      <point x="103" y="1566" type="curve" smooth="yes"/>
      <point x="103" y="1385"/>
      <point x="196" y="1302"/>
    </contour>
    <contour>
      <point x="373" y="1545" type="curve" smooth="yes"/>
      <point x="404" y="1545"/>
      <point x="418" y="1567"/>
      <point x="418" y="1605" type="curve" smooth="yes"/>
      <point x="418" y="1614" type="line" smooth="yes"/>
      <point x="418" y="1651"/>
      <point x="404" y="1673"/>
      <point x="373" y="1673" type="curve" smooth="yes"/>
      <point x="342" y="1673"/>
      <point x="327" y="1651"/>
      <point x="327" y="1614" type="curve" smooth="yes"/>
      <point x="327" y="1605" type="line" smooth="yes"/>
      <point x="327" y="1567"/>
      <point x="342" y="1545"/>
    </contour>
  </outline>
</glyph>
<glyph name="Bindu.gj" format="2">
  <unicode hex="0A82"/>
  <anchor x="149" y="1263" name="_Top2"/>
  <outline>
    <contour>
      <point x="149" y="1396" type="curve" smooth="yes"/>
      <point x="186" y="1396"/>
      <point x="200" y="1419"/>
      <point x="200" y="1458" type="curve" smooth="yes"/>
      <point x="200" y="1466" type="line" smooth="yes"/>
      <point x="200" y="1504"/>
      <point x="185" y="1528"/>
      <point x="149" y="1528" type="curve" smooth="yes"/>
      <point x="113" y="1528"/>
      <point x="98" y="1504"/>
      <point x="98" y="1466" type="curve" smooth="yes"/>
      <point x="98" y="1458" type="line" smooth="yes"/>
      <point x="98" y="1419"/>
      <point x="113" y="1396"/>
    </contour>
  </outline>
</glyph>
<glyph name="Visarga.gj" format="2">
  <advance width="459"/>
  <unicode hex="0A83"/>
  <anchor x="230" y="123" name="_Top2"/>
  <outline>
    <contour>
      <point x="230" y="256" type="curve" smooth="yes"/>
      <point x="267" y="256"/>
      <point x="281" y="279"/>
      <point x="281" y="318" type="curve" smooth="yes"/>
      <point x="281" y="326" type="line" smooth="yes"/>
      <point x="281" y="364"/>
      <point x="266" y="388"/>
      <point x="230" y="388" type="curve" smooth="yes"/>
      <point x="194" y="388"/>
      <point x="179" y="364"/>
      <point x="179" y="326" type="curve" smooth="yes"/>
      <point x="179" y="318" type="line" smooth="yes"/>
      <point x="179" y="279"/>
      <point x="194" y="256"/>
    </contour>
    <contour>
      <point x="230" y="830" type="curve" smooth="yes"/>
      <point x="267" y="830"/>
      <point x="281" y="853"/>
      <point x="281" y="892" type="curve" smooth="yes"/>
      <point x="281" y="900" type="line" smooth="yes"/>
      <point x="281" y="938"/>
      <point x="266" y="962"/>
      <point x="230" y="962" type="curve" smooth="yes"/>
      <point x="194" y="962"/>
      <point x="179" y="938"/>
      <point x="179" y="900" type="curve" smooth="yes"/>
      <point x="179" y="892" type="line" smooth="yes"/>
      <point x="179" y="853"/>
      <point x="194" y="830"/>
    </contour>
  </outline>
</glyph>
<glyph name="VowelA.gj" format="2">
  <advance width="1600"/>
  <unicode hex="0A85"/>
  <guideline x="267" y="820" angle="0"/>
  <guideline x="667" y="941" angle="0"/>
  <anchor x="1358" y="-86" name="Bottom"/>
  <anchor x="1342" y="1263" name="Top"/>
  <anchor x="1371" y="1263" name="Top2"/>
  <outline>
    <contour>
      <point x="624" y="141" type="curve" smooth="yes"/>
      <point x="843" y="141"/>
      <point x="958" y="263"/>
      <point x="958" y="504" type="curve" smooth="yes"/>
      <point x="958" y="978" type="line"/>
      <point x="920" y="978" type="line"/>
      <point x="920" y="505" type="line" smooth="yes"/>
      <point x="920" y="288"/>
      <point x="818" y="177"/>
      <point x="624" y="177" type="curve" smooth="yes"/>
      <point x="439" y="177"/>
      <point x="327" y="278"/>
      <point x="299" y="478" type="curve" smooth="yes"/>
      <point x="283" y="592" type="line"/>
      <point x="244" y="589" type="line"/>
      <point x="260" y="473" type="line" smooth="yes"/>
      <point x="290" y="254"/>
      <point x="417" y="141"/>
    </contour>
    <contour>
      <point x="258" y="564" type="line"/>
      <point x="262" y="569" type="line"/>
      <point x="302" y="569" type="line"/>
      <point x="492" y="569"/>
      <point x="595" y="669"/>
      <point x="595" y="855" type="curve" smooth="yes"/>
      <point x="595" y="912" type="line" smooth="yes"/>
      <point x="595" y="1098"/>
      <point x="499" y="1194"/>
      <point x="333" y="1194" type="curve" smooth="yes"/>
      <point x="241" y="1194"/>
      <point x="168" y="1170"/>
      <point x="112" y="1129" type="curve"/>
      <point x="107" y="1086" type="line"/>
      <point x="171" y="1132"/>
      <point x="243" y="1158"/>
      <point x="333" y="1158" type="curve" smooth="yes"/>
      <point x="475" y="1158"/>
      <point x="556" y="1074"/>
      <point x="556" y="911" type="curve" smooth="yes"/>
      <point x="556" y="859" type="line" smooth="yes"/>
      <point x="556" y="689"/>
      <point x="466" y="605"/>
      <point x="287" y="605" type="curve" smooth="yes"/>
      <point x="86" y="605" type="line"/>
      <point x="86" y="574" type="line"/>
    </contour>
    <contour>
      <point x="1352" y="539" type="line"/>
      <point x="1390" y="539" type="line"/>
      <point x="1390" y="1177" type="line"/>
      <point x="1352" y="1177" type="line"/>
    </contour>
    <contour>
      <point x="1352" y="0" type="line"/>
      <point x="1390" y="0" type="line"/>
      <point x="1390" y="710" type="line"/>
      <point x="1352" y="710" type="line"/>
    </contour>
    <contour>
      <point x="940" y="616" type="line"/>
      <point x="1376" y="616" type="line"/>
      <point x="1369" y="650" type="line"/>
      <point x="940" y="650" type="line"/>
    </contour>
  </outline>
</glyph>
<glyph name="VowelI.gj" format="2">
  <advance width="1209"/>
  <unicode hex="0A87"/>
  <anchor x="496" y="1263" name="Top2"/>
  <outline>
    <contour>
      <point x="978" y="616" type="line"/>
      <point x="1016" y="616" type="line"/>
      <point x="1016" y="1563" type="line"/>
      <point x="978" y="1555" type="line"/>
    </contour>
    <contour>
      <point x="561" y="-13" type="curve" smooth="yes"/>
      <point x="864" y="-13"/>
      <point x="1016" y="130"/>
      <point x="1016" y="426" type="curve" smooth="yes"/>
      <point x="1016" y="625" type="line"/>
      <point x="978" y="625" type="line"/>
      <point x="978" y="428" type="line" smooth="yes"/>
      <point x="978" y="154"/>
      <point x="840" y="23"/>
      <point x="561" y="23" type="curve" smooth="yes"/>
      <point x="327" y="23"/>
      <point x="192" y="120"/>
      <point x="192" y="322" type="curve" smooth="yes"/>
      <point x="192" y="343" type="line" smooth="yes"/>
      <point x="192" y="531"/>
      <point x="299" y="605"/>
      <point x="488" y="609" type="curve" smooth="yes"/>
      <point x="637" y="612" type="line"/>
      <point x="637" y="642" type="line"/>
      <point x="488" y="644" type="line" smooth="yes"/>
      <point x="303" y="646"/>
      <point x="202" y="713"/>
      <point x="202" y="885" type="curve" smooth="yes"/>
      <point x="202" y="906" type="line" smooth="yes"/>
      <point x="202" y="1076"/>
      <point x="299" y="1158"/>
      <point x="475" y="1158" type="curve" smooth="yes"/>
      <point x="581" y="1158"/>
      <point x="655" y="1135"/>
      <point x="705" y="1108" type="curve"/>
      <point x="700" y="1148" type="line"/>
      <point x="659" y="1170"/>
      <point x="586" y="1194"/>
      <point x="475" y="1194" type="curve" smooth="yes"/>
      <point x="272" y="1194"/>
      <point x="163" y="1100"/>
      <point x="163" y="908" type="curve" smooth="yes"/>
      <point x="163" y="885" type="line" smooth="yes"/>
      <point x="163" y="723"/>
      <point x="247" y="646"/>
      <point x="384" y="628" type="curve"/>
      <point x="384" y="626" type="line"/>
      <point x="240" y="608"/>
      <point x="153" y="519"/>
      <point x="153" y="344" type="curve" smooth="yes"/>
      <point x="153" y="321" type="line" smooth="yes"/>
      <point x="153" y="96"/>
      <point x="303" y="-13"/>
    </contour>
  </outline>
</glyph>
<glyph name="VowelIi.gj" format="2">
  <advance width="1209"/>
  <unicode hex="0A88"/>
  <guideline x="594" y="1588" angle="0"/>
  <anchor x="496" y="1263" name="Top2"/>
  <outline>
    <contour>
      <point x="978" y="583" type="line"/>
      <point x="1016" y="583" type="line"/>
      <point x="1016" y="1370" type="line" smooth="yes"/>
      <point x="1016" y="1497"/>
      <point x="1060" y="1553"/>
      <point x="1148" y="1553" type="curve" smooth="yes"/>
      <point x="1177" y="1553"/>
      <point x="1205" y="1549"/>
      <point x="1232" y="1540" type="curve"/>
      <point x="1228" y="1574" type="line"/>
      <point x="1205" y="1583"/>
      <point x="1173" y="1588"/>
      <point x="1147" y="1588" type="curve" smooth="yes"/>
      <point x="1033" y="1588"/>
      <point x="978" y="1516"/>
      <point x="978" y="1371" type="curve" smooth="yes"/>
    </contour>
    <contour>
      <point x="561" y="-13" type="curve" smooth="yes"/>
      <point x="864" y="-13"/>
      <point x="1016" y="130"/>
      <point x="1016" y="426" type="curve" smooth="yes"/>
      <point x="1016" y="625" type="line"/>
      <point x="978" y="625" type="line"/>
      <point x="978" y="428" type="line" smooth="yes"/>
      <point x="978" y="154"/>
      <point x="840" y="23"/>
      <point x="561" y="23" type="curve" smooth="yes"/>
      <point x="327" y="23"/>
      <point x="192" y="120"/>
      <point x="192" y="322" type="curve" smooth="yes"/>
      <point x="192" y="343" type="line" smooth="yes"/>
      <point x="192" y="531"/>
      <point x="299" y="605"/>
      <point x="488" y="609" type="curve" smooth="yes"/>
      <point x="637" y="612" type="line"/>
      <point x="637" y="642" type="line"/>
      <point x="488" y="644" type="line" smooth="yes"/>
      <point x="303" y="646"/>
      <point x="202" y="713"/>
      <point x="202" y="885" type="curve" smooth="yes"/>
      <point x="202" y="906" type="line" smooth="yes"/>
      <point x="202" y="1076"/>
      <point x="299" y="1158"/>
      <point x="475" y="1158" type="curve" smooth="yes"/>
      <point x="581" y="1158"/>
      <point x="655" y="1135"/>
      <point x="705" y="1108" type="curve"/>
      <point x="700" y="1148" type="line"/>
      <point x="659" y="1170"/>
      <point x="586" y="1194"/>
      <point x="475" y="1194" type="curve" smooth="yes"/>
      <point x="272" y="1194"/>
      <point x="163" y="1100"/>
      <point x="163" y="908" type="curve" smooth="yes"/>
      <point x="163" y="885" type="line" smooth="yes"/>
      <point x="163" y="723"/>
      <point x="247" y="646"/>
      <point x="384" y="628" type="curve"/>
      <point x="384" y="626" type="line"/>
      <point x="240" y="608"/>
      <point x="153" y="519"/>
      <point x="153" y="344" type="curve" smooth="yes"/>
      <point x="153" y="321" type="line" smooth="yes"/>
      <point x="153" y="96"/>
      <point x="303" y="-13"/>
    </contour>
  </outline>
</glyph>
<glyph name="VowelUu.gj" format="2">
  <advance width="1628"/>
  <unicode hex="0A8A"/>
  <anchor x="801" y="1653" name="Top2"/>
  <outline>
    <contour>
      <point x="1380" y="0" type="line"/>
      <point x="1418" y="0" type="line"/>
      <point x="1418" y="915" type="line" smooth="yes"/>
      <point x="1418" y="1362"/>
      <point x="1212" y="1588"/>
      <point x="790" y="1588" type="curve" smooth="yes"/>
      <point x="369" y="1588"/>
      <point x="162" y="1360"/>
      <point x="162" y="908" type="curve" smooth="yes"/>
      <point x="162" y="724" type="line"/>
      <point x="201" y="724" type="line"/>
      <point x="201" y="908" type="line" smooth="yes"/>
      <point x="201" y="1335"/>
      <point x="394" y="1552"/>
      <point x="790" y="1552" type="curve" smooth="yes"/>
      <point x="1186" y="1552"/>
      <point x="1380" y="1337"/>
      <point x="1380" y="915" type="curve" smooth="yes"/>
    </contour>
    <contour>
      <point x="649" y="-13" type="curve" smooth="yes"/>
      <point x="904" y="-13"/>
      <point x="1044" y="94"/>
      <point x="1044" y="322" type="curve" smooth="yes"/>
      <point x="1044" y="345" type="line" smooth="yes"/>
      <point x="1044" y="522"/>
      <point x="958" y="607"/>
      <point x="806" y="626" type="curve"/>
      <point x="806" y="628" type="line"/>
      <point x="948" y="646"/>
      <point x="1028" y="726"/>
      <point x="1028" y="896" type="curve" smooth="yes"/>
      <point x="1028" y="919" type="line" smooth="yes"/>
      <point x="1028" y="1100"/>
      <point x="922" y="1194"/>
      <point x="739" y="1194" type="curve" smooth="yes"/>
      <point x="614" y="1194"/>
      <point x="536" y="1158"/>
      <point x="496" y="1135" type="curve"/>
      <point x="491" y="1093" type="line"/>
      <point x="547" y="1126"/>
      <point x="627" y="1158"/>
      <point x="738" y="1158" type="curve" smooth="yes"/>
      <point x="898" y="1158"/>
      <point x="989" y="1077"/>
      <point x="989" y="918" type="curve" smooth="yes"/>
      <point x="989" y="897" type="line" smooth="yes"/>
      <point x="989" y="714"/>
      <point x="890" y="655"/>
      <point x="704" y="644" type="curve" smooth="yes"/>
      <point x="554" y="642" type="line"/>
      <point x="554" y="612" type="line"/>
      <point x="704" y="609" type="line" smooth="yes"/>
      <point x="900" y="605"/>
      <point x="1005" y="532"/>
      <point x="1005" y="344" type="curve" smooth="yes"/>
      <point x="1005" y="323" type="line" smooth="yes"/>
      <point x="1005" y="118"/>
      <point x="880" y="23"/>
      <point x="649" y="23" type="curve" smooth="yes"/>
      <point x="349" y="23"/>
      <point x="201" y="183"/>
      <point x="201" y="552" type="curve" smooth="yes"/>
      <point x="201" y="742" type="line"/>
      <point x="162" y="742" type="line"/>
      <point x="162" y="552" type="line" smooth="yes"/>
      <point x="162" y="161"/>
      <point x="325" y="-13"/>
    </contour>
  </outline>
</glyph>
<glyph name="VowelRu.gj" format="2">
  <advance width="1580"/>
  <unicode hex="0A8B"/>
  <anchor x="816" y="-86" name="Bottom"/>
  <anchor x="800" y="1263" name="Top"/>
  <anchor x="829" y="1263" name="Top2"/>
  <outline>
    <contour>
      <point x="1228" y="114" type="curve" smooth="yes"/>
      <point x="1363" y="114"/>
      <point x="1438" y="205"/>
      <point x="1438" y="376" type="curve" smooth="yes"/>
      <point x="1438" y="400" type="line" smooth="yes"/>
      <point x="1438" y="562"/>
      <point x="1380" y="648"/>
      <point x="1276" y="719" type="curve"/>
      <point x="1248" y="702" type="line"/>
      <point x="1345" y="633"/>
      <point x="1399" y="563"/>
      <point x="1399" y="399" type="curve" smooth="yes"/>
      <point x="1399" y="377" type="line" smooth="yes"/>
      <point x="1399" y="226"/>
      <point x="1338" y="150"/>
      <point x="1227" y="150" type="curve" smooth="yes"/>
      <point x="1165" y="150"/>
      <point x="1116" y="171"/>
      <point x="1082" y="191" type="curve"/>
      <point x="1088" y="151" type="line"/>
      <point x="1113" y="137"/>
      <point x="1157" y="114"/>
    </contour>
    <contour>
      <point x="306" y="289" type="curve"/>
      <point x="362" y="289" type="line"/>
      <point x="351" y="296" type="line"/>
      <point x="465" y="369"/>
      <point x="517" y="484"/>
      <point x="517" y="676" type="curve" smooth="yes"/>
      <point x="517" y="703" type="line" smooth="yes"/>
      <point x="517" y="926"/>
      <point x="442" y="1021"/>
      <point x="279" y="1021" type="curve" smooth="yes"/>
      <point x="202" y="1021"/>
      <point x="141" y="998"/>
      <point x="98" y="965" type="curve"/>
      <point x="93" y="921" type="line"/>
      <point x="146" y="962"/>
      <point x="208" y="985"/>
      <point x="278" y="985" type="curve" smooth="yes"/>
      <point x="415" y="985"/>
      <point x="478" y="905"/>
      <point x="478" y="700" type="curve" smooth="yes"/>
      <point x="478" y="677" type="line" smooth="yes"/>
      <point x="478" y="486"/>
      <point x="426" y="381"/>
    </contour>
    <contour>
      <point x="106" y="159" type="line"/>
      <point x="825" y="486" type="line"/>
      <point x="821" y="523" type="line"/>
      <point x="598" y="422" type="line" smooth="yes"/>
      <point x="523" y="388"/>
      <point x="448" y="353"/>
      <point x="378" y="320" type="curve"/>
      <point x="366" y="317" type="line"/>
      <point x="106" y="199" type="line"/>
    </contour>
    <contour>
      <point x="834" y="490" type="line"/>
      <point x="1284" y="695" type="line"/>
      <point x="1278" y="729" type="line"/>
      <point x="830" y="526" type="line"/>
    </contour>
    <contour>
      <point x="1241" y="702" type="line"/>
      <point x="1283" y="706" type="line"/>
      <point x="1316" y="758" type="line"/>
      <point x="1303" y="856"/>
      <point x="1294" y="936"/>
      <point x="1283" y="1035" type="curve"/>
      <point x="1241" y="1035" type="line"/>
    </contour>
    <contour>
      <point x="810" y="539" type="line"/>
      <point x="848" y="539" type="line"/>
      <point x="848" y="1177" type="line"/>
      <point x="810" y="1177" type="line"/>
    </contour>
    <contour>
      <point x="810" y="0" type="line"/>
      <point x="848" y="0" type="line"/>
      <point x="848" y="710" type="line"/>
      <point x="810" y="710" type="line"/>
    </contour>
  </outline>
</glyph>
<glyph name="VowelLru.gj" format="2">
  <advance width="1400"/>
  <unicode hex="0A8C"/>
  <anchor x="994" y="1263" name="Top2"/>
  <outline>
    <contour>
      <point x="1103" y="-309" type="curve" smooth="yes"/>
      <point x="1180" y="-309"/>
      <point x="1243" y="-289"/>
      <point x="1288" y="-263" type="curve"/>
      <point x="1294" y="-220" type="line"/>
      <point x="1244" y="-251"/>
      <point x="1179" y="-273"/>
      <point x="1103" y="-273" type="curve" smooth="yes"/>
      <point x="994" y="-273"/>
      <point x="913" y="-223"/>
      <point x="913" y="-113" type="curve" smooth="yes"/>
      <point x="913" y="-107" type="line" smooth="yes"/>
      <point x="913" y="132"/>
      <point x="1269" y="272"/>
      <point x="1269" y="603" type="curve" smooth="yes"/>
      <point x="1269" y="622" type="line" smooth="yes"/>
      <point x="1269" y="830"/>
      <point x="1167" y="937"/>
      <point x="977" y="937" type="curve" smooth="yes"/>
      <point x="825" y="937"/>
      <point x="734" y="860"/>
      <point x="713" y="734" type="curve"/>
      <point x="705" y="734" type="line"/>
      <point x="705" y="336" type="line"/>
      <point x="727" y="336" type="line"/>
      <point x="731" y="612" type="line" smooth="yes"/>
      <point x="734" y="804"/>
      <point x="813" y="900"/>
      <point x="976" y="901" type="curve" smooth="yes"/>
      <point x="1144" y="902"/>
      <point x="1230" y="805"/>
      <point x="1230" y="622" type="curve" smooth="yes"/>
      <point x="1230" y="602" type="line" smooth="yes"/>
      <point x="1230" y="281"/>
      <point x="875" y="155"/>
      <point x="875" y="-107" type="curve" smooth="yes"/>
      <point x="875" y="-113" type="line" smooth="yes"/>
      <point x="875" y="-242"/>
      <point x="968" y="-309"/>
    </contour>
    <contour>
      <point x="383" y="0" type="curve"/>
      <point x="437" y="0" type="line"/>
      <point x="439" y="3" type="line"/>
      <point x="259" y="129"/>
      <point x="193" y="261"/>
      <point x="193" y="497" type="curve" smooth="yes"/>
      <point x="193" y="579" type="line" smooth="yes"/>
      <point x="193" y="791"/>
      <point x="273" y="901"/>
      <point x="445" y="901" type="curve" smooth="yes"/>
      <point x="610" y="901"/>
      <point x="691" y="804"/>
      <point x="693" y="612" type="curve" smooth="yes"/>
      <point x="696" y="336" type="line"/>
      <point x="710" y="336" type="line"/>
      <point x="710" y="734" type="line"/>
      <point x="690" y="860"/>
      <point x="597" y="937"/>
      <point x="444" y="937" type="curve" smooth="yes"/>
      <point x="251" y="937"/>
      <point x="154" y="815"/>
      <point x="154" y="579" type="curve" smooth="yes"/>
      <point x="154" y="495" type="line" smooth="yes"/>
      <point x="154" y="256"/>
      <point x="224" y="113"/>
    </contour>
    <contour>
      <point x="976" y="920" type="line"/>
      <point x="1014" y="920" type="line"/>
      <point x="1014" y="1177" type="line"/>
      <point x="976" y="1177" type="line"/>
    </contour>
  </outline>
</glyph>
<glyph name="VowelChandraO.gj" format="2">
  <advance width="2058"/>
  <unicode hex="0A91"/>
  <anchor x="1816" y="-86" name="Bottom"/>
  <anchor x="1800" y="1263" name="Top"/>
  <anchor x="1829" y="1263" name="Top2"/>
  <outline>
    <contour>
      <point x="624" y="141" type="curve" smooth="yes"/>
      <point x="843" y="141"/>
      <point x="958" y="263"/>
      <point x="958" y="504" type="curve" smooth="yes"/>
      <point x="958" y="978" type="line"/>
      <point x="920" y="978" type="line"/>
      <point x="920" y="505" type="line" smooth="yes"/>
      <point x="920" y="288"/>
      <point x="818" y="177"/>
      <point x="624" y="177" type="curve" smooth="yes"/>
      <point x="439" y="177"/>
      <point x="327" y="278"/>
      <point x="299" y="478" type="curve" smooth="yes"/>
      <point x="283" y="592" type="line"/>
      <point x="244" y="589" type="line"/>
      <point x="260" y="473" type="line" smooth="yes"/>
      <point x="290" y="254"/>
      <point x="417" y="141"/>
    </contour>
    <contour>
      <point x="258" y="564" type="line"/>
      <point x="262" y="569" type="line"/>
      <point x="302" y="569" type="line"/>
      <point x="492" y="569"/>
      <point x="595" y="669"/>
      <point x="595" y="855" type="curve" smooth="yes"/>
      <point x="595" y="912" type="line" smooth="yes"/>
      <point x="595" y="1098"/>
      <point x="499" y="1194"/>
      <point x="333" y="1194" type="curve" smooth="yes"/>
      <point x="241" y="1194"/>
      <point x="168" y="1170"/>
      <point x="112" y="1129" type="curve"/>
      <point x="107" y="1086" type="line"/>
      <point x="171" y="1132"/>
      <point x="243" y="1158"/>
      <point x="333" y="1158" type="curve" smooth="yes"/>
      <point x="475" y="1158"/>
      <point x="556" y="1074"/>
      <point x="556" y="911" type="curve" smooth="yes"/>
      <point x="556" y="859" type="line" smooth="yes"/>
      <point x="556" y="689"/>
      <point x="466" y="605"/>
      <point x="287" y="605" type="curve" smooth="yes"/>
      <point x="86" y="605" type="line"/>
      <point x="86" y="574" type="line"/>
    </contour>
    <contour>
      <point x="1352" y="539" type="line"/>
      <point x="1390" y="539" type="line"/>
      <point x="1390" y="1177" type="line"/>
      <point x="1352" y="1177" type="line"/>
    </contour>
    <contour>
      <point x="1352" y="0" type="line"/>
      <point x="1390" y="0" type="line"/>
      <point x="1390" y="710" type="line"/>
      <point x="1352" y="710" type="line"/>
    </contour>
    <contour>
      <point x="940" y="616" type="line"/>
      <point x="1376" y="616" type="line"/>
      <point x="1369" y="650" type="line"/>
      <point x="940" y="650" type="line"/>
    </contour>
    <contour>
      <point x="1810" y="539" type="line"/>
      <point x="1848" y="539" type="line"/>
      <point x="1848" y="1177" type="line"/>
      <point x="1810" y="1177" type="line"/>
    </contour>
    <contour>
      <point x="1810" y="0" type="line"/>
      <point x="1848" y="0" type="line"/>
      <point x="1848" y="710" type="line"/>
      <point x="1810" y="710" type="line"/>
    </contour>
    <contour>
      <point x="1832" y="1263" type="curve" smooth="yes"/>
      <point x="1879" y="1263"/>
      <point x="1916" y="1280"/>
      <point x="1935" y="1296" type="curve"/>
      <point x="1935" y="1330" type="line"/>
      <point x="1916" y="1312"/>
      <point x="1879" y="1295"/>
      <point x="1833" y="1295" type="curve" smooth="yes"/>
      <point x="1771" y="1295"/>
      <point x="1723" y="1314"/>
      <point x="1619" y="1403" type="curve" smooth="yes"/>
      <point x="1234" y="1734" type="line"/>
      <point x="1209" y="1708" type="line"/>
      <point x="1594" y="1382" type="line" smooth="yes"/>
      <point x="1702" y="1291"/>
      <point x="1761" y="1263"/>
    </contour>
  </outline>
</glyph>
<glyph name="Ka.gj" format="2">
  <advance width="1052"/>
  <unicode hex="0A95"/>
  <anchor x="547" y="-86" name="Bottom"/>
  <anchor x="669" y="1263" name="Top"/>
  <anchor x="530" y="1263" name="Top2"/>
  <outline>
    <contour>
      <point x="528" y="613" type="curve"/>
      <point x="559" y="636" type="line"/>
      <point x="330" y="653"/>
      <point x="222" y="728"/>
      <point x="222" y="893" type="curve" smooth="yes"/>
      <point x="222" y="911" type="line" smooth="yes"/>
      <point x="222" y="1081"/>
      <point x="323" y="1159"/>
      <point x="514" y="1159" type="curve" smooth="yes"/>
      <point x="646" y="1159"/>
      <point x="743" y="1121"/>
      <point x="815" y="1071" type="curve"/>
      <point x="809" y="1113" type="line"/>
      <point x="750" y="1154"/>
      <point x="649" y="1194"/>
      <point x="514" y="1194" type="curve" smooth="yes"/>
      <point x="297" y="1194"/>
      <point x="183" y="1100"/>
      <point x="183" y="914" type="curve" smooth="yes"/>
      <point x="183" y="890" type="line" smooth="yes"/>
      <point x="183" y="703"/>
      <point x="304" y="629"/>
    </contour>
    <contour>
      <point x="516" y="-13" type="curve" smooth="yes"/>
      <point x="755" y="-13"/>
      <point x="872" y="89"/>
      <point x="872" y="304" type="curve" smooth="yes"/>
      <point x="872" y="335" type="line" smooth="yes"/>
      <point x="872" y="525"/>
      <point x="743" y="621"/>
      <point x="518" y="634" type="curve"/>
      <point x="494" y="612" type="line"/>
      <point x="723" y="593"/>
      <point x="833" y="502"/>
      <point x="833" y="332" type="curve" smooth="yes"/>
      <point x="833" y="305" type="line" smooth="yes"/>
      <point x="833" y="112"/>
      <point x="725" y="23"/>
      <point x="516" y="23" type="curve" smooth="yes"/>
      <point x="367" y="23"/>
      <point x="254" y="65"/>
      <point x="159" y="133" type="curve"/>
      <point x="166" y="83" type="line"/>
      <point x="237" y="36"/>
      <point x="351" y="-13"/>
    </contour>
    <contour>
      <point x="116" y="507" type="line"/>
      <point x="581" y="623" type="line"/>
      <point x="513" y="635" type="line"/>
      <point x="116" y="545" type="line"/>
    </contour>
    <contour>
      <point x="472" y="629" type="line"/>
      <point x="529" y="614" type="line"/>
      <point x="957" y="710" type="line"/>
      <point x="957" y="748" type="line"/>
    </contour>
  </outline>
</glyph>
<glyph name="Kha.gj" format="2">
  <advance width="1474"/>
  <unicode hex="0A96"/>
  <anchor x="1232" y="-86" name="Bottom"/>
  <anchor x="1216" y="1263" name="Top"/>
  <anchor x="1245" y="1263" name="Top2"/>
  <outline>
    <contour>
      <point x="224" y="752" type="line"/>
      <point x="262" y="752" type="line"/>
      <point x="262" y="1023" type="line" smooth="yes"/>
      <point x="262" y="1127"/>
      <point x="219" y="1180"/>
      <point x="128" y="1180" type="curve" smooth="yes"/>
      <point x="103" y="1180"/>
      <point x="74" y="1176"/>
      <point x="53" y="1165" type="curve"/>
      <point x="49" y="1130" type="line"/>
      <point x="72" y="1139"/>
      <point x="99" y="1145"/>
      <point x="124" y="1145" type="curve" smooth="yes"/>
      <point x="193" y="1145"/>
      <point x="224" y="1107"/>
      <point x="224" y="1022" type="curve" smooth="yes"/>
    </contour>
    <contour>
      <point x="512" y="171" type="curve" smooth="yes"/>
      <point x="706" y="171"/>
      <point x="800" y="277"/>
      <point x="800" y="496" type="curve" smooth="yes"/>
      <point x="800" y="978" type="line"/>
      <point x="762" y="978" type="line"/>
      <point x="762" y="496" type="line" smooth="yes"/>
      <point x="762" y="300"/>
      <point x="680" y="206"/>
      <point x="512" y="206" type="curve" smooth="yes"/>
      <point x="345" y="206"/>
      <point x="262" y="310"/>
      <point x="262" y="522" type="curve" smooth="yes"/>
      <point x="262" y="781" type="line"/>
      <point x="224" y="781" type="line"/>
      <point x="224" y="522" type="line" smooth="yes"/>
      <point x="224" y="287"/>
      <point x="319" y="171"/>
    </contour>
    <contour>
      <point x="773" y="608" type="line"/>
      <point x="1260" y="608" type="line"/>
      <point x="1253" y="642" type="line"/>
      <point x="773" y="642" type="line"/>
    </contour>
    <contour>
      <point x="1226" y="539" type="line"/>
      <point x="1264" y="539" type="line"/>
      <point x="1264" y="1177" type="line"/>
      <point x="1226" y="1177" type="line"/>
    </contour>
    <contour>
      <point x="1226" y="0" type="line"/>
      <point x="1264" y="0" type="line"/>
      <point x="1264" y="710" type="line"/>
      <point x="1226" y="710" type="line"/>
    </contour>
  </outline>
</glyph>
<glyph name="Gha.gj" format="2">
  <advance width="1205"/>
  <unicode hex="0A98"/>
  <anchor x="963" y="-86" name="Bottom"/>
  <anchor x="947" y="1263" name="Top"/>
  <anchor x="976" y="1263" name="Top2"/>
  <outline>
    <contour>
      <point x="542" y="128" type="curve" smooth="yes"/>
      <point x="780" y="128"/>
      <point x="919" y="218"/>
      <point x="963" y="334" type="curve"/>
      <point x="966" y="334" type="line"/>
      <point x="961" y="398" type="line"/>
      <point x="917" y="245"/>
      <point x="768" y="164"/>
      <point x="543" y="164" type="curve" smooth="yes"/>
      <point x="319" y="164"/>
      <point x="187" y="241"/>
      <point x="187" y="419" type="curve" smooth="yes"/>
      <point x="187" y="431" type="line" smooth="yes"/>
      <point x="187" y="590"/>
      <point x="285" y="650"/>
      <point x="473" y="654" type="curve" smooth="yes"/>
      <point x="626" y="657" type="line"/>
      <point x="626" y="687" type="line"/>
      <point x="473" y="690" type="line" smooth="yes"/>
      <point x="289" y="694"/>
      <point x="192" y="750"/>
      <point x="192" y="914" type="curve" smooth="yes"/>
      <point x="192" y="926" type="line" smooth="yes"/>
      <point x="192" y="1086"/>
      <point x="283" y="1158"/>
      <point x="460" y="1158" type="curve" smooth="yes"/>
      <point x="565" y="1158"/>
      <point x="640" y="1135"/>
      <point x="690" y="1108" type="curve"/>
      <point x="685" y="1148" type="line"/>
      <point x="643" y="1170"/>
      <point x="571" y="1194"/>
      <point x="460" y="1194" type="curve" smooth="yes"/>
      <point x="256" y="1194"/>
      <point x="153" y="1110"/>
      <point x="153" y="927" type="curve" smooth="yes"/>
      <point x="153" y="913" type="line" smooth="yes"/>
      <point x="153" y="757"/>
      <point x="232" y="690"/>
      <point x="369" y="674" type="curve"/>
      <point x="369" y="672" type="line"/>
      <point x="229" y="656"/>
      <point x="148" y="583"/>
      <point x="148" y="432" type="curve" smooth="yes"/>
      <point x="148" y="418" type="line" smooth="yes"/>
      <point x="148" y="217"/>
      <point x="295" y="128"/>
    </contour>
    <contour>
      <point x="957" y="539" type="line"/>
      <point x="995" y="539" type="line"/>
      <point x="995" y="1177" type="line"/>
      <point x="957" y="1177" type="line"/>
    </contour>
    <contour>
      <point x="957" y="0" type="line"/>
      <point x="995" y="0" type="line"/>
      <point x="995" y="710" type="line"/>
      <point x="957" y="710" type="line"/>
    </contour>
  </outline>
</glyph>
<glyph name="Nga.gj" format="2">
  <advance width="1092"/>
  <unicode hex="0A99"/>
  <anchor x="534" y="-86" name="Bottom"/>
  <anchor x="627" y="1263" name="Top"/>
  <anchor x="499" y="1263" name="Top2"/>
  <outline>
    <contour>
      <point x="976" y="730" type="curve" smooth="yes"/>
      <point x="1013" y="730"/>
      <point x="1031" y="750"/>
      <point x="1031" y="785" type="curve" smooth="yes"/>
      <point x="1031" y="798" type="line" smooth="yes"/>
      <point x="1031" y="832"/>
      <point x="1013" y="852"/>
      <point x="976" y="852" type="curve" smooth="yes"/>
      <point x="939" y="852"/>
      <point x="922" y="832"/>
      <point x="922" y="798" type="curve" smooth="yes"/>
      <point x="922" y="785" type="line" smooth="yes"/>
      <point x="922" y="750"/>
      <point x="939" y="730"/>
    </contour>
    <contour>
      <point x="494" y="-13" type="curve" smooth="yes"/>
      <point x="736" y="-13"/>
      <point x="853" y="86"/>
      <point x="853" y="292" type="curve" smooth="yes"/>
      <point x="853" y="320" type="line" smooth="yes"/>
      <point x="853" y="505"/>
      <point x="772" y="581"/>
      <point x="519" y="641" type="curve" smooth="yes"/>
      <point x="473" y="652" type="line" smooth="yes"/>
      <point x="249" y="700"/>
      <point x="177" y="763"/>
      <point x="177" y="906" type="curve" smooth="yes"/>
      <point x="177" y="927" type="line" smooth="yes"/>
      <point x="177" y="1084"/>
      <point x="284" y="1158"/>
      <point x="490" y="1158" type="curve" smooth="yes"/>
      <point x="630" y="1158"/>
      <point x="733" y="1120"/>
      <point x="810" y="1071" type="curve"/>
      <point x="803" y="1113" type="line"/>
      <point x="742" y="1154"/>
      <point x="633" y="1194"/>
      <point x="490" y="1194" type="curve" smooth="yes"/>
      <point x="258" y="1194"/>
      <point x="138" y="1105"/>
      <point x="138" y="928" type="curve" smooth="yes"/>
      <point x="138" y="904" type="line" smooth="yes"/>
      <point x="138" y="743"/>
      <point x="225" y="664"/>
      <point x="460" y="618" type="curve" smooth="yes"/>
      <point x="506" y="607" type="line" smooth="yes"/>
      <point x="741" y="551"/>
      <point x="814" y="484"/>
      <point x="814" y="318" type="curve" smooth="yes"/>
      <point x="814" y="293" type="line" smooth="yes"/>
      <point x="814" y="106"/>
      <point x="707" y="23"/>
      <point x="494" y="23" type="curve" smooth="yes"/>
      <point x="335" y="23"/>
      <point x="216" y="70"/>
      <point x="115" y="143" type="curve"/>
      <point x="122" y="94" type="line"/>
      <point x="198" y="41"/>
      <point x="318" y="-13"/>
    </contour>
  </outline>
</glyph>
<glyph name="Ca.gj" format="2">
  <advance width="1244"/>
  <unicode hex="0A9A"/>
  <anchor x="1002" y="-86" name="Bottom"/>
  <anchor x="986" y="1263" name="Top"/>
  <anchor x="1015" y="1263" name="Top2"/>
  <outline>
    <contour>
      <point x="648" y="191" type="curve" smooth="yes"/>
      <point x="444" y="191"/>
      <point x="322" y="295"/>
      <point x="295" y="496" type="curve" smooth="yes"/>
      <point x="282" y="592" type="line"/>
      <point x="243" y="588" type="line"/>
      <point x="256" y="492" type="line" smooth="yes"/>
      <point x="286" y="273"/>
      <point x="419" y="155"/>
      <point x="648" y="155" type="curve" smooth="yes"/>
      <point x="853" y="155"/>
      <point x="969" y="251"/>
      <point x="1004" y="376" type="curve"/>
      <point x="1007" y="376" type="line"/>
      <point x="1002" y="441" type="line"/>
      <point x="959" y="277"/>
      <point x="840" y="191"/>
    </contour>
    <contour>
      <point x="996" y="539" type="line"/>
      <point x="1034" y="539" type="line"/>
      <point x="1034" y="1177" type="line"/>
      <point x="996" y="1177" type="line"/>
    </contour>
    <contour>
      <point x="996" y="0" type="line"/>
      <point x="1034" y="0" type="line"/>
      <point x="1034" y="710" type="line"/>
      <point x="996" y="710" type="line"/>
    </contour>
    <contour>
      <point x="252" y="568" type="line"/>
      <point x="258" y="574" type="line"/>
      <point x="302" y="574" type="line"/>
      <point x="507" y="574"/>
      <point x="615" y="674"/>
      <point x="615" y="867" type="curve" smooth="yes"/>
      <point x="615" y="915" type="line" smooth="yes"/>
      <point x="615" y="1099"/>
      <point x="514" y="1194"/>
      <point x="337" y="1194" type="curve" smooth="yes"/>
      <point x="241" y="1194"/>
      <point x="166" y="1169"/>
      <point x="108" y="1129" type="curve"/>
      <point x="102" y="1087" type="line"/>
      <point x="169" y="1132"/>
      <point x="243" y="1158"/>
      <point x="337" y="1158" type="curve" smooth="yes"/>
      <point x="490" y="1158"/>
      <point x="576" y="1075"/>
      <point x="576" y="914" type="curve" smooth="yes"/>
      <point x="576" y="871" type="line" smooth="yes"/>
      <point x="576" y="694"/>
      <point x="481" y="609"/>
      <point x="287" y="609" type="curve" smooth="yes"/>
      <point x="76" y="609" type="line"/>
      <point x="76" y="578" type="line"/>
    </contour>
  </outline>
</glyph>
<glyph name="Cha.gj" format="2">
  <advance width="1372"/>
  <unicode hex="0A9B"/>
  <anchor x="652" y="-86" name="Bottom"/>
  <anchor x="1037" y="1263" name="Top"/>
  <anchor x="966" y="1263" name="Top2"/>
  <outline>
    <contour>
      <point x="632" y="-13" type="curve" smooth="yes"/>
      <point x="988" y="-13"/>
      <point x="1207" y="174"/>
      <point x="1207" y="572" type="curve" smooth="yes"/>
      <point x="1207" y="662" type="line"/>
      <point x="1168" y="662" type="line"/>
      <point x="1168" y="572" type="line" smooth="yes"/>
      <point x="1168" y="199"/>
      <point x="971" y="23"/>
      <point x="632" y="23" type="curve" smooth="yes"/>
      <point x="356" y="23"/>
      <point x="195" y="123"/>
      <point x="195" y="352" type="curve" smooth="yes"/>
      <point x="195" y="365" type="line" smooth="yes"/>
      <point x="195" y="537"/>
      <point x="289" y="606"/>
      <point x="455" y="609" type="curve" smooth="yes"/>
      <point x="560" y="611" type="line"/>
      <point x="560" y="643" type="line"/>
      <point x="455" y="645" type="line" smooth="yes"/>
      <point x="292" y="648"/>
      <point x="204" y="716"/>
      <point x="204" y="887" type="curve" smooth="yes"/>
      <point x="204" y="911" type="line" smooth="yes"/>
      <point x="204" y="1078"/>
      <point x="286" y="1158"/>
      <point x="433" y="1158" type="curve" smooth="yes"/>
      <point x="515" y="1158"/>
      <point x="574" y="1140"/>
      <point x="613" y="1116" type="curve"/>
      <point x="608" y="1156" type="line"/>
      <point x="577" y="1175"/>
      <point x="518" y="1194"/>
      <point x="433" y="1194" type="curve" smooth="yes"/>
      <point x="259" y="1194"/>
      <point x="165" y="1101"/>
      <point x="165" y="913" type="curve" smooth="yes"/>
      <point x="165" y="887" type="line" smooth="yes"/>
      <point x="165" y="724"/>
      <point x="239" y="645"/>
      <point x="362" y="628" type="curve"/>
      <point x="362" y="626" type="line"/>
      <point x="233" y="609"/>
      <point x="156" y="527"/>
      <point x="156" y="365" type="curve" smooth="yes"/>
      <point x="156" y="352" type="line" smooth="yes"/>
      <point x="156" y="99"/>
      <point x="332" y="-13"/>
    </contour>
    <contour>
      <point x="948" y="487" type="curve" smooth="yes"/>
      <point x="1067" y="487"/>
      <point x="1146" y="563"/>
      <point x="1172" y="642" type="curve"/>
      <point x="1181" y="642" type="line"/>
      <point x="1177" y="711" type="line"/>
      <point x="1148" y="596"/>
      <point x="1058" y="522"/>
      <point x="948" y="522" type="curve" smooth="yes"/>
      <point x="818" y="522"/>
      <point x="749" y="603"/>
      <point x="749" y="762" type="curve" smooth="yes"/>
      <point x="749" y="900" type="line" smooth="yes"/>
      <point x="749" y="1072"/>
      <point x="819" y="1158"/>
      <point x="952" y="1158" type="curve" smooth="yes"/>
      <point x="1091" y="1158"/>
      <point x="1168" y="1059"/>
      <point x="1168" y="865" type="curve" smooth="yes"/>
      <point x="1168" y="656" type="line"/>
      <point x="1207" y="656" type="line"/>
      <point x="1207" y="866" type="line" smooth="yes"/>
      <point x="1207" y="1077"/>
      <point x="1120" y="1194"/>
      <point x="952" y="1194" type="curve" smooth="yes"/>
      <point x="793" y="1194"/>
      <point x="710" y="1090"/>
      <point x="710" y="901" type="curve" smooth="yes"/>
      <point x="710" y="762" type="line" smooth="yes"/>
      <point x="710" y="580"/>
      <point x="792" y="487"/>
    </contour>
  </outline>
</glyph>
<glyph name="Ja.gj" format="2">
  <advance width="1331"/>
  <unicode hex="0A9C"/>
  <anchor x="850" y="-86" name="Bottom"/>
  <anchor x="1221" y="1263" name="Top"/>
  <anchor x="1251" y="1263" name="Top2"/>
  <outline>
    <contour>
      <point x="848" y="741" type="line"/>
      <point x="1281" y="1172" type="line"/>
      <point x="1281" y="1177" type="line"/>
      <point x="1232" y="1177" type="line"/>
      <point x="817" y="767" type="line"/>
    </contour>
    <contour>
      <point x="221" y="433" type="line"/>
      <point x="221" y="982" type="line" smooth="yes"/>
      <point x="221" y="1108"/>
      <point x="281" y="1158"/>
      <point x="365" y="1158" type="curve" smooth="yes"/>
      <point x="448" y="1158"/>
      <point x="507" y="1116"/>
      <point x="601" y="1004" type="curve" smooth="yes"/>
      <point x="829" y="735" type="line"/>
      <point x="864" y="758" type="line"/>
      <point x="632" y="1027" type="line" smooth="yes"/>
      <point x="536" y="1140"/>
      <point x="467" y="1194"/>
      <point x="365" y="1194" type="curve" smooth="yes"/>
      <point x="255" y="1194"/>
      <point x="183" y="1130"/>
      <point x="183" y="982" type="curve" smooth="yes"/>
      <point x="183" y="450" type="line"/>
    </contour>
    <contour>
      <point x="830" y="-13" type="curve" smooth="yes"/>
      <point x="1039" y="-13"/>
      <point x="1148" y="85"/>
      <point x="1148" y="276" type="curve" smooth="yes"/>
      <point x="1148" y="292" type="line" smooth="yes"/>
      <point x="1148" y="436"/>
      <point x="1091" y="516"/>
      <point x="986" y="630" type="curve" smooth="yes"/>
      <point x="858" y="768" type="line"/>
      <point x="830" y="741" type="line"/>
      <point x="962" y="602" type="line" smooth="yes"/>
      <point x="1056" y="503"/>
      <point x="1109" y="432"/>
      <point x="1109" y="292" type="curve" smooth="yes"/>
      <point x="1109" y="276" type="line" smooth="yes"/>
      <point x="1109" y="108"/>
      <point x="1013" y="23"/>
      <point x="830" y="23" type="curve" smooth="yes"/>
      <point x="644" y="23"/>
      <point x="548" y="108"/>
      <point x="548" y="276" type="curve" smooth="yes"/>
      <point x="548" y="292" type="line" smooth="yes"/>
      <point x="548" y="429"/>
      <point x="604" y="502"/>
      <point x="702" y="598" type="curve" smooth="yes"/>
      <point x="848" y="740" type="line"/>
      <point x="825" y="774" type="line"/>
      <point x="679" y="627" type="line" smooth="yes"/>
      <point x="569" y="519"/>
      <point x="509" y="436"/>
      <point x="509" y="292" type="curve" smooth="yes"/>
      <point x="509" y="276" type="line" smooth="yes"/>
      <point x="509" y="85"/>
      <point x="619" y="-13"/>
    </contour>
  </outline>
</glyph>
<glyph name="Jha.gj" format="2">
  <advance width="1321"/>
  <unicode hex="0A9D"/>
  <anchor x="940" y="-86" name="Bottom"/>
  <anchor x="1130" y="1263" name="Top"/>
  <anchor x="1163" y="1263" name="Top2"/>
  <outline>
    <contour>
      <point x="366" y="154" type="curve" smooth="yes"/>
      <point x="581" y="154"/>
      <point x="697" y="291"/>
      <point x="697" y="553" type="curve" smooth="yes"/>
      <point x="697" y="805" type="line" smooth="yes"/>
      <point x="697" y="1060"/>
      <point x="583" y="1194"/>
      <point x="367" y="1194" type="curve" smooth="yes"/>
      <point x="241" y="1194"/>
      <point x="165" y="1154"/>
      <point x="119" y="1121" type="curve"/>
      <point x="113" y="1078" type="line"/>
      <point x="169" y="1120"/>
      <point x="250" y="1158"/>
      <point x="367" y="1158" type="curve" smooth="yes"/>
      <point x="558" y="1158"/>
      <point x="658" y="1035"/>
      <point x="658" y="804" type="curve" smooth="yes"/>
      <point x="658" y="554" type="line" smooth="yes"/>
      <point x="658" y="314"/>
      <point x="558" y="190"/>
      <point x="366" y="190" type="curve" smooth="yes"/>
      <point x="240" y="190"/>
      <point x="153" y="230"/>
      <point x="92" y="275" type="curve"/>
      <point x="97" y="234" type="line"/>
      <point x="146" y="198"/>
      <point x="232" y="154"/>
    </contour>
    <contour>
      <point x="931" y="-13" type="curve" smooth="yes"/>
      <point x="1101" y="-13"/>
      <point x="1199" y="84"/>
      <point x="1199" y="268" type="curve" smooth="yes"/>
      <point x="1199" y="372" type="line" smooth="yes"/>
      <point x="1199" y="587"/>
      <point x="1088" y="685"/>
      <point x="844" y="685" type="curve"/>
      <point x="784" y="685" type="line"/>
      <point x="675" y="685" type="line"/>
      <point x="675" y="651" type="line"/>
      <point x="841" y="651" type="line" smooth="yes"/>
      <point x="1061" y="651"/>
      <point x="1160" y="565"/>
      <point x="1160" y="368" type="curve" smooth="yes"/>
      <point x="1160" y="269" type="line" smooth="yes"/>
      <point x="1160" y="105"/>
      <point x="1078" y="23"/>
      <point x="930" y="23" type="curve" smooth="yes"/>
      <point x="844" y="23"/>
      <point x="778" y="49"/>
      <point x="731" y="74" type="curve"/>
      <point x="737" y="34" type="line"/>
      <point x="772" y="16"/>
      <point x="833" y="-13"/>
    </contour>
    <contour>
      <point x="793" y="667" type="line"/>
      <point x="825" y="706"/>
      <point x="866" y="758"/>
      <point x="906" y="810" type="curve" smooth="yes"/>
      <point x="1187" y="1173" type="line"/>
      <point x="1187" y="1177" type="line"/>
      <point x="1140" y="1177" type="line"/>
      <point x="759" y="674" type="line"/>
    </contour>
  </outline>
</glyph>
<glyph name="Nya.gj" format="2">
  <advance width="1315"/>
  <unicode hex="0A9E"/>
  <anchor x="1073" y="-86" name="Bottom"/>
  <anchor x="1057" y="1263" name="Top"/>
  <anchor x="1086" y="1263" name="Top2"/>
  <outline>
    <contour>
      <point x="362" y="228" type="curve" smooth="yes"/>
      <point x="573" y="228"/>
      <point x="681" y="351"/>
      <point x="681" y="612" type="curve" smooth="yes"/>
      <point x="681" y="753" type="line" smooth="yes"/>
      <point x="681" y="1010"/>
      <point x="576" y="1133"/>
      <point x="371" y="1133" type="curve" smooth="yes"/>
      <point x="243" y="1133"/>
      <point x="165" y="1093"/>
      <point x="119" y="1062" type="curve"/>
      <point x="114" y="1020" type="line"/>
      <point x="171" y="1059"/>
      <point x="251" y="1097"/>
      <point x="371" y="1097" type="curve" smooth="yes"/>
      <point x="551" y="1097"/>
      <point x="642" y="986"/>
      <point x="642" y="751" type="curve" smooth="yes"/>
      <point x="642" y="614" type="line" smooth="yes"/>
      <point x="642" y="376"/>
      <point x="548" y="264"/>
      <point x="362" y="264" type="curve" smooth="yes"/>
      <point x="238" y="264"/>
      <point x="152" y="306"/>
      <point x="92" y="351" type="curve"/>
      <point x="98" y="308" type="line"/>
      <point x="145" y="273"/>
      <point x="230" y="228"/>
    </contour>
    <contour>
      <point x="660" y="660" type="line"/>
      <point x="1095" y="660" type="line"/>
      <point x="1088" y="694" type="line"/>
      <point x="660" y="694" type="line"/>
    </contour>
    <contour>
      <point x="1067" y="539" type="line"/>
      <point x="1105" y="539" type="line"/>
      <point x="1105" y="1177" type="line"/>
      <point x="1067" y="1177" type="line"/>
    </contour>
    <contour>
      <point x="1067" y="0" type="line"/>
      <point x="1105" y="0" type="line"/>
      <point x="1105" y="710" type="line"/>
      <point x="1067" y="710" type="line"/>
    </contour>
  </outline>
</glyph>
<glyph name="Tta.gj" format="2">
  <advance width="1017"/>
  <unicode hex="0A9F"/>
  <anchor x="554" y="-86" name="Bottom"/>
  <anchor x="694" y="1263" name="Top"/>
  <anchor x="543" y="1263" name="Top2"/>
  <outline>
    <contour>
      <point x="531" y="-13" type="curve" smooth="yes"/>
      <point x="689" y="-13"/>
      <point x="817" y="33"/>
      <point x="899" y="100" type="curve"/>
      <point x="904" y="150" type="line"/>
      <point x="811" y="69"/>
      <point x="681" y="23"/>
      <point x="531" y="23" type="curve" smooth="yes"/>
      <point x="298" y="23"/>
      <point x="174" y="120"/>
      <point x="174" y="316" type="curve" smooth="yes"/>
      <point x="174" y="342" type="line" smooth="yes"/>
      <point x="174" y="517"/>
      <point x="272" y="608"/>
      <point x="464" y="652" type="curve" smooth="yes"/>
      <point x="578" y="678" type="line" smooth="yes"/>
      <point x="762" y="720"/>
      <point x="852" y="799"/>
      <point x="852" y="931" type="curve" smooth="yes"/>
      <point x="852" y="955" type="line" smooth="yes"/>
      <point x="852" y="1117"/>
      <point x="744" y="1194"/>
      <point x="526" y="1194" type="curve" smooth="yes"/>
      <point x="367" y="1194"/>
      <point x="268" y="1150"/>
      <point x="217" y="1122" type="curve"/>
      <point x="212" y="1080" type="line"/>
      <point x="283" y="1119"/>
      <point x="384" y="1158"/>
      <point x="525" y="1158" type="curve" smooth="yes"/>
      <point x="719" y="1158"/>
      <point x="813" y="1096"/>
      <point x="813" y="952" type="curve" smooth="yes"/>
      <point x="813" y="935" type="line" smooth="yes"/>
      <point x="813" y="822"/>
      <point x="732" y="750"/>
      <point x="569" y="714" type="curve" smooth="yes"/>
      <point x="452" y="688" type="line" smooth="yes"/>
      <point x="246" y="642"/>
      <point x="135" y="541"/>
      <point x="135" y="343" type="curve" smooth="yes"/>
      <point x="135" y="315" type="line" smooth="yes"/>
      <point x="135" y="97"/>
      <point x="269" y="-13"/>
    </contour>
  </outline>
</glyph>
<glyph name="Ttha.gj" format="2">
  <advance width="1089"/>
  <unicode hex="0AA0"/>
  <anchor x="565" y="-86" name="Bottom"/>
  <anchor x="705" y="1263" name="Top"/>
  <anchor x="569" y="1263" name="Top2"/>
  <outline>
    <contour>
      <point x="558" y="-13" type="curve" smooth="yes"/>
      <point x="829" y="-13"/>
      <point x="971" y="104"/>
      <point x="971" y="328" type="curve" smooth="yes"/>
      <point x="971" y="378" type="line" smooth="yes"/>
      <point x="971" y="581"/>
      <point x="862" y="677"/>
      <point x="596" y="725" type="curve" smooth="yes"/>
      <point x="529" y="737" type="line" smooth="yes"/>
      <point x="306" y="777"/>
      <point x="255" y="843"/>
      <point x="255" y="949" type="curve" smooth="yes"/>
      <point x="255" y="958" type="line" smooth="yes"/>
      <point x="255" y="1095"/>
      <point x="362" y="1158"/>
      <point x="563" y="1158" type="curve" smooth="yes"/>
      <point x="703" y="1158"/>
      <point x="806" y="1120"/>
      <point x="883" y="1071" type="curve"/>
      <point x="876" y="1113" type="line"/>
      <point x="815" y="1154"/>
      <point x="706" y="1194"/>
      <point x="563" y="1194" type="curve" smooth="yes"/>
      <point x="335" y="1194"/>
      <point x="216" y="1116"/>
      <point x="216" y="959" type="curve" smooth="yes"/>
      <point x="216" y="949" type="line" smooth="yes"/>
      <point x="216" y="826"/>
      <point x="291" y="755"/>
      <point x="447" y="723" type="curve"/>
      <point x="460" y="714" type="line"/>
      <point x="481" y="709"/>
      <point x="501" y="706"/>
      <point x="519" y="703" type="curve" smooth="yes"/>
      <point x="586" y="692" type="line" smooth="yes"/>
      <point x="834" y="651"/>
      <point x="932" y="561"/>
      <point x="932" y="377" type="curve" smooth="yes"/>
      <point x="932" y="329" type="line" smooth="yes"/>
      <point x="932" y="123"/>
      <point x="802" y="23"/>
      <point x="558" y="23" type="curve" smooth="yes"/>
      <point x="314" y="23"/>
      <point x="184" y="124"/>
      <point x="184" y="329" type="curve" smooth="yes"/>
      <point x="184" y="354" type="line"/>
      <point x="145" y="354" type="line"/>
      <point x="145" y="328" type="line" smooth="yes"/>
      <point x="145" y="104"/>
      <point x="288" y="-13"/>
    </contour>
    <contour>
      <point x="145" y="348" type="line"/>
      <point x="184" y="348" type="line"/>
      <point x="184" y="371" type="line" smooth="yes"/>
      <point x="184" y="567"/>
      <point x="282" y="649"/>
      <point x="492" y="712" type="curve"/>
      <point x="474" y="736" type="line"/>
      <point x="259" y="680"/>
      <point x="145" y="584"/>
      <point x="145" y="373" type="curve" smooth="yes"/>
    </contour>
  </outline>
</glyph>
<glyph name="Dda.gj" format="2">
  <advance width="986"/>
  <unicode hex="0AA1"/>
  <anchor x="534" y="-86" name="Bottom"/>
  <anchor x="630" y="1263" name="Top"/>
  <anchor x="502" y="1263" name="Top2"/>
  <outline>
    <contour>
      <point x="494" y="-13" type="curve" smooth="yes"/>
      <point x="736" y="-13"/>
      <point x="853" y="86"/>
      <point x="853" y="292" type="curve" smooth="yes"/>
      <point x="853" y="320" type="line" smooth="yes"/>
      <point x="853" y="505"/>
      <point x="772" y="581"/>
      <point x="519" y="641" type="curve" smooth="yes"/>
      <point x="473" y="652" type="line" smooth="yes"/>
      <point x="249" y="700"/>
      <point x="177" y="763"/>
      <point x="177" y="906" type="curve" smooth="yes"/>
      <point x="177" y="927" type="line" smooth="yes"/>
      <point x="177" y="1084"/>
      <point x="284" y="1158"/>
      <point x="490" y="1158" type="curve" smooth="yes"/>
      <point x="630" y="1158"/>
      <point x="733" y="1120"/>
      <point x="810" y="1071" type="curve"/>
      <point x="803" y="1113" type="line"/>
      <point x="742" y="1154"/>
      <point x="633" y="1194"/>
      <point x="490" y="1194" type="curve" smooth="yes"/>
      <point x="258" y="1194"/>
      <point x="138" y="1105"/>
      <point x="138" y="928" type="curve" smooth="yes"/>
      <point x="138" y="904" type="line" smooth="yes"/>
      <point x="138" y="743"/>
      <point x="225" y="664"/>
      <point x="460" y="618" type="curve" smooth="yes"/>
      <point x="506" y="607" type="line" smooth="yes"/>
      <point x="741" y="551"/>
      <point x="814" y="484"/>
      <point x="814" y="318" type="curve" smooth="yes"/>
      <point x="814" y="293" type="line" smooth="yes"/>
      <point x="814" y="106"/>
      <point x="707" y="23"/>
      <point x="494" y="23" type="curve" smooth="yes"/>
      <point x="335" y="23"/>
      <point x="216" y="70"/>
      <point x="115" y="143" type="curve"/>
      <point x="122" y="94" type="line"/>
      <point x="198" y="41"/>
      <point x="318" y="-13"/>
    </contour>
  </outline>
</glyph>
<glyph name="Ddha.gj" format="2">
  <advance width="1140"/>
  <unicode hex="0AA2"/>
  <anchor x="614" y="-86" name="Bottom"/>
  <anchor x="747" y="1263" name="Top"/>
  <anchor x="582" y="1263" name="Top2"/>
  <outline>
    <contour>
      <point x="585" y="-13" type="curve" smooth="yes"/>
      <point x="861" y="-13"/>
      <point x="1016" y="84"/>
      <point x="1016" y="287" type="curve" smooth="yes"/>
      <point x="1016" y="319" type="line" smooth="yes"/>
      <point x="1016" y="472"/>
      <point x="936" y="552"/>
      <point x="790" y="552" type="curve" smooth="yes"/>
      <point x="641" y="552"/>
      <point x="559" y="471"/>
      <point x="559" y="318" type="curve" smooth="yes"/>
      <point x="559" y="283" type="line" smooth="yes"/>
      <point x="559" y="140"/>
      <point x="628" y="67"/>
      <point x="736" y="24" type="curve"/>
      <point x="737" y="21" type="line"/>
      <point x="780" y="30" type="line"/>
      <point x="650" y="85"/>
      <point x="596" y="151"/>
      <point x="596" y="285" type="curve" smooth="yes"/>
      <point x="596" y="318" type="line" smooth="yes"/>
      <point x="596" y="450"/>
      <point x="664" y="518"/>
      <point x="790" y="518" type="curve" smooth="yes"/>
      <point x="912" y="518"/>
      <point x="978" y="450"/>
      <point x="978" y="319" type="curve" smooth="yes"/>
      <point x="978" y="288" type="line" smooth="yes"/>
      <point x="978" y="124"/>
      <point x="869" y="64"/>
      <point x="747" y="36" type="curve"/>
      <point x="735" y="35" type="line"/>
      <point x="689" y="27"/>
      <point x="638" y="23"/>
      <point x="585" y="23" type="curve" smooth="yes"/>
      <point x="326" y="23"/>
      <point x="181" y="131"/>
      <point x="181" y="362" type="curve" smooth="yes"/>
      <point x="181" y="395" type="line" smooth="yes"/>
      <point x="181" y="600"/>
      <point x="271" y="706"/>
      <point x="496" y="747" type="curve" smooth="yes"/>
      <point x="646" y="774" type="line" smooth="yes"/>
      <point x="844" y="809"/>
      <point x="894" y="880"/>
      <point x="894" y="990" type="curve" smooth="yes"/>
      <point x="894" y="996" type="line" smooth="yes"/>
      <point x="894" y="1127"/>
      <point x="786" y="1194"/>
      <point x="571" y="1194" type="curve" smooth="yes"/>
      <point x="405" y="1194"/>
      <point x="301" y="1149"/>
      <point x="248" y="1120" type="curve"/>
      <point x="243" y="1078" type="line"/>
      <point x="317" y="1118"/>
      <point x="423" y="1158"/>
      <point x="570" y="1158" type="curve" smooth="yes"/>
      <point x="761" y="1158"/>
      <point x="855" y="1104"/>
      <point x="855" y="996" type="curve" smooth="yes"/>
      <point x="855" y="992" type="line" smooth="yes"/>
      <point x="855" y="899"/>
      <point x="813" y="842"/>
      <point x="632" y="809" type="curve" smooth="yes"/>
      <point x="482" y="782" type="line" smooth="yes"/>
      <point x="242" y="739"/>
      <point x="142" y="623"/>
      <point x="142" y="396" type="curve" smooth="yes"/>
      <point x="142" y="361" type="line" smooth="yes"/>
      <point x="142" y="111"/>
      <point x="297" y="-13"/>
    </contour>
  </outline>
</glyph>
<glyph name="Ta.gj" format="2">
  <advance width="1088"/>
  <unicode hex="0AA4"/>
  <anchor x="846" y="-86" name="Bottom"/>
  <anchor x="830" y="1263" name="Top"/>
  <anchor x="859" y="1263" name="Top2"/>
  <outline>
    <contour>
      <point x="840" y="539" type="line"/>
      <point x="878" y="539" type="line"/>
      <point x="878" y="1177" type="line"/>
      <point x="840" y="1177" type="line"/>
    </contour>
    <contour>
      <point x="840" y="0" type="line"/>
      <point x="878" y="0" type="line"/>
      <point x="878" y="710" type="line"/>
      <point x="840" y="710" type="line"/>
    </contour>
    <contour>
      <point x="340" y="0" type="curve"/>
      <point x="385" y="0" type="line"/>
      <point x="241" y="208"/>
      <point x="173" y="358"/>
      <point x="173" y="536" type="curve" smooth="yes"/>
      <point x="173" y="734"/>
      <point x="271" y="824"/>
      <point x="474" y="824" type="curve" smooth="yes"/>
      <point x="855" y="824" type="line"/>
      <point x="855" y="858" type="line"/>
      <point x="469" y="858" type="line" smooth="yes"/>
      <point x="241" y="858"/>
      <point x="134" y="752"/>
      <point x="134" y="536" type="curve" smooth="yes"/>
      <point x="134" y="353"/>
      <point x="207" y="198"/>
    </contour>
  </outline>
</glyph>
<glyph name="Tha.gj" format="2">
  <advance width="1281"/>
  <unicode hex="0AA5"/>
  <anchor x="1039" y="-86" name="Bottom"/>
  <anchor x="1023" y="1263" name="Top"/>
  <anchor x="1052" y="1263" name="Top2"/>
  <outline>
    <contour>
      <point x="614" y="134" type="curve" smooth="yes"/>
      <point x="857" y="134"/>
      <point x="998" y="233"/>
      <point x="1038" y="367" type="curve"/>
      <point x="1041" y="367" type="line"/>
      <point x="1036" y="432" type="line"/>
      <point x="990" y="260"/>
      <point x="843" y="170"/>
      <point x="614" y="170" type="curve" smooth="yes"/>
      <point x="343" y="170"/>
      <point x="185" y="284"/>
      <point x="185" y="507" type="curve" smooth="yes"/>
      <point x="185" y="535"/>
      <point x="185" y="562"/>
      <point x="187" y="590" type="curve"/>
      <point x="160" y="566" type="line"/>
      <point x="375" y="566" type="line" smooth="yes"/>
      <point x="589" y="566"/>
      <point x="697" y="662"/>
      <point x="697" y="866" type="curve" smooth="yes"/>
      <point x="697" y="916" type="line" smooth="yes"/>
      <point x="697" y="1100"/>
      <point x="604" y="1194"/>
      <point x="430" y="1194" type="curve" smooth="yes"/>
      <point x="255" y="1194"/>
      <point x="164" y="1101"/>
      <point x="164" y="914" type="curve" smooth="yes"/>
      <point x="164" y="869"/>
      <point x="165" y="819"/>
      <point x="168" y="770" type="curve"/>
      <point x="202" y="770" type="line"/>
      <point x="202" y="819"/>
      <point x="202" y="864"/>
      <point x="202" y="913" type="curve" smooth="yes"/>
      <point x="202" y="1083"/>
      <point x="282" y="1158"/>
      <point x="430" y="1158" type="curve" smooth="yes"/>
      <point x="579" y="1158"/>
      <point x="658" y="1077"/>
      <point x="658" y="915" type="curve" smooth="yes"/>
      <point x="658" y="870" type="line" smooth="yes"/>
      <point x="658" y="683"/>
      <point x="564" y="600"/>
      <point x="370" y="600" type="curve" smooth="yes"/>
      <point x="148" y="600" type="line"/>
      <point x="146" y="577"/>
      <point x="146" y="547"/>
      <point x="146" y="507" type="curve" smooth="yes"/>
      <point x="146" y="263"/>
      <point x="320" y="134"/>
    </contour>
    <contour>
      <point x="1033" y="539" type="line"/>
      <point x="1071" y="539" type="line"/>
      <point x="1071" y="1177" type="line"/>
      <point x="1033" y="1177" type="line"/>
    </contour>
    <contour>
      <point x="1033" y="0" type="line"/>
      <point x="1071" y="0" type="line"/>
      <point x="1071" y="710" type="line"/>
      <point x="1033" y="710" type="line"/>
    </contour>
  </outline>
</glyph>
<glyph name="Da.gj" format="2">
  <advance width="923"/>
  <unicode hex="0AA6"/>
  <anchor x="533" y="-86" name="Bottom"/>
  <anchor x="633" y="1263" name="Top"/>
  <anchor x="519" y="1263" name="Top2"/>
  <outline>
    <contour>
      <point x="509" y="-13" type="curve" smooth="yes"/>
      <point x="650" y="-13"/>
      <point x="764" y="28"/>
      <point x="837" y="88" type="curve"/>
      <point x="842" y="138" type="line"/>
      <point x="759" y="64"/>
      <point x="643" y="23"/>
      <point x="509" y="23" type="curve" smooth="yes"/>
      <point x="298" y="23"/>
      <point x="187" y="113"/>
      <point x="187" y="307" type="curve" smooth="yes"/>
      <point x="187" y="328" type="line" smooth="yes"/>
      <point x="187" y="518"/>
      <point x="299" y="595"/>
      <point x="502" y="598" type="curve" smooth="yes"/>
      <point x="711" y="601" type="line"/>
      <point x="711" y="630" type="line"/>
      <point x="502" y="633" type="line" smooth="yes"/>
      <point x="315" y="636"/>
      <point x="206" y="696"/>
      <point x="206" y="879" type="curve" smooth="yes"/>
      <point x="206" y="900" type="line" smooth="yes"/>
      <point x="206" y="1076"/>
      <point x="309" y="1158"/>
      <point x="510" y="1158" type="curve" smooth="yes"/>
      <point x="643" y="1158"/>
      <point x="742" y="1120"/>
      <point x="815" y="1071" type="curve"/>
      <point x="808" y="1113" type="line"/>
      <point x="750" y="1154"/>
      <point x="646" y="1194"/>
      <point x="510" y="1194" type="curve" smooth="yes"/>
      <point x="282" y="1194"/>
      <point x="167" y="1097"/>
      <point x="167" y="902" type="curve" smooth="yes"/>
      <point x="167" y="879" type="line" smooth="yes"/>
      <point x="167" y="708"/>
      <point x="249" y="634"/>
      <point x="388" y="617" type="curve"/>
      <point x="388" y="615" type="line"/>
      <point x="240" y="596"/>
      <point x="148" y="507"/>
      <point x="148" y="328" type="curve" smooth="yes"/>
      <point x="148" y="306" type="line" smooth="yes"/>
      <point x="148" y="94"/>
      <point x="271" y="-13"/>
    </contour>
  </outline>
</glyph>
<glyph name="Dha.gj" format="2">
  <advance width="1189"/>
  <unicode hex="0AA7"/>
  <anchor x="947" y="-86" name="Bottom"/>
  <anchor x="931" y="1263" name="Top"/>
  <anchor x="959" y="1263" name="Top2"/>
  <outline>
    <contour>
      <point x="534" y="128" type="curve" smooth="yes"/>
      <point x="766" y="128"/>
      <point x="904" y="218"/>
      <point x="946" y="334" type="curve"/>
      <point x="949" y="334" type="line"/>
      <point x="944" y="398" type="line"/>
      <point x="903" y="247"/>
      <point x="755" y="164"/>
      <point x="535" y="164" type="curve" smooth="yes"/>
      <point x="316" y="164"/>
      <point x="187" y="241"/>
      <point x="187" y="422" type="curve" smooth="yes"/>
      <point x="187" y="434" type="line" smooth="yes"/>
      <point x="187" y="599"/>
      <point x="286" y="663"/>
      <point x="473" y="666" type="curve" smooth="yes"/>
      <point x="634" y="669" type="line"/>
      <point x="634" y="699" type="line"/>
      <point x="473" y="702" type="line" smooth="yes"/>
      <point x="290" y="705"/>
      <point x="192" y="755"/>
      <point x="192" y="900" type="curve" smooth="yes"/>
      <point x="192" y="906" type="line" smooth="yes"/>
      <point x="192" y="1034"/>
      <point x="302" y="1146"/>
      <point x="491" y="1278" type="curve"/>
      <point x="491" y="1282" type="line"/>
      <point x="439" y="1282" type="line"/>
      <point x="269" y="1157"/>
      <point x="153" y="1047"/>
      <point x="153" y="906" type="curve" smooth="yes"/>
      <point x="153" y="900" type="line" smooth="yes"/>
      <point x="153" y="760"/>
      <point x="231" y="700"/>
      <point x="369" y="686" type="curve"/>
      <point x="369" y="684" type="line"/>
      <point x="228" y="668"/>
      <point x="148" y="592"/>
      <point x="148" y="435" type="curve" smooth="yes"/>
      <point x="148" y="421" type="line" smooth="yes"/>
      <point x="148" y="218"/>
      <point x="292" y="128"/>
    </contour>
    <contour>
      <point x="941" y="539" type="line"/>
      <point x="979" y="539" type="line"/>
      <point x="979" y="1177" type="line"/>
      <point x="941" y="1177" type="line"/>
    </contour>
    <contour>
      <point x="941" y="0" type="line"/>
      <point x="979" y="0" type="line"/>
      <point x="979" y="710" type="line"/>
      <point x="941" y="710" type="line"/>
    </contour>
  </outline>
</glyph>
<glyph name="Na.gj" format="2">
  <advance width="1029"/>
  <unicode hex="0AA8"/>
  <anchor x="787" y="-86" name="Bottom"/>
  <anchor x="771" y="1263" name="Top"/>
  <anchor x="800" y="1263" name="Top2"/>
  <outline>
    <contour>
      <point x="781" y="539" type="line"/>
      <point x="819" y="539" type="line"/>
      <point x="819" y="1177" type="line"/>
      <point x="781" y="1177" type="line"/>
    </contour>
    <contour>
      <point x="781" y="0" type="line"/>
      <point x="819" y="0" type="line"/>
      <point x="819" y="710" type="line"/>
      <point x="781" y="710" type="line"/>
    </contour>
    <contour>
      <point x="196" y="295" type="curve"/>
      <point x="239" y="295" type="line"/>
      <point x="239" y="774" type="line"/>
      <point x="192" y="774" type="line"/>
      <point x="135" y="740" type="line"/>
      <point x="158" y="566"/>
      <point x="172" y="468"/>
    </contour>
    <contour>
      <point x="212" y="740" type="line"/>
      <point x="813" y="740" type="line"/>
      <point x="806" y="774" type="line"/>
      <point x="212" y="774" type="line"/>
    </contour>
  </outline>
</glyph>
<glyph name="Pa.gj" format="2">
  <advance width="1104"/>
  <unicode hex="0AAA"/>
  <anchor x="862" y="-86" name="Bottom"/>
  <anchor x="846" y="1263" name="Top"/>
  <anchor x="875" y="1263" name="Top2"/>
  <outline>
    <contour>
      <point x="544" y="279" type="curve" smooth="yes"/>
      <point x="725" y="279"/>
      <point x="829" y="374"/>
      <point x="860" y="484" type="curve"/>
      <point x="864" y="484" type="line"/>
      <point x="859" y="550" type="line"/>
      <point x="817" y="400"/>
      <point x="715" y="315"/>
      <point x="544" y="315" type="curve" smooth="yes"/>
      <point x="347" y="315"/>
      <point x="239" y="410"/>
      <point x="239" y="648" type="curve" smooth="yes"/>
      <point x="239" y="769" type="line"/>
      <point x="201" y="769" type="line"/>
      <point x="201" y="645" type="line" smooth="yes"/>
      <point x="201" y="385"/>
      <point x="324" y="279"/>
    </contour>
    <contour>
      <point x="201" y="752" type="line"/>
      <point x="239" y="752" type="line"/>
      <point x="239" y="1023" type="line" smooth="yes"/>
      <point x="239" y="1127"/>
      <point x="196" y="1180"/>
      <point x="105" y="1180" type="curve" smooth="yes"/>
      <point x="80" y="1180"/>
      <point x="51" y="1176"/>
      <point x="30" y="1165" type="curve"/>
      <point x="26" y="1130" type="line"/>
      <point x="49" y="1139"/>
      <point x="76" y="1145"/>
      <point x="101" y="1145" type="curve" smooth="yes"/>
      <point x="170" y="1145"/>
      <point x="201" y="1107"/>
      <point x="201" y="1022" type="curve" smooth="yes"/>
    </contour>
    <contour>
      <point x="856" y="539" type="line"/>
      <point x="894" y="539" type="line"/>
      <point x="894" y="1177" type="line"/>
      <point x="856" y="1177" type="line"/>
    </contour>
    <contour>
      <point x="856" y="0" type="line"/>
      <point x="894" y="0" type="line"/>
      <point x="894" y="710" type="line"/>
      <point x="856" y="710" type="line"/>
    </contour>
  </outline>
</glyph>
<glyph name="Pha.gj" format="2">
  <advance width="1052"/>
  <unicode hex="0AAB"/>
  <anchor x="634" y="-409" name="Bottom"/>
  <anchor x="669" y="1263" name="Top"/>
  <anchor x="530" y="1263" name="Top2"/>
  <outline>
    <contour>
      <point x="516" y="-8" type="curve" smooth="yes"/>
      <point x="755" y="-8"/>
      <point x="872" y="92"/>
      <point x="872" y="304" type="curve" smooth="yes"/>
      <point x="872" y="335" type="line" smooth="yes"/>
      <point x="872" y="525"/>
      <point x="743" y="621"/>
      <point x="518" y="634" type="curve"/>
      <point x="494" y="612" type="line"/>
      <point x="723" y="593"/>
      <point x="833" y="502"/>
      <point x="833" y="332" type="curve" smooth="yes"/>
      <point x="833" y="305" type="line" smooth="yes"/>
      <point x="833" y="115"/>
      <point x="725" y="28"/>
      <point x="516" y="28" type="curve" smooth="yes"/>
      <point x="367" y="28"/>
      <point x="254" y="70"/>
      <point x="159" y="138" type="curve"/>
      <point x="166" y="88" type="line"/>
      <point x="237" y="41"/>
      <point x="351" y="-8"/>
    </contour>
    <contour>
      <point x="528" y="613" type="curve"/>
      <point x="559" y="636" type="line"/>
      <point x="330" y="653"/>
      <point x="222" y="728"/>
      <point x="222" y="893" type="curve" smooth="yes"/>
      <point x="222" y="911" type="line" smooth="yes"/>
      <point x="222" y="1081"/>
      <point x="323" y="1159"/>
      <point x="514" y="1159" type="curve" smooth="yes"/>
      <point x="646" y="1159"/>
      <point x="743" y="1121"/>
      <point x="815" y="1071" type="curve"/>
      <point x="809" y="1113" type="line"/>
      <point x="750" y="1154"/>
      <point x="649" y="1194"/>
      <point x="514" y="1194" type="curve" smooth="yes"/>
      <point x="297" y="1194"/>
      <point x="183" y="1100"/>
      <point x="183" y="914" type="curve" smooth="yes"/>
      <point x="183" y="890" type="line" smooth="yes"/>
      <point x="183" y="703"/>
      <point x="304" y="629"/>
    </contour>
    <contour>
      <point x="116" y="507" type="line"/>
      <point x="581" y="623" type="line"/>
      <point x="513" y="635" type="line"/>
      <point x="116" y="545" type="line"/>
    </contour>
    <contour>
      <point x="613" y="-323" type="line"/>
      <point x="661" y="-323" type="line"/>
      <point x="661" y="-320" type="line"/>
      <point x="447" y="-100" type="line" smooth="yes"/>
      <point x="395" y="-46"/>
      <point x="352" y="-3"/>
      <point x="293" y="47" type="curve"/>
      <point x="246" y="59" type="line"/>
    </contour>
    <contour>
      <point x="472" y="629" type="line"/>
      <point x="529" y="614" type="line"/>
      <point x="957" y="710" type="line"/>
      <point x="957" y="748" type="line"/>
    </contour>
  </outline>
</glyph>
<glyph name="Ma.gj" format="2">
  <advance width="1120"/>
  <unicode hex="0AAE"/>
  <anchor x="878" y="-86" name="Bottom"/>
  <anchor x="862" y="1263" name="Top"/>
  <anchor x="891" y="1263" name="Top2"/>
  <outline>
    <contour>
      <point x="255" y="591" type="line"/>
      <point x="293" y="591" type="line"/>
      <point x="293" y="1018" type="line" smooth="yes"/>
      <point x="293" y="1125"/>
      <point x="247" y="1180"/>
      <point x="152" y="1180" type="curve" smooth="yes"/>
      <point x="125" y="1180"/>
      <point x="93" y="1176"/>
      <point x="70" y="1164" type="curve"/>
      <point x="66" y="1128" type="line"/>
      <point x="90" y="1139"/>
      <point x="121" y="1145"/>
      <point x="146" y="1145" type="curve" smooth="yes"/>
      <point x="220" y="1145"/>
      <point x="255" y="1106"/>
      <point x="255" y="1017" type="curve" smooth="yes"/>
    </contour>
    <contour>
      <point x="248" y="179" type="curve"/>
      <point x="291" y="179" type="line"/>
      <point x="291" y="609" type="line"/>
      <point x="256" y="609" type="line"/>
      <point x="195" y="573" type="line"/>
      <point x="215" y="421"/>
      <point x="228" y="322"/>
    </contour>
    <contour>
      <point x="284" y="576" type="line"/>
      <point x="896" y="576" type="line"/>
      <point x="889" y="610" type="line"/>
      <point x="284" y="610" type="line"/>
    </contour>
    <contour>
      <point x="872" y="539" type="line"/>
      <point x="910" y="539" type="line"/>
      <point x="910" y="1177" type="line"/>
      <point x="872" y="1177" type="line"/>
    </contour>
    <contour>
      <point x="872" y="0" type="line"/>
      <point x="910" y="0" type="line"/>
      <point x="910" y="710" type="line"/>
      <point x="872" y="710" type="line"/>
    </contour>
  </outline>
</glyph>
<glyph name="Ya.gj" format="2">
  <advance width="1210"/>
  <unicode hex="0AAF"/>
  <anchor x="968" y="-86" name="Bottom"/>
  <anchor x="952" y="1263" name="Top"/>
  <anchor x="981" y="1263" name="Top2"/>
  <outline>
    <contour>
      <point x="569" y="151" type="curve" smooth="yes"/>
      <point x="799" y="151"/>
      <point x="931" y="247"/>
      <point x="968" y="378" type="curve"/>
      <point x="970" y="378" type="line"/>
      <point x="966" y="444" type="line"/>
      <point x="924" y="276"/>
      <point x="785" y="187"/>
      <point x="569" y="187" type="curve" smooth="yes"/>
      <point x="319" y="187"/>
      <point x="171" y="300"/>
      <point x="171" y="518" type="curve" smooth="yes"/>
      <point x="171" y="560"/>
      <point x="172" y="593"/>
      <point x="173" y="626" type="curve"/>
      <point x="146" y="602" type="line"/>
      <point x="302" y="602" type="line" smooth="yes"/>
      <point x="507" y="602"/>
      <point x="610" y="692"/>
      <point x="610" y="882" type="curve" smooth="yes"/>
      <point x="610" y="927" type="line" smooth="yes"/>
      <point x="610" y="1104"/>
      <point x="516" y="1194"/>
      <point x="348" y="1194" type="curve" smooth="yes"/>
      <point x="267" y="1194"/>
      <point x="202" y="1171"/>
      <point x="155" y="1134" type="curve"/>
      <point x="150" y="1091" type="line"/>
      <point x="203" y="1132"/>
      <point x="269" y="1158"/>
      <point x="348" y="1158" type="curve" smooth="yes"/>
      <point x="491" y="1158"/>
      <point x="571" y="1079"/>
      <point x="571" y="926" type="curve" smooth="yes"/>
      <point x="571" y="886" type="line" smooth="yes"/>
      <point x="571" y="714"/>
      <point x="481" y="637"/>
      <point x="297" y="637" type="curve" smooth="yes"/>
      <point x="134" y="637" type="line"/>
      <point x="133" y="598"/>
      <point x="132" y="562"/>
      <point x="132" y="518" type="curve" smooth="yes"/>
      <point x="132" y="278"/>
      <point x="295" y="151"/>
    </contour>
    <contour>
      <point x="962" y="539" type="line"/>
      <point x="1000" y="539" type="line"/>
      <point x="1000" y="1177" type="line"/>
      <point x="962" y="1177" type="line"/>
    </contour>
    <contour>
      <point x="962" y="0" type="line"/>
      <point x="1000" y="0" type="line"/>
      <point x="1000" y="710" type="line"/>
      <point x="962" y="710" type="line"/>
    </contour>
  </outline>
</glyph>
<glyph name="Ra.gj" format="2">
  <advance width="870"/>
  <unicode hex="0AB0"/>
  <guideline x="567" y="920" angle="0"/>
  <guideline x="567" y="781" angle="0"/>
  <guideline x="237" y="481" angle="0"/>
  <guideline x="-101" y="0" angle="0"/>
  <guideline x="760" y="0" angle="0"/>
  <anchor x="631" y="-86" name="Bottom"/>
  <anchor x="541" y="1263" name="Top"/>
  <anchor x="430" y="1263" name="Top2"/>
  <outline>
    <contour>
      <point x="233" y="473" type="line"/>
      <point x="237" y="479" type="line"/>
      <point x="337" y="479" type="line"/>
      <point x="595" y="479"/>
      <point x="723" y="596"/>
      <point x="723" y="820" type="curve" smooth="yes"/>
      <point x="723" y="874" type="line" smooth="yes"/>
      <point x="723" y="1085"/>
      <point x="607" y="1194"/>
      <point x="404" y="1194" type="curve" smooth="yes"/>
      <point x="259" y="1194"/>
      <point x="169" y="1153"/>
      <point x="115" y="1120" type="curve"/>
      <point x="109" y="1078" type="line"/>
      <point x="177" y="1118"/>
      <point x="269" y="1158"/>
      <point x="404" y="1158" type="curve" smooth="yes"/>
      <point x="582" y="1158"/>
      <point x="684" y="1060"/>
      <point x="684" y="872" type="curve" smooth="yes"/>
      <point x="684" y="823" type="line" smooth="yes"/>
      <point x="684" y="615"/>
      <point x="570" y="515"/>
      <point x="330" y="515" type="curve" smooth="yes"/>
      <point x="81" y="515" type="line"/>
      <point x="81" y="483" type="line"/>
    </contour>
    <contour>
      <point x="605" y="-13" type="curve" smooth="yes"/>
      <point x="671" y="-13"/>
      <point x="714" y="3"/>
      <point x="734" y="12" type="curve"/>
      <point x="739" y="50" type="line"/>
      <point x="714" y="39"/>
      <point x="672" y="23"/>
      <point x="605" y="23" type="curve" smooth="yes"/>
      <point x="430" y="23"/>
      <point x="329" y="139"/>
      <point x="280" y="357" type="curve" smooth="yes"/>
      <point x="248" y="498" type="line"/>
      <point x="209" y="496" type="line"/>
      <point x="241" y="354" type="line" smooth="yes"/>
      <point x="296" y="109"/>
      <point x="407" y="-13"/>
    </contour>
  </outline>
</glyph>
<glyph name="Lla.gj" format="2">
  <advance width="1454"/>
  <unicode hex="0AB3"/>
  <anchor x="1212" y="-86" name="Bottom"/>
  <anchor x="1120" y="1263" name="Top"/>
  <anchor x="980" y="1263" name="Top2"/>
  <outline>
    <contour>
      <point x="1206" y="0" type="line"/>
      <point x="1244" y="0" type="line"/>
      <point x="1244" y="870" type="line" smooth="yes"/>
      <point x="1244" y="1089"/>
      <point x="1153" y="1194"/>
      <point x="970" y="1194" type="curve" smooth="yes"/>
      <point x="787" y="1194"/>
      <point x="696" y="1091"/>
      <point x="696" y="886" type="curve" smooth="yes"/>
      <point x="696" y="758"/>
      <point x="708" y="624"/>
      <point x="708" y="496" type="curve" smooth="yes"/>
      <point x="708" y="300"/>
      <point x="629" y="206"/>
      <point x="466" y="206" type="curve" smooth="yes"/>
      <point x="288" y="206"/>
      <point x="199" y="313"/>
      <point x="199" y="532" type="curve" smooth="yes"/>
      <point x="199" y="742" type="line" smooth="yes"/>
      <point x="199" y="943"/>
      <point x="260" y="1076"/>
      <point x="364" y="1177" type="curve"/>
      <point x="315" y="1177" type="line"/>
      <point x="216" y="1077"/>
      <point x="160" y="943"/>
      <point x="160" y="743" type="curve" smooth="yes"/>
      <point x="160" y="532" type="line" smooth="yes"/>
      <point x="160" y="290"/>
      <point x="261" y="171"/>
      <point x="466" y="171" type="curve" smooth="yes"/>
      <point x="656" y="171"/>
      <point x="747" y="277"/>
      <point x="747" y="496" type="curve" smooth="yes"/>
      <point x="747" y="626"/>
      <point x="735" y="756"/>
      <point x="735" y="886" type="curve" smooth="yes"/>
      <point x="735" y="1065"/>
      <point x="812" y="1159"/>
      <point x="970" y="1159" type="curve" smooth="yes"/>
      <point x="1127" y="1159"/>
      <point x="1206" y="1067"/>
      <point x="1206" y="870" type="curve" smooth="yes"/>
    </contour>
  </outline>
</glyph>
<glyph name="Va.gj" format="2">
  <advance width="1121"/>
  <unicode hex="0AB5"/>
  <guideline x="156" y="969" angle="90"/>
  <guideline x="911" y="1279" angle="90"/>
  <anchor x="879" y="-86" name="Bottom"/>
  <anchor x="863" y="1263" name="Top"/>
  <anchor x="892" y="1263" name="Top2"/>
  <outline>
    <contour>
      <point x="540" y="245" type="curve" smooth="yes"/>
      <point x="728" y="245"/>
      <point x="843" y="340"/>
      <point x="878" y="453" type="curve"/>
      <point x="881" y="453" type="line"/>
      <point x="876" y="518" type="line"/>
      <point x="836" y="367"/>
      <point x="714" y="281"/>
      <point x="540" y="281" type="curve" smooth="yes"/>
      <point x="307" y="281"/>
      <point x="195" y="409"/>
      <point x="195" y="644" type="curve" smooth="yes"/>
      <point x="195" y="782" type="line" smooth="yes"/>
      <point x="195" y="1016"/>
      <point x="300" y="1141"/>
      <point x="519" y="1141" type="curve" smooth="yes"/>
      <point x="601" y="1141"/>
      <point x="657" y="1126"/>
      <point x="696" y="1110" type="curve"/>
      <point x="691" y="1148" type="line"/>
      <point x="659" y="1160"/>
      <point x="605" y="1176"/>
      <point x="518" y="1176" type="curve" smooth="yes"/>
      <point x="276" y="1176"/>
      <point x="156" y="1040"/>
      <point x="156" y="782" type="curve" smooth="yes"/>
      <point x="156" y="644" type="line" smooth="yes"/>
      <point x="156" y="384"/>
      <point x="282" y="245"/>
    </contour>
    <contour>
      <point x="873" y="539" type="line"/>
      <point x="911" y="539" type="line"/>
      <point x="911" y="1177" type="line"/>
      <point x="873" y="1177" type="line"/>
    </contour>
    <contour>
      <point x="873" y="0" type="line"/>
      <point x="911" y="0" type="line"/>
      <point x="911" y="710" type="line"/>
      <point x="873" y="710" type="line"/>
    </contour>
  </outline>
</glyph>
<glyph name="Sha.gj" format="2">
  <advance width="1378"/>
  <unicode hex="0AB6"/>
  <anchor x="1136" y="-86" name="Bottom"/>
  <anchor x="1120" y="1263" name="Top"/>
  <anchor x="1149" y="1263" name="Top2"/>
  <outline>
    <contour>
      <point x="1130" y="539" type="line"/>
      <point x="1168" y="539" type="line"/>
      <point x="1168" y="1177" type="line"/>
      <point x="1130" y="1177" type="line"/>
    </contour>
    <contour>
      <point x="1130" y="0" type="line"/>
      <point x="1168" y="0" type="line"/>
      <point x="1168" y="710" type="line"/>
      <point x="1130" y="710" type="line"/>
    </contour>
    <contour>
      <point x="268" y="422" type="line"/>
      <point x="272" y="429" type="line"/>
      <point x="405" y="429" type="line" smooth="yes"/>
      <point x="672" y="429"/>
      <point x="805" y="559"/>
      <point x="805" y="803" type="curve" smooth="yes"/>
      <point x="805" y="870" type="line" smooth="yes"/>
      <point x="805" y="1086"/>
      <point x="699" y="1194"/>
      <point x="481" y="1194" type="curve" smooth="yes"/>
      <point x="272" y="1194"/>
      <point x="168" y="1092"/>
      <point x="168" y="893" type="curve" smooth="yes"/>
      <point x="168" y="879" type="line" smooth="yes"/>
      <point x="168" y="799"/>
      <point x="186" y="728"/>
      <point x="211" y="673" type="curve"/>
      <point x="250" y="673" type="line"/>
      <point x="225" y="731"/>
      <point x="207" y="804"/>
      <point x="207" y="878" type="curve" smooth="yes"/>
      <point x="207" y="892" type="line" smooth="yes"/>
      <point x="207" y="1071"/>
      <point x="300" y="1158"/>
      <point x="482" y="1158" type="curve" smooth="yes"/>
      <point x="672" y="1158"/>
      <point x="766" y="1064"/>
      <point x="766" y="869" type="curve" smooth="yes"/>
      <point x="766" y="807" type="line" smooth="yes"/>
      <point x="766" y="576"/>
      <point x="647" y="465"/>
      <point x="398" y="465" type="curve" smooth="yes"/>
      <point x="95" y="465" type="line"/>
      <point x="95" y="433" type="line"/>
    </contour>
    <contour>
      <point x="651" y="-4" type="curve" smooth="yes"/>
      <point x="715" y="-4"/>
      <point x="756" y="8"/>
      <point x="779" y="18" type="curve"/>
      <point x="785" y="57" type="line"/>
      <point x="759" y="44"/>
      <point x="718" y="32"/>
      <point x="653" y="32" type="curve" smooth="yes"/>
      <point x="487" y="32"/>
      <point x="366" y="125"/>
      <point x="306" y="373" type="curve" smooth="yes"/>
      <point x="286" y="456" type="line"/>
      <point x="247" y="454" type="line"/>
      <point x="267" y="370" type="line" smooth="yes"/>
      <point x="331" y="103"/>
      <point x="460" y="-4"/>
    </contour>
  </outline>
</glyph>
<glyph name="Ssa.gj" format="2">
  <advance width="1127"/>
  <unicode hex="0AB7"/>
  <anchor x="885" y="-86" name="Bottom"/>
  <anchor x="869" y="1263" name="Top"/>
  <anchor x="898" y="1263" name="Top2"/>
  <outline>
    <contour>
      <point x="874" y="453" type="line"/>
      <point x="888" y="486" type="line"/>
      <point x="199" y="1145" type="line"/>
      <point x="175" y="1126" type="line"/>
      <point x="202" y="1094"/>
      <point x="242" y="1050"/>
      <point x="295" y="999" type="curve" smooth="yes"/>
    </contour>
    <contour>
      <point x="556" y="253" type="curve" smooth="yes"/>
      <point x="738" y="253"/>
      <point x="850" y="344"/>
      <point x="882" y="444" type="curve"/>
      <point x="886" y="444" type="line"/>
      <point x="882" y="507" type="line"/>
      <point x="842" y="372"/>
      <point x="728" y="288"/>
      <point x="556" y="288" type="curve" smooth="yes"/>
      <point x="351" y="288"/>
      <point x="239" y="382"/>
      <point x="239" y="617" type="curve" smooth="yes"/>
      <point x="239" y="812" type="line"/>
      <point x="201" y="812" type="line"/>
      <point x="201" y="614" type="line" smooth="yes"/>
      <point x="201" y="358"/>
      <point x="328" y="253"/>
    </contour>
    <contour>
      <point x="201" y="749" type="line"/>
      <point x="239" y="749" type="line"/>
      <point x="239" y="1020" type="line" smooth="yes"/>
      <point x="239" y="1124"/>
      <point x="196" y="1177"/>
      <point x="105" y="1177" type="curve" smooth="yes"/>
      <point x="80" y="1177"/>
      <point x="51" y="1173"/>
      <point x="30" y="1162" type="curve"/>
      <point x="26" y="1127" type="line"/>
      <point x="49" y="1136"/>
      <point x="76" y="1142"/>
      <point x="101" y="1142" type="curve" smooth="yes"/>
      <point x="170" y="1142"/>
      <point x="201" y="1104"/>
      <point x="201" y="1019" type="curve" smooth="yes"/>
    </contour>
    <contour>
      <point x="879" y="539" type="line"/>
      <point x="917" y="539" type="line"/>
      <point x="917" y="1177" type="line"/>
      <point x="879" y="1177" type="line"/>
    </contour>
    <contour>
      <point x="879" y="0" type="line"/>
      <point x="917" y="0" type="line"/>
      <point x="917" y="710" type="line"/>
      <point x="879" y="710" type="line"/>
    </contour>
  </outline>
</glyph>
<glyph name="Nukta.gj" format="2">
  <unicode hex="0ABC"/>
  <anchor x="137" y="-86" name="_Bottom"/>
  <outline>
    <contour>
      <point x="149" y="-218" type="curve" smooth="yes"/>
      <point x="186" y="-218"/>
      <point x="200" y="-195"/>
      <point x="200" y="-156" type="curve" smooth="yes"/>
      <point x="200" y="-148" type="line" smooth="yes"/>
      <point x="200" y="-110"/>
      <point x="185" y="-86"/>
      <point x="149" y="-86" type="curve" smooth="yes"/>
      <point x="113" y="-86"/>
      <point x="98" y="-110"/>
      <point x="98" y="-148" type="curve" smooth="yes"/>
      <point x="98" y="-156" type="line" smooth="yes"/>
      <point x="98" y="-195"/>
      <point x="113" y="-218"/>
    </contour>
  </outline>
</glyph>
<glyph name="Avagraha.gj" format="2">
  <advance width="986"/>
  <unicode hex="0ABD"/>
  <guideline x="462" y="1225" angle="90"/>
  <outline>
    <contour>
      <point x="494" y="-13" type="curve" smooth="yes"/>
      <point x="736" y="-13"/>
      <point x="853" y="86"/>
      <point x="853" y="292" type="curve" smooth="yes"/>
      <point x="853" y="320" type="line" smooth="yes"/>
      <point x="853" y="505"/>
      <point x="772" y="581"/>
      <point x="519" y="641" type="curve" smooth="yes"/>
      <point x="473" y="652" type="line" smooth="yes"/>
      <point x="250" y="705"/>
      <point x="177" y="763"/>
      <point x="177" y="906" type="curve" smooth="yes"/>
      <point x="177" y="919" type="line" smooth="yes"/>
      <point x="177" y="1070"/>
      <point x="279" y="1141"/>
      <point x="474" y="1141" type="curve" smooth="yes"/>
      <point x="792" y="1141" type="line"/>
      <point x="785" y="1177" type="line"/>
      <point x="474" y="1177" type="line" smooth="yes"/>
      <point x="253" y="1177"/>
      <point x="138" y="1091"/>
      <point x="138" y="920" type="curve" smooth="yes"/>
      <point x="138" y="904" type="line" smooth="yes"/>
      <point x="138" y="743"/>
      <point x="227" y="674"/>
      <point x="460" y="618" type="curve" smooth="yes"/>
      <point x="506" y="607" type="line" smooth="yes"/>
      <point x="741" y="551"/>
      <point x="814" y="484"/>
      <point x="814" y="318" type="curve" smooth="yes"/>
      <point x="814" y="293" type="line" smooth="yes"/>
      <point x="814" y="106"/>
      <point x="707" y="23"/>
      <point x="494" y="23" type="curve" smooth="yes"/>
      <point x="335" y="23"/>
      <point x="216" y="70"/>
      <point x="115" y="143" type="curve"/>
      <point x="122" y="94" type="line"/>
      <point x="198" y="41"/>
      <point x="318" y="-13"/>
    </contour>
  </outline>
</glyph>
<glyph name="MatraA.gj" format="2">
  <advance width="458"/>
  <unicode hex="0ABE"/>
  <guideline x="210" y="1298" angle="270"/>
  <guideline x="200" y="1298" angle="270"/>
  <anchor x="216" y="-86" name="Bottom"/>
  <anchor x="200" y="1263" name="Top"/>
  <anchor x="228" y="1263" name="Top2"/>
  <outline>
    <contour>
      <point x="210" y="539" type="line"/>
      <point x="248" y="539" type="line"/>
      <point x="248" y="1177" type="line"/>
      <point x="210" y="1177" type="line"/>
    </contour>
    <contour>
      <point x="210" y="0" type="line"/>
      <point x="248" y="0" type="line"/>
      <point x="248" y="710" type="line"/>
      <point x="210" y="710" type="line"/>
    </contour>
  </outline>
</glyph>
<glyph name="MatraIi.gj" format="2">
  <advance width="458"/>
  <unicode hex="0AC0"/>
  <anchor x="216" y="-86" name="Bottom"/>
  <anchor x="200" y="1263" name="Top"/>
  <anchor x="228" y="1263" name="Top2"/>
  <outline>
    <contour>
      <point x="210" y="1100" type="line"/>
      <point x="248" y="1100" type="line"/>
      <point x="248" y="1424" type="line" smooth="yes"/>
      <point x="248" y="1628"/>
      <point x="162" y="1721"/>
      <point x="-3" y="1721" type="curve" smooth="yes"/>
      <point x="-161" y="1721"/>
      <point x="-248" y="1631"/>
      <point x="-248" y="1449" type="curve" smooth="yes"/>
      <point x="-248" y="1263" type="line"/>
      <point x="-210" y="1263" type="line"/>
      <point x="-210" y="1449" type="line" smooth="yes"/>
      <point x="-210" y="1609"/>
      <point x="-135" y="1686"/>
      <point x="-3" y="1686" type="curve" smooth="yes"/>
      <point x="140" y="1686"/>
      <point x="210" y="1606"/>
      <point x="210" y="1422" type="curve" smooth="yes"/>
    </contour>
    <contour>
      <point x="210" y="539" type="line"/>
      <point x="248" y="539" type="line"/>
      <point x="248" y="1177" type="line"/>
      <point x="210" y="1177" type="line"/>
    </contour>
    <contour>
      <point x="210" y="0" type="line"/>
      <point x="248" y="0" type="line"/>
      <point x="248" y="710" type="line"/>
      <point x="210" y="710" type="line"/>
    </contour>
  </outline>
</glyph>
<glyph name="MatraU.gj" format="2">
  <unicode hex="0AC1"/>
  <anchor x="601" y="-86" name="_Bottom"/>
  <outline>
    <contour>
      <point x="551" y="-623" type="curve" smooth="yes"/>
      <point x="736" y="-623"/>
      <point x="834" y="-532"/>
      <point x="834" y="-363" type="curve" smooth="yes"/>
      <point x="834" y="-343" type="line" smooth="yes"/>
      <point x="834" y="-179"/>
      <point x="749" y="-86"/>
      <point x="601" y="-86" type="curve" smooth="yes"/>
      <point x="516" y="-86"/>
      <point x="451" y="-108"/>
      <point x="396" y="-142" type="curve"/>
      <point x="391" y="-185" type="line"/>
      <point x="457" y="-141"/>
      <point x="524" y="-119"/>
      <point x="601" y="-119" type="curve" smooth="yes"/>
      <point x="724" y="-119"/>
      <point x="798" y="-192"/>
      <point x="798" y="-344" type="curve" smooth="yes"/>
      <point x="798" y="-362" type="line" smooth="yes"/>
      <point x="798" y="-510"/>
      <point x="709" y="-589"/>
      <point x="551" y="-589" type="curve" smooth="yes"/>
      <point x="356" y="-589"/>
      <point x="223" y="-460"/>
      <point x="139" y="-225" type="curve"/>
      <point x="100" y="-225" type="line"/>
      <point x="194" y="-486"/>
      <point x="330" y="-623"/>
    </contour>
  </outline>
</glyph>
<glyph name="MatraUu.gj" format="2">
  <unicode hex="0AC2"/>
  <anchor x="375" y="-86" name="_Bottom"/>
  <outline>
    <contour>
      <point x="796" y="-628" type="curve"/>
      <point x="833" y="-628" type="line"/>
      <point x="745" y="-271"/>
      <point x="625" y="-86"/>
      <point x="375" y="-86" type="curve" smooth="yes"/>
      <point x="205" y="-86"/>
      <point x="100" y="-175"/>
      <point x="100" y="-344" type="curve" smooth="yes"/>
      <point x="100" y="-364" type="line" smooth="yes"/>
      <point x="100" y="-535"/>
      <point x="204" y="-623"/>
      <point x="356" y="-623" type="curve" smooth="yes"/>
      <point x="434" y="-623"/>
      <point x="495" y="-606"/>
      <point x="543" y="-575" type="curve"/>
      <point x="547" y="-534" type="line"/>
      <point x="489" y="-574"/>
      <point x="429" y="-590"/>
      <point x="356" y="-590" type="curve" smooth="yes"/>
      <point x="224" y="-590"/>
      <point x="136" y="-514"/>
      <point x="136" y="-363" type="curve" smooth="yes"/>
      <point x="136" y="-346" type="line" smooth="yes"/>
      <point x="136" y="-195"/>
      <point x="230" y="-119"/>
      <point x="376" y="-119" type="curve" smooth="yes"/>
      <point x="603" y="-119"/>
      <point x="714" y="-295"/>
    </contour>
  </outline>
</glyph>
<glyph name="MatraRu.gj" format="2">
  <unicode hex="0AC3"/>
  <anchor x="441" y="-86" name="_Bottom"/>
  <outline>
    <contour>
      <point x="381" y="-623" type="curve" smooth="yes"/>
      <point x="489" y="-623"/>
      <point x="566" y="-597"/>
      <point x="629" y="-550" type="curve"/>
      <point x="633" y="-506" type="line"/>
      <point x="562" y="-563"/>
      <point x="484" y="-589"/>
      <point x="381" y="-589" type="curve" smooth="yes"/>
      <point x="234" y="-589"/>
      <point x="136" y="-513"/>
      <point x="136" y="-362" type="curve" smooth="yes"/>
      <point x="136" y="-346" type="line" smooth="yes"/>
      <point x="136" y="-187"/>
      <point x="226" y="-119"/>
      <point x="415" y="-119" type="curve" smooth="yes"/>
      <point x="528" y="-119" type="line"/>
      <point x="528" y="-86" type="line"/>
      <point x="410" y="-86" type="line" smooth="yes"/>
      <point x="201" y="-86"/>
      <point x="100" y="-167"/>
      <point x="100" y="-345" type="curve" smooth="yes"/>
      <point x="100" y="-363" type="line" smooth="yes"/>
      <point x="100" y="-535"/>
      <point x="214" y="-623"/>
    </contour>
  </outline>
</glyph>
<glyph name="MatraRuu.gj" format="2">
  <unicode hex="0AC4"/>
  <anchor x="391" y="-86" name="_Bottom"/>
  <outline>
    <contour>
      <point x="349" y="-482" type="curve" smooth="yes"/>
      <point x="445" y="-482"/>
      <point x="513" y="-463"/>
      <point x="569" y="-428" type="curve"/>
      <point x="572" y="-388" type="line"/>
      <point x="509" y="-431"/>
      <point x="440" y="-450"/>
      <point x="348" y="-450" type="curve" smooth="yes"/>
      <point x="214" y="-450"/>
      <point x="134" y="-392"/>
      <point x="134" y="-289" type="curve" smooth="yes"/>
      <point x="134" y="-275" type="line" smooth="yes"/>
      <point x="134" y="-164"/>
      <point x="212" y="-117"/>
      <point x="373" y="-117" type="curve" smooth="yes"/>
      <point x="478" y="-117" type="line"/>
      <point x="478" y="-86" type="line"/>
      <point x="369" y="-86" type="line" smooth="yes"/>
      <point x="188" y="-86"/>
      <point x="100" y="-145"/>
      <point x="100" y="-273" type="curve" smooth="yes"/>
      <point x="100" y="-291" type="line" smooth="yes"/>
      <point x="100" y="-379"/>
      <point x="147" y="-440"/>
      <point x="233" y="-465" type="curve"/>
      <point x="253" y="-472" type="line"/>
      <point x="281" y="-479"/>
      <point x="313" y="-482"/>
    </contour>
    <contour>
      <point x="356" y="-802" type="curve" smooth="yes"/>
      <point x="452" y="-802"/>
      <point x="521" y="-782"/>
      <point x="577" y="-747" type="curve"/>
      <point x="580" y="-708" type="line"/>
      <point x="517" y="-751"/>
      <point x="447" y="-770"/>
      <point x="356" y="-770" type="curve" smooth="yes"/>
      <point x="221" y="-770"/>
      <point x="141" y="-715"/>
      <point x="141" y="-620" type="curve" smooth="yes"/>
      <point x="141" y="-610" type="line" smooth="yes"/>
      <point x="141" y="-528"/>
      <point x="195" y="-481"/>
      <point x="292" y="-471" type="curve"/>
      <point x="254" y="-450" type="line"/>
      <point x="254" y="-456" type="line"/>
      <point x="163" y="-468"/>
      <point x="107" y="-523"/>
      <point x="107" y="-609" type="curve" smooth="yes"/>
      <point x="107" y="-621" type="line" smooth="yes"/>
      <point x="107" y="-734"/>
      <point x="200" y="-802"/>
    </contour>
  </outline>
</glyph>
<glyph name="MatraChandraE.gj" format="2">
  <unicode hex="0AC5"/>
  <anchor x="690" y="1263" name="_Top"/>
  <outline>
    <contour>
      <point x="723" y="1263" type="curve" smooth="yes"/>
      <point x="770" y="1263"/>
      <point x="807" y="1280"/>
      <point x="826" y="1296" type="curve"/>
      <point x="826" y="1330" type="line"/>
      <point x="807" y="1312"/>
      <point x="770" y="1295"/>
      <point x="724" y="1295" type="curve" smooth="yes"/>
      <point x="662" y="1295"/>
      <point x="614" y="1314"/>
      <point x="510" y="1403" type="curve" smooth="yes"/>
      <point x="125" y="1734" type="line"/>
      <point x="100" y="1708" type="line"/>
      <point x="485" y="1382" type="line" smooth="yes"/>
      <point x="593" y="1291"/>
      <point x="652" y="1263"/>
    </contour>
  </outline>
</glyph>
<glyph name="MatraE.gj" format="2">
  <unicode hex="0AC7"/>
  <anchor x="725" y="1263" name="_Top"/>
  <outline>
    <contour>
      <point x="725" y="1263" type="curve"/>
      <point x="745" y="1286" type="line"/>
      <point x="540" y="1436"/>
      <point x="336" y="1586"/>
      <point x="133" y="1734" type="curve"/>
      <point x="110" y="1706" type="line"/>
      <point x="315" y="1558"/>
      <point x="520" y="1411"/>
    </contour>
  </outline>
</glyph>
<glyph name="MatraAi.gj" format="2">
  <unicode hex="0AC8"/>
  <anchor x="737" y="1263" name="_Top"/>
  <outline>
    <contour>
      <point x="737" y="1263" type="line"/>
      <point x="759" y="1289" type="line"/>
      <point x="377" y="1885" type="line"/>
      <point x="347" y="1865" type="line"/>
      <point x="717" y="1307" type="line"/>
      <point x="716" y="1306" type="line"/>
      <point x="103" y="1593" type="line"/>
      <point x="86" y="1562" type="line"/>
    </contour>
  </outline>
</glyph>
<glyph name="MatraChandraO.gj" format="2">
  <advance width="458"/>
  <unicode hex="0AC9"/>
  <anchor x="216" y="-86" name="Bottom"/>
  <anchor x="200" y="1263" name="Top"/>
  <anchor x="228" y="1263" name="Top2"/>
  <outline>
    <contour>
      <point x="210" y="539" type="line"/>
      <point x="248" y="539" type="line"/>
      <point x="248" y="1177" type="line"/>
      <point x="210" y="1177" type="line"/>
    </contour>
    <contour>
      <point x="210" y="0" type="line"/>
      <point x="248" y="0" type="line"/>
      <point x="248" y="710" type="line"/>
      <point x="210" y="710" type="line"/>
    </contour>
    <contour>
      <point x="232" y="1263" type="curve" smooth="yes"/>
      <point x="279" y="1263"/>
      <point x="316" y="1280"/>
      <point x="335" y="1296" type="curve"/>
      <point x="335" y="1330" type="line"/>
      <point x="316" y="1312"/>
      <point x="279" y="1295"/>
      <point x="233" y="1295" type="curve" smooth="yes"/>
      <point x="171" y="1295"/>
      <point x="123" y="1314"/>
      <point x="19" y="1403" type="curve" smooth="yes"/>
      <point x="-366" y="1734" type="line"/>
      <point x="-391" y="1708" type="line"/>
      <point x="-6" y="1382" type="line" smooth="yes"/>
      <point x="102" y="1291"/>
      <point x="161" y="1263"/>
    </contour>
  </outline>
</glyph>
<glyph name="MatraO.gj" format="2">
  <advance width="458"/>
  <unicode hex="0ACB"/>
  <anchor x="216" y="-86" name="Bottom"/>
  <anchor x="200" y="1263" name="Top"/>
  <anchor x="228" y="1263" name="Top2"/>
  <outline>
    <contour>
      <point x="210" y="539" type="line"/>
      <point x="248" y="539" type="line"/>
      <point x="248" y="1177" type="line"/>
      <point x="210" y="1177" type="line"/>
    </contour>
    <contour>
      <point x="210" y="0" type="line"/>
      <point x="248" y="0" type="line"/>
      <point x="248" y="710" type="line"/>
      <point x="210" y="710" type="line"/>
    </contour>
    <contour>
      <point x="201" y="1263" type="curve"/>
      <point x="221" y="1286" type="line"/>
      <point x="16" y="1436"/>
      <point x="-188" y="1586"/>
      <point x="-391" y="1734" type="curve"/>
      <point x="-414" y="1706" type="line"/>
      <point x="-209" y="1558"/>
      <point x="-4" y="1411"/>
    </contour>
  </outline>
</glyph>
<glyph name="Halant.gj" format="2">
  <unicode hex="0ACD"/>
  <anchor x="108" y="-86" name="_Bottom"/>
  <outline>
    <contour>
      <point x="437" y="-569" type="line"/>
      <point x="459" y="-553" type="line"/>
      <point x="128" y="-118" type="line"/>
      <point x="100" y="-139" type="line"/>
    </contour>
  </outline>
</glyph>
<glyph name="Om.gj" format="2">
  <advance width="1676"/>
  <unicode hex="0AD0"/>
  <anchor x="1129" y="1117" name="_Top2"/>
  <outline>
    <contour>
      <point x="1253" y="101" type="curve" smooth="yes"/>
      <point x="1463" y="101"/>
      <point x="1564" y="218"/>
      <point x="1564" y="465" type="curve" smooth="yes"/>
      <point x="1564" y="623" type="line" smooth="yes"/>
      <point x="1564" y="868"/>
      <point x="1471" y="993"/>
      <point x="1283" y="993" type="curve" smooth="yes"/>
      <point x="1136" y="993"/>
      <point x="1055" y="916"/>
      <point x="1011" y="754" type="curve" smooth="yes"/>
      <point x="988" y="670" type="line" smooth="yes"/>
      <point x="955" y="548"/>
      <point x="921" y="503"/>
      <point x="839" y="503" type="curve" smooth="yes"/>
      <point x="789" y="503"/>
      <point x="741" y="520"/>
      <point x="710" y="544" type="curve"/>
      <point x="710" y="522" type="line"/>
      <point x="744" y="490"/>
      <point x="788" y="469"/>
      <point x="840" y="469" type="curve" smooth="yes"/>
      <point x="943" y="469"/>
      <point x="986" y="526"/>
      <point x="1023" y="660" type="curve" smooth="yes"/>
      <point x="1046" y="743" type="line" smooth="yes"/>
      <point x="1087" y="890"/>
      <point x="1151" y="957"/>
      <point x="1283" y="957" type="curve" smooth="yes"/>
      <point x="1452" y="957"/>
      <point x="1525" y="841"/>
      <point x="1525" y="621" type="curve" smooth="yes"/>
      <point x="1525" y="469" type="line" smooth="yes"/>
      <point x="1525" y="238"/>
      <point x="1435" y="137"/>
      <point x="1252" y="137" type="curve" smooth="yes"/>
      <point x="1154" y="137"/>
      <point x="1078" y="173"/>
      <point x="1024" y="208" type="curve"/>
      <point x="1030" y="165" type="line"/>
      <point x="1071" y="140"/>
      <point x="1140" y="101"/>
    </contour>
    <contour>
      <point x="1129" y="1156" type="curve" smooth="yes"/>
      <point x="1304" y="1156"/>
      <point x="1398" y="1239"/>
      <point x="1398" y="1420" type="curve" smooth="yes"/>
      <point x="1398" y="1430"/>
      <point x="1398" y="1439"/>
      <point x="1397" y="1452" type="curve"/>
      <point x="1365" y="1452" type="line"/>
      <point x="1365" y="1423" type="line" smooth="yes"/>
      <point x="1365" y="1258"/>
      <point x="1281" y="1187"/>
      <point x="1129" y="1187" type="curve" smooth="yes"/>
      <point x="974" y="1187"/>
      <point x="893" y="1258"/>
      <point x="893" y="1423" type="curve" smooth="yes"/>
      <point x="893" y="1452" type="line"/>
      <point x="861" y="1452" type="line"/>
      <point x="860" y="1439"/>
      <point x="860" y="1430"/>
      <point x="860" y="1420" type="curve" smooth="yes"/>
      <point x="860" y="1239"/>
      <point x="953" y="1156"/>
    </contour>
    <contour>
      <point x="1130" y="1399" type="curve" smooth="yes"/>
      <point x="1161" y="1399"/>
      <point x="1175" y="1421"/>
      <point x="1175" y="1459" type="curve" smooth="yes"/>
      <point x="1175" y="1468" type="line" smooth="yes"/>
      <point x="1175" y="1505"/>
      <point x="1161" y="1527"/>
      <point x="1130" y="1527" type="curve" smooth="yes"/>
      <point x="1099" y="1527"/>
      <point x="1084" y="1505"/>
      <point x="1084" y="1468" type="curve" smooth="yes"/>
      <point x="1084" y="1459" type="line" smooth="yes"/>
      <point x="1084" y="1421"/>
      <point x="1099" y="1399"/>
    </contour>
    <contour>
      <point x="426" y="-13" type="curve" smooth="yes"/>
      <point x="666" y="-13"/>
      <point x="790" y="94"/>
      <point x="790" y="305" type="curve" smooth="yes"/>
      <point x="790" y="328" type="line" smooth="yes"/>
      <point x="790" y="506"/>
      <point x="696" y="595"/>
      <point x="529" y="613" type="curve"/>
      <point x="529" y="615" type="line"/>
      <point x="683" y="631"/>
      <point x="771" y="709"/>
      <point x="771" y="881" type="curve" smooth="yes"/>
      <point x="771" y="898" type="line" smooth="yes"/>
      <point x="771" y="1095"/>
      <point x="655" y="1194"/>
      <point x="425" y="1194" type="curve" smooth="yes"/>
      <point x="271" y="1194"/>
      <point x="173" y="1145"/>
      <point x="124" y="1113" type="curve"/>
      <point x="119" y="1071" type="line"/>
      <point x="189" y="1115"/>
      <point x="288" y="1158"/>
      <point x="425" y="1158" type="curve" smooth="yes"/>
      <point x="628" y="1158"/>
      <point x="732" y="1074"/>
      <point x="732" y="897" type="curve" smooth="yes"/>
      <point x="732" y="882" type="line" smooth="yes"/>
      <point x="732" y="696"/>
      <point x="623" y="635"/>
      <point x="426" y="632" type="curve" smooth="yes"/>
      <point x="232" y="629" type="line"/>
      <point x="232" y="599" type="line"/>
      <point x="426" y="596" type="line" smooth="yes"/>
      <point x="637" y="593"/>
      <point x="751" y="517"/>
      <point x="751" y="327" type="curve" smooth="yes"/>
      <point x="751" y="306" type="line" smooth="yes"/>
      <point x="751" y="112"/>
      <point x="639" y="23"/>
      <point x="425" y="23" type="curve" smooth="yes"/>
      <point x="259" y="23"/>
      <point x="156" y="77"/>
      <point x="90" y="135" type="curve"/>
      <point x="96" y="86" type="line"/>
      <point x="150" y="41"/>
      <point x="254" y="-13"/>
    </contour>
  </outline>
</glyph>
<glyph name="VowelRuu.gj" format="2">
  <advance width="1632"/>
  <unicode hex="0AE0"/>
  <anchor x="816" y="-86" name="Bottom"/>
  <anchor x="800" y="1263" name="Top"/>
  <anchor x="829" y="1263" name="Top2"/>
  <outline>
    <contour>
      <point x="1387" y="60" type="curve" smooth="yes"/>
      <point x="1453" y="60"/>
      <point x="1507" y="75"/>
      <point x="1546" y="99" type="curve"/>
      <point x="1551" y="137" type="line"/>
      <point x="1505" y="110"/>
      <point x="1453" y="94"/>
      <point x="1389" y="94" type="curve" smooth="yes"/>
      <point x="1269" y="94"/>
      <point x="1201" y="148"/>
      <point x="1201" y="276" type="curve" smooth="yes"/>
      <point x="1201" y="281" type="line" smooth="yes"/>
      <point x="1201" y="425"/>
      <point x="1283" y="478"/>
      <point x="1487" y="484" type="curve"/>
      <point x="1487" y="515" type="line"/>
      <point x="1392" y="576"/>
      <point x="1330" y="632"/>
      <point x="1278" y="715" type="curve"/>
      <point x="1244" y="701" type="line"/>
      <point x="1304" y="616"/>
      <point x="1366" y="558"/>
      <point x="1445" y="512" type="curve"/>
      <point x="1445" y="509" type="line"/>
      <point x="1254" y="503"/>
      <point x="1165" y="431"/>
      <point x="1165" y="283" type="curve" smooth="yes"/>
      <point x="1165" y="275" type="line" smooth="yes"/>
      <point x="1165" y="128"/>
      <point x="1249" y="60"/>
    </contour>
    <contour>
      <point x="306" y="289" type="curve"/>
      <point x="362" y="289" type="line"/>
      <point x="351" y="296" type="line"/>
      <point x="465" y="369"/>
      <point x="517" y="484"/>
      <point x="517" y="676" type="curve" smooth="yes"/>
      <point x="517" y="703" type="line" smooth="yes"/>
      <point x="517" y="926"/>
      <point x="442" y="1021"/>
      <point x="279" y="1021" type="curve" smooth="yes"/>
      <point x="202" y="1021"/>
      <point x="141" y="998"/>
      <point x="98" y="965" type="curve"/>
      <point x="93" y="921" type="line"/>
      <point x="146" y="962"/>
      <point x="208" y="985"/>
      <point x="278" y="985" type="curve" smooth="yes"/>
      <point x="415" y="985"/>
      <point x="478" y="905"/>
      <point x="478" y="700" type="curve" smooth="yes"/>
      <point x="478" y="677" type="line" smooth="yes"/>
      <point x="478" y="486"/>
      <point x="426" y="381"/>
    </contour>
    <contour>
      <point x="106" y="159" type="line"/>
      <point x="825" y="486" type="line"/>
      <point x="821" y="523" type="line"/>
      <point x="598" y="422" type="line" smooth="yes"/>
      <point x="523" y="388"/>
      <point x="448" y="353"/>
      <point x="378" y="320" type="curve"/>
      <point x="366" y="317" type="line"/>
      <point x="106" y="199" type="line"/>
    </contour>
    <contour>
      <point x="834" y="490" type="line"/>
      <point x="1284" y="695" type="line"/>
      <point x="1278" y="729" type="line"/>
      <point x="830" y="526" type="line"/>
    </contour>
    <contour>
      <point x="1241" y="702" type="line"/>
      <point x="1283" y="706" type="line"/>
      <point x="1316" y="758" type="line"/>
      <point x="1303" y="856"/>
      <point x="1294" y="936"/>
      <point x="1283" y="1035" type="curve"/>
      <point x="1241" y="1035" type="line"/>
    </contour>
    <contour>
      <point x="810" y="539" type="line"/>
      <point x="848" y="539" type="line"/>
      <point x="848" y="1177" type="line"/>
      <point x="810" y="1177" type="line"/>
    </contour>
    <contour>
      <point x="810" y="0" type="line"/>
      <point x="848" y="0" type="line"/>
      <point x="848" y="710" type="line"/>
      <point x="810" y="710" type="line"/>
    </contour>
  </outline>
</glyph>
<glyph name="VowelLruu.gj" format="2">
  <advance width="1400"/>
  <unicode hex="0AE1"/>
  <guideline x="1088" y="-545" angle="270"/>
  <anchor x="994" y="1263" name="Top2"/>
  <outline>
    <contour>
      <point x="1087" y="-662" type="curve" smooth="yes"/>
      <point x="1169" y="-662"/>
      <point x="1231" y="-639"/>
      <point x="1274" y="-612" type="curve"/>
      <point x="1278" y="-571" type="line"/>
      <point x="1228" y="-604"/>
      <point x="1169" y="-627"/>
      <point x="1088" y="-627" type="curve" smooth="yes"/>
      <point x="981" y="-627"/>
      <point x="898" y="-579"/>
      <point x="898" y="-471" type="curve" smooth="yes"/>
      <point x="898" y="-467" type="line" smooth="yes"/>
      <point x="898" y="-379"/>
      <point x="942" y="-319"/>
      <point x="1027" y="-291" type="curve"/>
      <point x="986" y="-272" type="line"/>
      <point x="986" y="-278" type="line"/>
      <point x="910" y="-308"/>
      <point x="860" y="-370"/>
      <point x="860" y="-467" type="curve" smooth="yes"/>
      <point x="860" y="-471" type="line" smooth="yes"/>
      <point x="860" y="-600"/>
      <point x="953" y="-662"/>
    </contour>
    <contour>
      <point x="1103" y="-309" type="curve" smooth="yes"/>
      <point x="1180" y="-309"/>
      <point x="1243" y="-289"/>
      <point x="1288" y="-263" type="curve"/>
      <point x="1294" y="-220" type="line"/>
      <point x="1244" y="-251"/>
      <point x="1179" y="-273"/>
      <point x="1103" y="-273" type="curve" smooth="yes"/>
      <point x="994" y="-273"/>
      <point x="913" y="-223"/>
      <point x="913" y="-113" type="curve" smooth="yes"/>
      <point x="913" y="-107" type="line" smooth="yes"/>
      <point x="913" y="132"/>
      <point x="1269" y="272"/>
      <point x="1269" y="603" type="curve" smooth="yes"/>
      <point x="1269" y="622" type="line" smooth="yes"/>
      <point x="1269" y="830"/>
      <point x="1167" y="937"/>
      <point x="977" y="937" type="curve" smooth="yes"/>
      <point x="825" y="937"/>
      <point x="734" y="860"/>
      <point x="713" y="734" type="curve"/>
      <point x="705" y="734" type="line"/>
      <point x="705" y="336" type="line"/>
      <point x="727" y="336" type="line"/>
      <point x="731" y="612" type="line" smooth="yes"/>
      <point x="734" y="804"/>
      <point x="813" y="900"/>
      <point x="976" y="901" type="curve" smooth="yes"/>
      <point x="1144" y="902"/>
      <point x="1230" y="805"/>
      <point x="1230" y="622" type="curve" smooth="yes"/>
      <point x="1230" y="602" type="line" smooth="yes"/>
      <point x="1230" y="281"/>
      <point x="875" y="155"/>
      <point x="875" y="-107" type="curve" smooth="yes"/>
      <point x="875" y="-113" type="line" smooth="yes"/>
      <point x="875" y="-242"/>
      <point x="968" y="-309"/>
    </contour>
    <contour>
      <point x="383" y="0" type="curve"/>
      <point x="437" y="0" type="line"/>
      <point x="439" y="3" type="line"/>
      <point x="259" y="129"/>
      <point x="193" y="261"/>
      <point x="193" y="497" type="curve" smooth="yes"/>
      <point x="193" y="579" type="line" smooth="yes"/>
      <point x="193" y="791"/>
      <point x="273" y="901"/>
      <point x="445" y="901" type="curve" smooth="yes"/>
      <point x="610" y="901"/>
      <point x="691" y="804"/>
      <point x="693" y="612" type="curve" smooth="yes"/>
      <point x="696" y="336" type="line"/>
      <point x="710" y="336" type="line"/>
      <point x="710" y="734" type="line"/>
      <point x="690" y="860"/>
      <point x="597" y="937"/>
      <point x="444" y="937" type="curve" smooth="yes"/>
      <point x="251" y="937"/>
      <point x="154" y="815"/>
      <point x="154" y="579" type="curve" smooth="yes"/>
      <point x="154" y="495" type="line" smooth="yes"/>
      <point x="154" y="256"/>
      <point x="224" y="113"/>
    </contour>
    <contour>
      <point x="976" y="920" type="line"/>
      <point x="1014" y="920" type="line"/>
      <point x="1014" y="1177" type="line"/>
      <point x="976" y="1177" type="line"/>
    </contour>
  </outline>
</glyph>
<glyph name="MatraLru.gj" format="2">
  <unicode hex="0AE2"/>
  <anchor x="637" y="-86" name="_Bottom"/>
  <outline>
    <contour>
      <point x="234" y="-615" type="curve"/>
      <point x="278" y="-615" type="line"/>
      <point x="172" y="-523"/>
      <point x="134" y="-440"/>
      <point x="134" y="-317" type="curve" smooth="yes"/>
      <point x="134" y="-302" type="line" smooth="yes"/>
      <point x="134" y="-183"/>
      <point x="197" y="-116"/>
      <point x="289" y="-116" type="curve" smooth="yes"/>
      <point x="379" y="-116"/>
      <point x="432" y="-166"/>
      <point x="434" y="-275" type="curve" smooth="yes"/>
      <point x="437" y="-443" type="line"/>
      <point x="465" y="-443" type="line"/>
      <point x="468" y="-275" type="line" smooth="yes"/>
      <point x="470" y="-164"/>
      <point x="529" y="-116"/>
      <point x="622" y="-116" type="curve" smooth="yes"/>
      <point x="713" y="-116"/>
      <point x="763" y="-181"/>
      <point x="763" y="-276" type="curve" smooth="yes"/>
      <point x="763" y="-282" type="line"/>
      <point x="797" y="-280" type="line"/>
      <point x="797" y="-273" type="line" smooth="yes"/>
      <point x="797" y="-161"/>
      <point x="732" y="-86"/>
      <point x="621" y="-86" type="curve" smooth="yes"/>
      <point x="525" y="-86"/>
      <point x="464" y="-132"/>
      <point x="452" y="-210" type="curve"/>
      <point x="450" y="-210" type="line"/>
      <point x="438" y="-133"/>
      <point x="384" y="-86"/>
      <point x="289" y="-86" type="curve" smooth="yes"/>
      <point x="174" y="-86"/>
      <point x="100" y="-166"/>
      <point x="100" y="-300" type="curve" smooth="yes"/>
      <point x="100" y="-318" type="line" smooth="yes"/>
      <point x="100" y="-445"/>
      <point x="144" y="-534"/>
    </contour>
    <contour>
      <point x="695" y="-769" type="curve" smooth="yes"/>
      <point x="745" y="-769"/>
      <point x="782" y="-758"/>
      <point x="806" y="-739" type="curve"/>
      <point x="808" y="-705" type="line"/>
      <point x="779" y="-727"/>
      <point x="741" y="-740"/>
      <point x="696" y="-740" type="curve" smooth="yes"/>
      <point x="633" y="-740"/>
      <point x="588" y="-714"/>
      <point x="588" y="-650" type="curve" smooth="yes"/>
      <point x="588" y="-590"/>
      <point x="628" y="-553"/>
      <point x="689" y="-501" type="curve" smooth="yes"/>
      <point x="766" y="-435"/>
      <point x="797" y="-381"/>
      <point x="797" y="-286" type="curve" smooth="yes"/>
      <point x="797" y="-278" type="line"/>
      <point x="763" y="-280" type="line"/>
      <point x="763" y="-286" type="line" smooth="yes"/>
      <point x="763" y="-370"/>
      <point x="738" y="-418"/>
      <point x="665" y="-480" type="curve" smooth="yes"/>
      <point x="593" y="-541"/>
      <point x="555" y="-584"/>
      <point x="555" y="-650" type="curve" smooth="yes"/>
      <point x="555" y="-728"/>
      <point x="612" y="-769"/>
    </contour>
  </outline>
</glyph>
<glyph name="MatraLruu.gj" format="2">
  <unicode hex="0AE3"/>
  <anchor x="637" y="-86" name="_Bottom"/>
  <outline>
    <contour>
      <point x="234" y="-615" type="curve"/>
      <point x="278" y="-615" type="line"/>
      <point x="172" y="-523"/>
      <point x="134" y="-440"/>
      <point x="134" y="-317" type="curve" smooth="yes"/>
      <point x="134" y="-302" type="line" smooth="yes"/>
      <point x="134" y="-183"/>
      <point x="197" y="-116"/>
      <point x="289" y="-116" type="curve" smooth="yes"/>
      <point x="379" y="-116"/>
      <point x="432" y="-166"/>
      <point x="434" y="-275" type="curve" smooth="yes"/>
      <point x="437" y="-443" type="line"/>
      <point x="465" y="-443" type="line"/>
      <point x="468" y="-275" type="line" smooth="yes"/>
      <point x="470" y="-164"/>
      <point x="529" y="-116"/>
      <point x="622" y="-116" type="curve" smooth="yes"/>
      <point x="713" y="-116"/>
      <point x="763" y="-181"/>
      <point x="763" y="-276" type="curve" smooth="yes"/>
      <point x="763" y="-282" type="line"/>
      <point x="797" y="-280" type="line"/>
      <point x="797" y="-273" type="line" smooth="yes"/>
      <point x="797" y="-161"/>
      <point x="732" y="-86"/>
      <point x="621" y="-86" type="curve" smooth="yes"/>
      <point x="525" y="-86"/>
      <point x="464" y="-132"/>
      <point x="452" y="-210" type="curve"/>
      <point x="450" y="-210" type="line"/>
      <point x="438" y="-133"/>
      <point x="384" y="-86"/>
      <point x="289" y="-86" type="curve" smooth="yes"/>
      <point x="174" y="-86"/>
      <point x="100" y="-166"/>
      <point x="100" y="-300" type="curve" smooth="yes"/>
      <point x="100" y="-318" type="line" smooth="yes"/>
      <point x="100" y="-445"/>
      <point x="144" y="-534"/>
    </contour>
    <contour>
      <point x="685" y="-749" type="curve" smooth="yes"/>
      <point x="735" y="-749"/>
      <point x="772" y="-738"/>
      <point x="796" y="-719" type="curve"/>
      <point x="798" y="-685" type="line"/>
      <point x="769" y="-707"/>
      <point x="731" y="-720"/>
      <point x="686" y="-720" type="curve" smooth="yes"/>
      <point x="622" y="-720"/>
      <point x="577" y="-697"/>
      <point x="577" y="-640" type="curve" smooth="yes"/>
      <point x="577" y="-580"/>
      <point x="618" y="-543"/>
      <point x="679" y="-491" type="curve" smooth="yes"/>
      <point x="759" y="-423"/>
      <point x="797" y="-377"/>
      <point x="797" y="-286" type="curve" smooth="yes"/>
      <point x="797" y="-278" type="line"/>
      <point x="763" y="-280" type="line"/>
      <point x="763" y="-286" type="line" smooth="yes"/>
      <point x="763" y="-366"/>
      <point x="731" y="-406"/>
      <point x="655" y="-470" type="curve" smooth="yes"/>
      <point x="583" y="-531"/>
      <point x="545" y="-574"/>
      <point x="545" y="-640" type="curve" smooth="yes"/>
      <point x="545" y="-711"/>
      <point x="602" y="-749"/>
    </contour>
    <contour>
      <point x="695" y="-963" type="curve" smooth="yes"/>
      <point x="748" y="-963"/>
      <point x="787" y="-950"/>
      <point x="817" y="-929" type="curve"/>
      <point x="819" y="-895" type="line"/>
      <point x="783" y="-921"/>
      <point x="742" y="-934"/>
      <point x="695" y="-934" type="curve" smooth="yes"/>
      <point x="629" y="-934"/>
      <point x="581" y="-903"/>
      <point x="581" y="-842" type="curve" smooth="yes"/>
      <point x="581" y="-792"/>
      <point x="608" y="-761"/>
      <point x="670" y="-747" type="curve"/>
      <point x="639" y="-732" type="line"/>
      <point x="638" y="-737" type="line"/>
      <point x="581" y="-751"/>
      <point x="549" y="-788"/>
      <point x="549" y="-843" type="curve" smooth="yes"/>
      <point x="549" y="-920"/>
      <point x="607" y="-963"/>
    </contour>
  </outline>
</glyph>
<glyph name="Zero.gj" format="2">
  <advance width="1174"/>
  <unicode hex="0AE6"/>
  <outline>
    <contour>
      <point x="587" y="1194" type="curve" smooth="yes"/>
      <point x="318" y="1194"/>
      <point x="172" y="1018"/>
      <point x="172" y="694" type="curve" smooth="yes"/>
      <point x="172" y="592" type="line"/>
      <point x="211" y="592" type="line"/>
      <point x="211" y="694" type="line" smooth="yes"/>
      <point x="211" y="996"/>
      <point x="342" y="1158"/>
      <point x="587" y="1158" type="curve" smooth="yes"/>
      <point x="834" y="1158"/>
      <point x="963" y="997"/>
      <point x="963" y="694" type="curve" smooth="yes"/>
      <point x="963" y="591" type="line"/>
      <point x="1002" y="591" type="line"/>
      <point x="1002" y="694" type="line" smooth="yes"/>
      <point x="1002" y="1018"/>
      <point x="859" y="1194"/>
    </contour>
    <contour>
      <point x="587" y="-13" type="curve" smooth="yes"/>
      <point x="856" y="-13"/>
      <point x="1002" y="161"/>
      <point x="1002" y="477" type="curve" smooth="yes"/>
      <point x="1002" y="612" type="line"/>
      <point x="963" y="612" type="line"/>
      <point x="963" y="477" type="line" smooth="yes"/>
      <point x="963" y="183"/>
      <point x="832" y="23"/>
      <point x="587" y="23" type="curve" smooth="yes"/>
      <point x="342" y="23"/>
      <point x="211" y="183"/>
      <point x="211" y="477" type="curve" smooth="yes"/>
      <point x="211" y="612" type="line"/>
      <point x="172" y="612" type="line"/>
      <point x="172" y="477" type="line" smooth="yes"/>
      <point x="172" y="161"/>
      <point x="318" y="-13"/>
    </contour>
  </outline>
</glyph>
<glyph name="One.gj" format="2">
  <advance width="1024"/>
  <unicode hex="0AE7"/>
  <outline>
    <contour>
      <point x="461" y="400" type="curve" smooth="yes"/>
      <point x="632" y="400"/>
      <point x="737" y="493"/>
      <point x="769" y="603" type="curve"/>
      <point x="772" y="603" type="line"/>
      <point x="767" y="668" type="line"/>
      <point x="731" y="520"/>
      <point x="619" y="436"/>
      <point x="461" y="436" type="curve" smooth="yes"/>
      <point x="268" y="436"/>
      <point x="159" y="534"/>
      <point x="159" y="765" type="curve" smooth="yes"/>
      <point x="159" y="819" type="line" smooth="yes"/>
      <point x="159" y="1046"/>
      <point x="265" y="1158"/>
      <point x="462" y="1158" type="curve" smooth="yes"/>
      <point x="660" y="1158"/>
      <point x="766" y="1044"/>
      <point x="766" y="814" type="curve" smooth="yes"/>
      <point x="766" y="617" type="line"/>
      <point x="804" y="617" type="line"/>
      <point x="804" y="815" type="line" smooth="yes"/>
      <point x="804" y="1067"/>
      <point x="686" y="1194"/>
      <point x="462" y="1194" type="curve" smooth="yes"/>
      <point x="238" y="1194"/>
      <point x="120" y="1069"/>
      <point x="120" y="820" type="curve" smooth="yes"/>
      <point x="120" y="763" type="line" smooth="yes"/>
      <point x="120" y="508"/>
      <point x="244" y="400"/>
    </contour>
    <contour>
      <point x="897" y="-8" type="curve" smooth="yes"/>
      <point x="921" y="-8"/>
      <point x="949" y="-4"/>
      <point x="969" y="7" type="curve"/>
      <point x="973" y="42" type="line"/>
      <point x="951" y="33"/>
      <point x="925" y="27"/>
      <point x="901" y="27" type="curve" smooth="yes"/>
      <point x="834" y="27"/>
      <point x="804" y="65"/>
      <point x="804" y="150" type="curve" smooth="yes"/>
      <point x="804" y="636" type="line"/>
      <point x="766" y="636" type="line"/>
      <point x="766" y="149" type="line" smooth="yes"/>
      <point x="766" y="45"/>
      <point x="808" y="-8"/>
    </contour>
  </outline>
</glyph>
<glyph name="Two.gj" format="2">
  <advance width="857"/>
  <unicode hex="0AE8"/>
  <guideline x="324" y="310" angle="0"/>
  <outline>
    <contour>
      <point x="230" y="423" type="line"/>
      <point x="234" y="429" type="line"/>
      <point x="334" y="429" type="line"/>
      <point x="592" y="429"/>
      <point x="720" y="553"/>
      <point x="720" y="790" type="curve" smooth="yes"/>
      <point x="720" y="854" type="line" smooth="yes"/>
      <point x="720" y="1078"/>
      <point x="599" y="1194"/>
      <point x="386" y="1194" type="curve" smooth="yes"/>
      <point x="238" y="1194"/>
      <point x="147" y="1153"/>
      <point x="92" y="1120" type="curve"/>
      <point x="86" y="1078" type="line"/>
      <point x="155" y="1118"/>
      <point x="249" y="1158"/>
      <point x="386" y="1158" type="curve" smooth="yes"/>
      <point x="574" y="1158"/>
      <point x="681" y="1053"/>
      <point x="681" y="852" type="curve" smooth="yes"/>
      <point x="681" y="793" type="line" smooth="yes"/>
      <point x="681" y="571"/>
      <point x="567" y="465"/>
      <point x="327" y="465" type="curve" smooth="yes"/>
      <point x="78" y="465" type="line"/>
      <point x="78" y="433" type="line"/>
    </contour>
    <contour>
      <point x="625" y="0" type="line"/>
      <point x="674" y="0" type="line"/>
      <point x="674" y="5" type="line"/>
      <point x="416" y="265" type="line" smooth="yes"/>
      <point x="363" y="319"/>
      <point x="258" y="422"/>
      <point x="226" y="454" type="curve"/>
      <point x="192" y="442" type="line"/>
    </contour>
  </outline>
</glyph>
<glyph name="Three.gj" format="2">
  <advance width="926"/>
  <unicode hex="0AE9"/>
  <guideline x="509" y="23" angle="0"/>
  <guideline x="510" y="1160" angle="0"/>
  <guideline x="711" y="632" angle="0"/>
  <guideline x="711" y="603" angle="0"/>
  <outline>
    <contour>
      <point x="426" y="-13" type="curve" smooth="yes"/>
      <point x="666" y="-13"/>
      <point x="790" y="94"/>
      <point x="790" y="305" type="curve" smooth="yes"/>
      <point x="790" y="328" type="line" smooth="yes"/>
      <point x="790" y="506"/>
      <point x="696" y="595"/>
      <point x="529" y="613" type="curve"/>
      <point x="529" y="615" type="line"/>
      <point x="683" y="631"/>
      <point x="771" y="709"/>
      <point x="771" y="881" type="curve" smooth="yes"/>
      <point x="771" y="898" type="line" smooth="yes"/>
      <point x="771" y="1095"/>
      <point x="655" y="1194"/>
      <point x="425" y="1194" type="curve" smooth="yes"/>
      <point x="271" y="1194"/>
      <point x="173" y="1145"/>
      <point x="124" y="1113" type="curve"/>
      <point x="119" y="1071" type="line"/>
      <point x="189" y="1115"/>
      <point x="288" y="1158"/>
      <point x="425" y="1158" type="curve" smooth="yes"/>
      <point x="628" y="1158"/>
      <point x="732" y="1074"/>
      <point x="732" y="897" type="curve" smooth="yes"/>
      <point x="732" y="882" type="line" smooth="yes"/>
      <point x="732" y="696"/>
      <point x="623" y="635"/>
      <point x="426" y="632" type="curve" smooth="yes"/>
      <point x="232" y="629" type="line"/>
      <point x="232" y="599" type="line"/>
      <point x="426" y="596" type="line" smooth="yes"/>
      <point x="637" y="593"/>
      <point x="751" y="517"/>
      <point x="751" y="327" type="curve" smooth="yes"/>
      <point x="751" y="306" type="line" smooth="yes"/>
      <point x="751" y="112"/>
      <point x="639" y="23"/>
      <point x="425" y="23" type="curve" smooth="yes"/>
      <point x="259" y="23"/>
      <point x="156" y="77"/>
      <point x="90" y="135" type="curve"/>
      <point x="96" y="86" type="line"/>
      <point x="150" y="41"/>
      <point x="254" y="-13"/>
    </contour>
  </outline>
</glyph>
<glyph name="Four.gj" format="2">
  <advance width="1004"/>
  <unicode hex="0AEA"/>
  <outline>
    <contour>
      <point x="504" y="-13" type="curve" smooth="yes"/>
      <point x="694" y="-13"/>
      <point x="797" y="75"/>
      <point x="797" y="246" type="curve" smooth="yes"/>
      <point x="797" y="262" type="line" smooth="yes"/>
      <point x="797" y="405"/>
      <point x="734" y="493"/>
      <point x="631" y="601" type="curve" smooth="yes"/>
      <point x="520" y="720" type="line"/>
      <point x="494" y="692" type="line"/>
      <point x="608" y="572" type="line" smooth="yes"/>
      <point x="698" y="474"/>
      <point x="758" y="401"/>
      <point x="758" y="262" type="curve" smooth="yes"/>
      <point x="758" y="246" type="line" smooth="yes"/>
      <point x="758" y="98"/>
      <point x="670" y="23"/>
      <point x="504" y="23" type="curve" smooth="yes"/>
      <point x="339" y="23"/>
      <point x="250" y="98"/>
      <point x="250" y="246" type="curve" smooth="yes"/>
      <point x="250" y="262" type="line" smooth="yes"/>
      <point x="250" y="399"/>
      <point x="306" y="477"/>
      <point x="391" y="568" type="curve" smooth="yes"/>
      <point x="514" y="694" type="line"/>
      <point x="492" y="723" type="line"/>
      <point x="370" y="597" type="line" smooth="yes"/>
      <point x="272" y="496"/>
      <point x="211" y="406"/>
      <point x="211" y="262" type="curve" smooth="yes"/>
      <point x="211" y="246" type="line" smooth="yes"/>
      <point x="211" y="75"/>
      <point x="314" y="-13"/>
    </contour>
    <contour>
      <point x="491" y="689" type="line"/>
      <point x="519" y="710" type="line"/>
      <point x="102" y="1177" type="line"/>
      <point x="53" y="1177" type="line"/>
      <point x="53" y="1172" type="line"/>
    </contour>
    <contour>
      <point x="515" y="687" type="line"/>
      <point x="951" y="1172" type="line"/>
      <point x="951" y="1177" type="line"/>
      <point x="902" y="1177" type="line"/>
      <point x="487" y="709" type="line"/>
    </contour>
  </outline>
</glyph>
<glyph name="Five.gj" format="2">
  <advance width="1141"/>
  <unicode hex="0AEB"/>
  <outline>
    <contour>
      <point x="564" y="360" type="curve" smooth="yes"/>
      <point x="745" y="360"/>
      <point x="849" y="455"/>
      <point x="880" y="565" type="curve"/>
      <point x="884" y="565" type="line"/>
      <point x="879" y="631" type="line"/>
      <point x="837" y="481"/>
      <point x="735" y="396"/>
      <point x="564" y="396" type="curve" smooth="yes"/>
      <point x="367" y="396"/>
      <point x="259" y="491"/>
      <point x="259" y="729" type="curve" smooth="yes"/>
      <point x="259" y="850" type="line"/>
      <point x="221" y="850" type="line"/>
      <point x="221" y="726" type="line" smooth="yes"/>
      <point x="221" y="466"/>
      <point x="344" y="360"/>
    </contour>
    <contour>
      <point x="1011" y="-8" type="curve" smooth="yes"/>
      <point x="1036" y="-8"/>
      <point x="1065" y="-4"/>
      <point x="1086" y="7" type="curve"/>
      <point x="1090" y="42" type="line"/>
      <point x="1067" y="33"/>
      <point x="1040" y="27"/>
      <point x="1015" y="27" type="curve" smooth="yes"/>
      <point x="945" y="27"/>
      <point x="914" y="65"/>
      <point x="914" y="150" type="curve" smooth="yes"/>
      <point x="914" y="590" type="line"/>
      <point x="878" y="590" type="line"/>
      <point x="878" y="149" type="line" smooth="yes"/>
      <point x="878" y="45"/>
      <point x="921" y="-8"/>
    </contour>
    <contour>
      <point x="876" y="584" type="line"/>
      <point x="914" y="584" type="line"/>
      <point x="914" y="1177" type="line"/>
      <point x="876" y="1177" type="line"/>
    </contour>
    <contour>
      <point x="221" y="752" type="line"/>
      <point x="259" y="752" type="line"/>
      <point x="259" y="1023" type="line" smooth="yes"/>
      <point x="259" y="1127"/>
      <point x="216" y="1180"/>
      <point x="125" y="1180" type="curve" smooth="yes"/>
      <point x="100" y="1180"/>
      <point x="71" y="1176"/>
      <point x="50" y="1165" type="curve"/>
      <point x="46" y="1130" type="line"/>
      <point x="69" y="1139"/>
      <point x="96" y="1145"/>
      <point x="121" y="1145" type="curve" smooth="yes"/>
      <point x="190" y="1145"/>
      <point x="221" y="1107"/>
      <point x="221" y="1022" type="curve" smooth="yes"/>
    </contour>
  </outline>
</glyph>
<glyph name="Six.gj" format="2">
  <advance width="1033"/>
  <unicode hex="0AEC"/>
  <outline>
    <contour>
      <point x="484" y="-13" type="curve" smooth="yes"/>
      <point x="711" y="-13"/>
      <point x="853" y="88"/>
      <point x="853" y="329" type="curve" smooth="yes"/>
      <point x="853" y="802" type="line"/>
      <point x="815" y="802" type="line"/>
      <point x="815" y="595" type="line"/>
      <point x="815" y="577" type="line"/>
      <point x="815" y="330" type="line" smooth="yes"/>
      <point x="815" y="112"/>
      <point x="689" y="23"/>
      <point x="484" y="23" type="curve" smooth="yes"/>
      <point x="356" y="23"/>
      <point x="255" y="55"/>
      <point x="167" y="108" type="curve"/>
      <point x="173" y="64" type="line"/>
      <point x="252" y="18"/>
      <point x="353" y="-13"/>
    </contour>
    <contour>
      <point x="503" y="380" type="curve" smooth="yes"/>
      <point x="690" y="380"/>
      <point x="794" y="482"/>
      <point x="823" y="562" type="curve"/>
      <point x="827" y="562" type="line"/>
      <point x="821" y="622" type="line"/>
      <point x="783" y="507"/>
      <point x="672" y="415"/>
      <point x="503" y="415" type="curve" smooth="yes"/>
      <point x="286" y="415"/>
      <point x="181" y="525"/>
      <point x="181" y="734" type="curve" smooth="yes"/>
      <point x="181" y="785" type="line"/>
      <point x="142" y="785" type="line"/>
      <point x="142" y="734" type="line" smooth="yes"/>
      <point x="142" y="501"/>
      <point x="260" y="380"/>
    </contour>
    <contour>
      <point x="142" y="766" type="line"/>
      <point x="181" y="766" type="line"/>
      <point x="181" y="819" type="line" smooth="yes"/>
      <point x="181" y="1043"/>
      <point x="305" y="1158"/>
      <point x="523" y="1158" type="curve" smooth="yes"/>
      <point x="656" y="1158"/>
      <point x="753" y="1125"/>
      <point x="827" y="1082" type="curve"/>
      <point x="820" y="1122" type="line"/>
      <point x="762" y="1158"/>
      <point x="656" y="1194"/>
      <point x="523" y="1194" type="curve" smooth="yes"/>
      <point x="281" y="1194"/>
      <point x="142" y="1067"/>
      <point x="142" y="819" type="curve" smooth="yes"/>
    </contour>
  </outline>
</glyph>
<glyph name="Seven.gj" format="2">
  <advance width="1225"/>
  <unicode hex="0AED"/>
  <outline>
    <contour>
      <point x="606" y="-13" type="curve" smooth="yes"/>
      <point x="905" y="-13"/>
      <point x="1069" y="165"/>
      <point x="1069" y="515" type="curve" smooth="yes"/>
      <point x="1069" y="610" type="line"/>
      <point x="1031" y="610" type="line"/>
      <point x="1031" y="516" type="line" smooth="yes"/>
      <point x="1031" y="180"/>
      <point x="880" y="23"/>
      <point x="605" y="23" type="curve" smooth="yes"/>
      <point x="335" y="23"/>
      <point x="176" y="166"/>
      <point x="176" y="464" type="curve" smooth="yes"/>
      <point x="176" y="511"/>
      <point x="176" y="552"/>
      <point x="176" y="590" type="curve"/>
      <point x="141" y="590" type="line"/>
      <point x="139" y="554"/>
      <point x="137" y="523"/>
      <point x="137" y="464" type="curve" smooth="yes"/>
      <point x="137" y="147"/>
      <point x="307" y="-13"/>
    </contour>
    <contour>
      <point x="767" y="425" type="curve" smooth="yes"/>
      <point x="909" y="425"/>
      <point x="1003" y="506"/>
      <point x="1034" y="590" type="curve"/>
      <point x="1043" y="590" type="line"/>
      <point x="1039" y="659" type="line"/>
      <point x="1005" y="538"/>
      <point x="898" y="460"/>
      <point x="767" y="460" type="curve" smooth="yes"/>
      <point x="609" y="460"/>
      <point x="525" y="555"/>
      <point x="525" y="740" type="curve" smooth="yes"/>
      <point x="525" y="860" type="line" smooth="yes"/>
      <point x="525" y="1059"/>
      <point x="610" y="1158"/>
      <point x="771" y="1158" type="curve" smooth="yes"/>
      <point x="938" y="1158"/>
      <point x="1030" y="1052"/>
      <point x="1030" y="845" type="curve" smooth="yes"/>
      <point x="1030" y="604" type="line"/>
      <point x="1069" y="604" type="line"/>
      <point x="1069" y="846" type="line" smooth="yes"/>
      <point x="1069" y="1070"/>
      <point x="967" y="1194"/>
      <point x="771" y="1194" type="curve" smooth="yes"/>
      <point x="584" y="1194"/>
      <point x="486" y="1076"/>
      <point x="486" y="861" type="curve" smooth="yes"/>
      <point x="486" y="740" type="line" smooth="yes"/>
      <point x="486" y="532"/>
      <point x="583" y="425"/>
    </contour>
  </outline>
</glyph>
<glyph name="Eight.gj" format="2">
  <advance width="1009"/>
  <unicode hex="0AEE"/>
  <outline>
    <contour>
      <point x="528" y="-13" type="curve" smooth="yes"/>
      <point x="718" y="-13"/>
      <point x="833" y="54"/>
      <point x="896" y="110" type="curve"/>
      <point x="901" y="160" type="line"/>
      <point x="822" y="84"/>
      <point x="705" y="23"/>
      <point x="529" y="23" type="curve" smooth="yes"/>
      <point x="303" y="23"/>
      <point x="174" y="126"/>
      <point x="174" y="330" type="curve" smooth="yes"/>
      <point x="174" y="334" type="line" smooth="yes"/>
      <point x="174" y="520"/>
      <point x="283" y="669"/>
      <point x="511" y="901" type="curve" smooth="yes"/>
      <point x="782" y="1176" type="line"/>
      <point x="730" y="1176" type="line"/>
      <point x="486" y="926" type="line" smooth="yes"/>
      <point x="236" y="677"/>
      <point x="135" y="529"/>
      <point x="135" y="336" type="curve" smooth="yes"/>
      <point x="135" y="330" type="line" smooth="yes"/>
      <point x="135" y="109"/>
      <point x="274" y="-13"/>
    </contour>
  </outline>
</glyph>
<glyph name="Nine.gj" format="2">
  <advance width="1106"/>
  <unicode hex="0AEF"/>
  <outline>
    <contour>
      <point x="565" y="-13" type="curve" smooth="yes"/>
      <point x="758" y="-13"/>
      <point x="875" y="54"/>
      <point x="939" y="110" type="curve"/>
      <point x="944" y="160" type="line"/>
      <point x="864" y="84"/>
      <point x="744" y="23"/>
      <point x="565" y="23" type="curve" smooth="yes"/>
      <point x="315" y="23"/>
      <point x="174" y="149"/>
      <point x="174" y="357" type="curve" smooth="yes"/>
      <point x="174" y="359" type="line" smooth="yes"/>
      <point x="174" y="573"/>
      <point x="282" y="757"/>
      <point x="518" y="1016" type="curve" smooth="yes"/>
      <point x="665" y="1177" type="line"/>
      <point x="613" y="1177" type="line"/>
      <point x="489" y="1040" type="line" smooth="yes"/>
      <point x="249" y="775"/>
      <point x="135" y="583"/>
      <point x="135" y="359" type="curve" smooth="yes"/>
      <point x="135" y="355" type="line" smooth="yes"/>
      <point x="135" y="128"/>
      <point x="289" y="-13"/>
    </contour>
    <contour>
      <point x="533" y="434" type="line"/>
      <point x="535" y="434" type="line"/>
      <point x="1021" y="715" type="line"/>
      <point x="1021" y="757" type="line"/>
      <point x="533" y="476" type="line"/>
    </contour>
  </outline>
</glyph>
<glyph name="AbbreviationSign.gj" format="2">
  <advance width="752"/>
  <unicode hex="0AF0"/>
  <outline>
    <contour>
      <point x="376" y="620" type="curve" smooth="yes"/>
      <point x="201" y="620"/>
      <point x="100" y="509"/>
      <point x="100" y="325" type="curve" smooth="yes"/>
      <point x="100" y="302" type="line"/>
      <point x="138" y="302" type="line"/>
      <point x="138" y="325" type="line" smooth="yes"/>
      <point x="138" y="489"/>
      <point x="224" y="585"/>
      <point x="376" y="585" type="curve" smooth="yes"/>
      <point x="529" y="585"/>
      <point x="614" y="492"/>
      <point x="614" y="325" type="curve" smooth="yes"/>
      <point x="614" y="302" type="line"/>
      <point x="652" y="302" type="line"/>
      <point x="652" y="325" type="line" smooth="yes"/>
      <point x="652" y="514"/>
      <point x="554" y="620"/>
    </contour>
    <contour>
      <point x="376" y="-13" type="curve" smooth="yes"/>
      <point x="554" y="-13"/>
      <point x="652" y="92"/>
      <point x="652" y="282" type="curve" smooth="yes"/>
      <point x="652" y="306" type="line"/>
      <point x="614" y="306" type="line"/>
      <point x="614" y="282" type="line" smooth="yes"/>
      <point x="614" y="115"/>
      <point x="529" y="22"/>
      <point x="376" y="22" type="curve" smooth="yes"/>
      <point x="224" y="22"/>
      <point x="138" y="118"/>
      <point x="138" y="282" type="curve" smooth="yes"/>
      <point x="138" y="306" type="line"/>
      <point x="100" y="306" type="line"/>
      <point x="100" y="282" type="line" smooth="yes"/>
      <point x="100" y="97"/>
      <point x="201" y="-13"/>
    </contour>
  </outline>
</glyph>
<glyph name="Zha.gj" format="2">
  <advance width="1327"/>
  <unicode hex="0AF9"/>
  <anchor x="846" y="-86" name="Bottom"/>
  <anchor x="1217" y="1263" name="Top"/>
  <anchor x="1247" y="1263" name="Top2"/>
  <outline>
    <contour>
      <point x="844" y="741" type="line"/>
      <point x="1277" y="1172" type="line"/>
      <point x="1277" y="1177" type="line"/>
      <point x="1228" y="1177" type="line"/>
      <point x="813" y="767" type="line"/>
    </contour>
    <contour>
      <point x="217" y="433" type="line"/>
      <point x="217" y="982" type="line" smooth="yes"/>
      <point x="217" y="1108"/>
      <point x="277" y="1158"/>
      <point x="361" y="1158" type="curve" smooth="yes"/>
      <point x="444" y="1158"/>
      <point x="503" y="1116"/>
      <point x="597" y="1004" type="curve" smooth="yes"/>
      <point x="825" y="735" type="line"/>
      <point x="860" y="758" type="line"/>
      <point x="628" y="1027" type="line" smooth="yes"/>
      <point x="532" y="1140"/>
      <point x="463" y="1194"/>
      <point x="361" y="1194" type="curve" smooth="yes"/>
      <point x="251" y="1194"/>
      <point x="179" y="1130"/>
      <point x="179" y="982" type="curve" smooth="yes"/>
      <point x="179" y="450" type="line"/>
    </contour>
    <contour>
      <point x="826" y="-13" type="curve" smooth="yes"/>
      <point x="1035" y="-13"/>
      <point x="1144" y="85"/>
      <point x="1144" y="276" type="curve" smooth="yes"/>
      <point x="1144" y="292" type="line" smooth="yes"/>
      <point x="1144" y="436"/>
      <point x="1087" y="516"/>
      <point x="982" y="630" type="curve" smooth="yes"/>
      <point x="854" y="768" type="line"/>
      <point x="826" y="741" type="line"/>
      <point x="958" y="602" type="line" smooth="yes"/>
      <point x="1052" y="503"/>
      <point x="1105" y="432"/>
      <point x="1105" y="292" type="curve" smooth="yes"/>
      <point x="1105" y="276" type="line" smooth="yes"/>
      <point x="1105" y="108"/>
      <point x="1009" y="23"/>
      <point x="826" y="23" type="curve" smooth="yes"/>
      <point x="640" y="23"/>
      <point x="544" y="108"/>
      <point x="544" y="276" type="curve" smooth="yes"/>
      <point x="544" y="292" type="line" smooth="yes"/>
      <point x="544" y="429"/>
      <point x="600" y="502"/>
      <point x="698" y="598" type="curve" smooth="yes"/>
      <point x="844" y="740" type="line"/>
      <point x="821" y="774" type="line"/>
      <point x="675" y="627" type="line" smooth="yes"/>
      <point x="565" y="519"/>
      <point x="505" y="436"/>
      <point x="505" y="292" type="curve" smooth="yes"/>
      <point x="505" y="276" type="line" smooth="yes"/>
      <point x="505" y="85"/>
      <point x="615" y="-13"/>
    </contour>
    <contour>
      <point x="390" y="-127" type="curve" smooth="yes"/>
      <point x="424" y="-127"/>
      <point x="437" y="-106"/>
      <point x="437" y="-70" type="curve" smooth="yes"/>
      <point x="437" y="-62" type="line" smooth="yes"/>
      <point x="437" y="-27"/>
      <point x="423" y="-5"/>
      <point x="390" y="-5" type="curve" smooth="yes"/>
      <point x="357" y="-5"/>
      <point x="343" y="-27"/>
      <point x="343" y="-62" type="curve" smooth="yes"/>
      <point x="343" y="-70" type="line" smooth="yes"/>
      <point x="343" y="-106"/>
      <point x="357" y="-127"/>
    </contour>
    <contour>
      <point x="157" y="36" type="curve" smooth="yes"/>
      <point x="191" y="36"/>
      <point x="204" y="57"/>
      <point x="204" y="93" type="curve" smooth="yes"/>
      <point x="204" y="101" type="line" smooth="yes"/>
      <point x="204" y="136"/>
      <point x="190" y="158"/>
      <point x="157" y="158" type="curve" smooth="yes"/>
      <point x="124" y="158"/>
      <point x="110" y="136"/>
      <point x="110" y="101" type="curve" smooth="yes"/>
      <point x="110" y="93" type="line" smooth="yes"/>
      <point x="110" y="57"/>
      <point x="124" y="36"/>
    </contour>
    <contour>
      <point x="169" y="-294" type="curve" smooth="yes"/>
      <point x="203" y="-294"/>
      <point x="216" y="-273"/>
      <point x="216" y="-237" type="curve" smooth="yes"/>
      <point x="216" y="-229" type="line" smooth="yes"/>
      <point x="216" y="-194"/>
      <point x="202" y="-172"/>
      <point x="169" y="-172" type="curve" smooth="yes"/>
      <point x="136" y="-172"/>
      <point x="122" y="-194"/>
      <point x="122" y="-229" type="curve" smooth="yes"/>
      <point x="122" y="-237" type="line" smooth="yes"/>
      <point x="122" y="-273"/>
      <point x="136" y="-294"/>
    </contour>
  </outline>
</glyph>
<glyph name="bullet" format="2">
  <advance width="410"/>
  <unicode hex="2022"/>
  <outline>
    <contour>
      <point x="203" y="495" type="curve" smooth="yes"/>
      <point x="261" y="495"/>
      <point x="290" y="531"/>
      <point x="290" y="605" type="curve" smooth="yes"/>
      <point x="290" y="624" type="line" smooth="yes"/>
      <point x="290" y="695"/>
      <point x="261" y="730"/>
      <point x="203" y="730" type="curve" smooth="yes"/>
      <point x="149" y="730"/>
      <point x="120" y="695"/>
      <point x="120" y="624" type="curve" smooth="yes"/>
      <point x="120" y="605" type="line" smooth="yes"/>
      <point x="120" y="531"/>
      <point x="149" y="495"/>
    </contour>
  </outline>
</glyph>
<glyph name="BaBa.gj" format="2">
  <advance width="2451"/>
  <anchor x="2209" y="-86" name="Bottom"/>
  <anchor x="2193" y="1263" name="Top"/>
  <anchor x="2222" y="1263" name="Top2"/>
  <outline>
    <contour>
      <point x="754" y="608" type="line"/>
      <point x="1214" y="608" type="line"/>
      <point x="1207" y="642" type="line"/>
      <point x="754" y="642" type="line"/>
    </contour>
    <contour>
      <point x="475" y="171" type="curve" smooth="yes"/>
      <point x="678" y="171"/>
      <point x="775" y="282"/>
      <point x="775" y="511" type="curve" smooth="yes"/>
      <point x="775" y="978" type="line"/>
      <point x="737" y="978" type="line"/>
      <point x="737" y="511" type="line" smooth="yes"/>
      <point x="737" y="305"/>
      <point x="651" y="206"/>
      <point x="475" y="206" type="curve" smooth="yes"/>
      <point x="291" y="206"/>
      <point x="199" y="316"/>
      <point x="199" y="540" type="curve" smooth="yes"/>
      <point x="199" y="742" type="line" smooth="yes"/>
      <point x="199" y="943"/>
      <point x="260" y="1076"/>
      <point x="364" y="1177" type="curve"/>
      <point x="315" y="1177" type="line"/>
      <point x="216" y="1077"/>
      <point x="160" y="943"/>
      <point x="160" y="743" type="curve" smooth="yes"/>
      <point x="160" y="540" type="line" smooth="yes"/>
      <point x="160" y="293"/>
      <point x="264" y="171"/>
    </contour>
    <contour>
      <point x="2203" y="539" type="line"/>
      <point x="2241" y="539" type="line"/>
      <point x="2241" y="1177" type="line"/>
      <point x="2203" y="1177" type="line"/>
    </contour>
    <contour>
      <point x="2203" y="0" type="line"/>
      <point x="2241" y="0" type="line"/>
      <point x="2241" y="710" type="line"/>
      <point x="2203" y="710" type="line"/>
    </contour>
    <contour>
      <point x="1780" y="608" type="line"/>
      <point x="2237" y="608" type="line"/>
      <point x="2230" y="642" type="line"/>
      <point x="1780" y="642" type="line"/>
    </contour>
    <contour>
      <point x="1501" y="171" type="curve" smooth="yes"/>
      <point x="1704" y="171"/>
      <point x="1801" y="282"/>
      <point x="1801" y="511" type="curve" smooth="yes"/>
      <point x="1801" y="978" type="line"/>
      <point x="1763" y="978" type="line"/>
      <point x="1763" y="511" type="line" smooth="yes"/>
      <point x="1763" y="305"/>
      <point x="1677" y="206"/>
      <point x="1501" y="206" type="curve" smooth="yes"/>
      <point x="1317" y="206"/>
      <point x="1225" y="316"/>
      <point x="1225" y="540" type="curve" smooth="yes"/>
      <point x="1225" y="742" type="line" smooth="yes"/>
      <point x="1225" y="943"/>
      <point x="1286" y="1076"/>
      <point x="1390" y="1177" type="curve"/>
      <point x="1341" y="1177" type="line"/>
      <point x="1242" y="1077"/>
      <point x="1186" y="943"/>
      <point x="1186" y="743" type="curve" smooth="yes"/>
      <point x="1186" y="540" type="line" smooth="yes"/>
      <point x="1186" y="293"/>
      <point x="1290" y="171"/>
    </contour>
  </outline>
</glyph>
<glyph name="BaBha.gj" format="2">
  <advance width="2482"/>
  <anchor x="2240" y="-86" name="Bottom"/>
  <anchor x="2224" y="1263" name="Top"/>
  <anchor x="2253" y="1263" name="Top2"/>
  <outline>
    <contour>
      <point x="754" y="608" type="line"/>
      <point x="1178" y="608" type="line"/>
      <point x="1171" y="642" type="line"/>
      <point x="754" y="642" type="line"/>
    </contour>
    <contour>
      <point x="475" y="171" type="curve" smooth="yes"/>
      <point x="678" y="171"/>
      <point x="775" y="282"/>
      <point x="775" y="511" type="curve" smooth="yes"/>
      <point x="775" y="978" type="line"/>
      <point x="737" y="978" type="line"/>
      <point x="737" y="511" type="line" smooth="yes"/>
      <point x="737" y="305"/>
      <point x="651" y="206"/>
      <point x="475" y="206" type="curve" smooth="yes"/>
      <point x="291" y="206"/>
      <point x="199" y="316"/>
      <point x="199" y="540" type="curve" smooth="yes"/>
      <point x="199" y="742" type="line" smooth="yes"/>
      <point x="199" y="943"/>
      <point x="260" y="1076"/>
      <point x="364" y="1177" type="curve"/>
      <point x="315" y="1177" type="line"/>
      <point x="216" y="1077"/>
      <point x="160" y="943"/>
      <point x="160" y="743" type="curve" smooth="yes"/>
      <point x="160" y="540" type="line" smooth="yes"/>
      <point x="160" y="293"/>
      <point x="264" y="171"/>
    </contour>
    <contour>
      <point x="2234" y="539" type="line"/>
      <point x="2272" y="539" type="line"/>
      <point x="2272" y="1177" type="line"/>
      <point x="2234" y="1177" type="line"/>
    </contour>
    <contour>
      <point x="2234" y="0" type="line"/>
      <point x="2272" y="0" type="line"/>
      <point x="2272" y="710" type="line"/>
      <point x="2234" y="710" type="line"/>
    </contour>
    <contour>
      <point x="1753" y="567" type="line"/>
      <point x="2262" y="567" type="line"/>
      <point x="2255" y="601" type="line"/>
      <point x="1753" y="601" type="line"/>
    </contour>
    <contour>
      <point x="1379" y="0" type="curve"/>
      <point x="1430" y="0" type="line"/>
      <point x="1275" y="152"/>
      <point x="1189" y="327"/>
      <point x="1189" y="600" type="curve" smooth="yes"/>
      <point x="1189" y="777" type="line" smooth="yes"/>
      <point x="1189" y="1030"/>
      <point x="1307" y="1158"/>
      <point x="1539" y="1158" type="curve" smooth="yes"/>
      <point x="1621" y="1158"/>
      <point x="1687" y="1143"/>
      <point x="1742" y="1113" type="curve"/>
      <point x="1736" y="1134" type="line"/>
      <point x="1736" y="586" type="line"/>
      <point x="1775" y="586" type="line"/>
      <point x="1775" y="1139" type="line"/>
      <point x="1718" y="1175"/>
      <point x="1632" y="1194"/>
      <point x="1539" y="1194" type="curve" smooth="yes"/>
      <point x="1281" y="1194"/>
      <point x="1150" y="1055"/>
      <point x="1150" y="778" type="curve" smooth="yes"/>
      <point x="1150" y="600" type="line" smooth="yes"/>
      <point x="1150" y="324"/>
      <point x="1233" y="146"/>
    </contour>
    <contour>
      <point x="1734" y="190" type="curve"/>
      <point x="1773" y="190" type="line"/>
      <point x="1773" y="597" type="line"/>
      <point x="1738" y="597" type="line"/>
      <point x="1681" y="562" type="line"/>
      <point x="1701" y="418"/>
      <point x="1714" y="335"/>
    </contour>
  </outline>
</glyph>
<glyph name="BaDa.gj" format="2">
  <advance width="1857"/>
  <anchor x="1467" y="-86" name="Bottom"/>
  <anchor x="1567" y="1263" name="Top"/>
  <anchor x="1453" y="1263" name="Top2"/>
  <outline>
    <contour>
      <point x="754" y="590" type="line"/>
      <point x="1333" y="590" type="line"/>
      <point x="1326" y="624" type="line"/>
      <point x="754" y="624" type="line"/>
    </contour>
    <contour>
      <point x="475" y="171" type="curve" smooth="yes"/>
      <point x="678" y="171"/>
      <point x="775" y="282"/>
      <point x="775" y="511" type="curve" smooth="yes"/>
      <point x="775" y="978" type="line"/>
      <point x="737" y="978" type="line"/>
      <point x="737" y="511" type="line" smooth="yes"/>
      <point x="737" y="305"/>
      <point x="651" y="206"/>
      <point x="475" y="206" type="curve" smooth="yes"/>
      <point x="291" y="206"/>
      <point x="199" y="316"/>
      <point x="199" y="540" type="curve" smooth="yes"/>
      <point x="199" y="742" type="line" smooth="yes"/>
      <point x="199" y="943"/>
      <point x="260" y="1076"/>
      <point x="364" y="1177" type="curve"/>
      <point x="315" y="1177" type="line"/>
      <point x="216" y="1077"/>
      <point x="160" y="943"/>
      <point x="160" y="743" type="curve" smooth="yes"/>
      <point x="160" y="540" type="line" smooth="yes"/>
      <point x="160" y="293"/>
      <point x="264" y="171"/>
    </contour>
    <contour>
      <point x="1443" y="-13" type="curve" smooth="yes"/>
      <point x="1584" y="-13"/>
      <point x="1698" y="28"/>
      <point x="1771" y="88" type="curve"/>
      <point x="1776" y="138" type="line"/>
      <point x="1693" y="64"/>
      <point x="1577" y="23"/>
      <point x="1443" y="23" type="curve" smooth="yes"/>
      <point x="1232" y="23"/>
      <point x="1121" y="113"/>
      <point x="1121" y="307" type="curve" smooth="yes"/>
      <point x="1121" y="328" type="line" smooth="yes"/>
      <point x="1121" y="518"/>
      <point x="1233" y="595"/>
      <point x="1436" y="598" type="curve" smooth="yes"/>
      <point x="1645" y="601" type="line"/>
      <point x="1645" y="630" type="line"/>
      <point x="1436" y="633" type="line" smooth="yes"/>
      <point x="1249" y="636"/>
      <point x="1140" y="696"/>
      <point x="1140" y="879" type="curve" smooth="yes"/>
      <point x="1140" y="900" type="line" smooth="yes"/>
      <point x="1140" y="1076"/>
      <point x="1243" y="1158"/>
      <point x="1444" y="1158" type="curve" smooth="yes"/>
      <point x="1577" y="1158"/>
      <point x="1676" y="1120"/>
      <point x="1749" y="1071" type="curve"/>
      <point x="1742" y="1113" type="line"/>
      <point x="1684" y="1154"/>
      <point x="1580" y="1194"/>
      <point x="1444" y="1194" type="curve" smooth="yes"/>
      <point x="1216" y="1194"/>
      <point x="1101" y="1097"/>
      <point x="1101" y="902" type="curve" smooth="yes"/>
      <point x="1101" y="879" type="line" smooth="yes"/>
      <point x="1101" y="708"/>
      <point x="1183" y="634"/>
      <point x="1322" y="617" type="curve"/>
      <point x="1322" y="615" type="line"/>
      <point x="1174" y="596"/>
      <point x="1082" y="507"/>
      <point x="1082" y="328" type="curve" smooth="yes"/>
      <point x="1082" y="306" type="line" smooth="yes"/>
      <point x="1082" y="94"/>
      <point x="1205" y="-13"/>
    </contour>
  </outline>
</glyph>
<glyph name="BaDda.gj" format="2">
  <advance width="1932"/>
  <anchor x="1480" y="-86" name="Bottom"/>
  <anchor x="1576" y="1263" name="Top"/>
  <anchor x="1448" y="1263" name="Top2"/>
  <outline>
    <contour>
      <point x="754" y="632" type="line"/>
      <point x="1360" y="632" type="line"/>
      <point x="1353" y="666" type="line"/>
      <point x="754" y="666" type="line"/>
    </contour>
    <contour>
      <point x="475" y="171" type="curve" smooth="yes"/>
      <point x="678" y="171"/>
      <point x="775" y="282"/>
      <point x="775" y="511" type="curve" smooth="yes"/>
      <point x="775" y="978" type="line"/>
      <point x="737" y="978" type="line"/>
      <point x="737" y="511" type="line" smooth="yes"/>
      <point x="737" y="305"/>
      <point x="651" y="206"/>
      <point x="475" y="206" type="curve" smooth="yes"/>
      <point x="291" y="206"/>
      <point x="199" y="316"/>
      <point x="199" y="540" type="curve" smooth="yes"/>
      <point x="199" y="742" type="line" smooth="yes"/>
      <point x="199" y="943"/>
      <point x="260" y="1076"/>
      <point x="364" y="1177" type="curve"/>
      <point x="315" y="1177" type="line"/>
      <point x="216" y="1077"/>
      <point x="160" y="943"/>
      <point x="160" y="743" type="curve" smooth="yes"/>
      <point x="160" y="540" type="line" smooth="yes"/>
      <point x="160" y="293"/>
      <point x="264" y="171"/>
    </contour>
    <contour>
      <point x="1440" y="-13" type="curve" smooth="yes"/>
      <point x="1682" y="-13"/>
      <point x="1799" y="86"/>
      <point x="1799" y="292" type="curve" smooth="yes"/>
      <point x="1799" y="320" type="line" smooth="yes"/>
      <point x="1799" y="505"/>
      <point x="1718" y="581"/>
      <point x="1465" y="641" type="curve" smooth="yes"/>
      <point x="1419" y="652" type="line" smooth="yes"/>
      <point x="1195" y="700"/>
      <point x="1123" y="763"/>
      <point x="1123" y="906" type="curve" smooth="yes"/>
      <point x="1123" y="927" type="line" smooth="yes"/>
      <point x="1123" y="1084"/>
      <point x="1230" y="1158"/>
      <point x="1436" y="1158" type="curve" smooth="yes"/>
      <point x="1576" y="1158"/>
      <point x="1679" y="1120"/>
      <point x="1756" y="1071" type="curve"/>
      <point x="1749" y="1113" type="line"/>
      <point x="1688" y="1154"/>
      <point x="1579" y="1194"/>
      <point x="1436" y="1194" type="curve" smooth="yes"/>
      <point x="1204" y="1194"/>
      <point x="1084" y="1105"/>
      <point x="1084" y="928" type="curve" smooth="yes"/>
      <point x="1084" y="904" type="line" smooth="yes"/>
      <point x="1084" y="743"/>
      <point x="1171" y="664"/>
      <point x="1406" y="618" type="curve" smooth="yes"/>
      <point x="1452" y="607" type="line" smooth="yes"/>
      <point x="1687" y="551"/>
      <point x="1760" y="484"/>
      <point x="1760" y="318" type="curve" smooth="yes"/>
      <point x="1760" y="293" type="line" smooth="yes"/>
      <point x="1760" y="106"/>
      <point x="1653" y="23"/>
      <point x="1440" y="23" type="curve" smooth="yes"/>
      <point x="1281" y="23"/>
      <point x="1162" y="70"/>
      <point x="1061" y="143" type="curve"/>
      <point x="1068" y="94" type="line"/>
      <point x="1144" y="41"/>
      <point x="1264" y="-13"/>
    </contour>
  </outline>
</glyph>
<glyph name="BaDha.gj" format="2">
  <advance width="2139"/>
  <anchor x="1897" y="-86" name="Bottom"/>
  <anchor x="1881" y="1263" name="Top"/>
  <anchor x="1909" y="1263" name="Top2"/>
  <outline>
    <contour>
      <point x="754" y="604" type="line"/>
      <point x="1198" y="604" type="line"/>
      <point x="1191" y="638" type="line"/>
      <point x="754" y="638" type="line"/>
    </contour>
    <contour>
      <point x="475" y="171" type="curve" smooth="yes"/>
      <point x="678" y="171"/>
      <point x="775" y="282"/>
      <point x="775" y="511" type="curve" smooth="yes"/>
      <point x="775" y="978" type="line"/>
      <point x="737" y="978" type="line"/>
      <point x="737" y="511" type="line" smooth="yes"/>
      <point x="737" y="305"/>
      <point x="651" y="206"/>
      <point x="475" y="206" type="curve" smooth="yes"/>
      <point x="291" y="206"/>
      <point x="199" y="316"/>
      <point x="199" y="540" type="curve" smooth="yes"/>
      <point x="199" y="742" type="line" smooth="yes"/>
      <point x="199" y="943"/>
      <point x="260" y="1076"/>
      <point x="364" y="1177" type="curve"/>
      <point x="315" y="1177" type="line"/>
      <point x="216" y="1077"/>
      <point x="160" y="943"/>
      <point x="160" y="743" type="curve" smooth="yes"/>
      <point x="160" y="540" type="line" smooth="yes"/>
      <point x="160" y="293"/>
      <point x="264" y="171"/>
    </contour>
    <contour>
      <point x="1484" y="128" type="curve" smooth="yes"/>
      <point x="1716" y="128"/>
      <point x="1854" y="218"/>
      <point x="1896" y="334" type="curve"/>
      <point x="1899" y="334" type="line"/>
      <point x="1894" y="398" type="line"/>
      <point x="1853" y="247"/>
      <point x="1705" y="164"/>
      <point x="1485" y="164" type="curve" smooth="yes"/>
      <point x="1266" y="164"/>
      <point x="1137" y="241"/>
      <point x="1137" y="422" type="curve" smooth="yes"/>
      <point x="1137" y="434" type="line" smooth="yes"/>
      <point x="1137" y="599"/>
      <point x="1236" y="663"/>
      <point x="1423" y="666" type="curve" smooth="yes"/>
      <point x="1584" y="669" type="line"/>
      <point x="1584" y="699" type="line"/>
      <point x="1423" y="702" type="line" smooth="yes"/>
      <point x="1240" y="705"/>
      <point x="1142" y="755"/>
      <point x="1142" y="900" type="curve" smooth="yes"/>
      <point x="1142" y="906" type="line" smooth="yes"/>
      <point x="1142" y="1034"/>
      <point x="1252" y="1146"/>
      <point x="1441" y="1278" type="curve"/>
      <point x="1441" y="1282" type="line"/>
      <point x="1389" y="1282" type="line"/>
      <point x="1219" y="1157"/>
      <point x="1103" y="1047"/>
      <point x="1103" y="906" type="curve" smooth="yes"/>
      <point x="1103" y="900" type="line" smooth="yes"/>
      <point x="1103" y="760"/>
      <point x="1181" y="700"/>
      <point x="1319" y="686" type="curve"/>
      <point x="1319" y="684" type="line"/>
      <point x="1178" y="668"/>
      <point x="1098" y="592"/>
      <point x="1098" y="435" type="curve" smooth="yes"/>
      <point x="1098" y="421" type="line" smooth="yes"/>
      <point x="1098" y="218"/>
      <point x="1242" y="128"/>
    </contour>
    <contour>
      <point x="1891" y="539" type="line"/>
      <point x="1929" y="539" type="line"/>
      <point x="1929" y="1177" type="line"/>
      <point x="1891" y="1177" type="line"/>
    </contour>
    <contour>
      <point x="1891" y="0" type="line"/>
      <point x="1929" y="0" type="line"/>
      <point x="1929" y="710" type="line"/>
      <point x="1891" y="710" type="line"/>
    </contour>
  </outline>
</glyph>
<glyph name="BaDhaVa.gj" format="2">
  <advance width="2792"/>
  <anchor x="2550" y="-86" name="Bottom"/>
  <anchor x="2534" y="1263" name="Top"/>
  <anchor x="2563" y="1263" name="Top2"/>
  <outline>
    <contour>
      <point x="754" y="608" type="line"/>
      <point x="1230" y="608" type="line"/>
      <point x="1223" y="642" type="line"/>
      <point x="754" y="642" type="line"/>
    </contour>
    <contour>
      <point x="475" y="171" type="curve" smooth="yes"/>
      <point x="678" y="171"/>
      <point x="775" y="282"/>
      <point x="775" y="511" type="curve" smooth="yes"/>
      <point x="775" y="978" type="line"/>
      <point x="737" y="978" type="line"/>
      <point x="737" y="511" type="line" smooth="yes"/>
      <point x="737" y="305"/>
      <point x="651" y="206"/>
      <point x="475" y="206" type="curve" smooth="yes"/>
      <point x="291" y="206"/>
      <point x="199" y="316"/>
      <point x="199" y="540" type="curve" smooth="yes"/>
      <point x="199" y="742" type="line" smooth="yes"/>
      <point x="199" y="943"/>
      <point x="260" y="1076"/>
      <point x="364" y="1177" type="curve"/>
      <point x="315" y="1177" type="line"/>
      <point x="216" y="1077"/>
      <point x="160" y="943"/>
      <point x="160" y="743" type="curve" smooth="yes"/>
      <point x="160" y="540" type="line" smooth="yes"/>
      <point x="160" y="293"/>
      <point x="264" y="171"/>
    </contour>
    <contour>
      <point x="1509" y="128" type="curve" smooth="yes"/>
      <point x="1740" y="128"/>
      <point x="1880" y="208"/>
      <point x="1937" y="349" type="curve"/>
      <point x="1916" y="383" type="line"/>
      <point x="1864" y="242"/>
      <point x="1732" y="164"/>
      <point x="1512" y="164" type="curve" smooth="yes"/>
      <point x="1293" y="164"/>
      <point x="1164" y="241"/>
      <point x="1164" y="422" type="curve" smooth="yes"/>
      <point x="1164" y="434" type="line" smooth="yes"/>
      <point x="1164" y="599"/>
      <point x="1263" y="663"/>
      <point x="1450" y="666" type="curve" smooth="yes"/>
      <point x="1611" y="669" type="line"/>
      <point x="1611" y="699" type="line"/>
      <point x="1450" y="702" type="line" smooth="yes"/>
      <point x="1267" y="705"/>
      <point x="1169" y="755"/>
      <point x="1169" y="900" type="curve" smooth="yes"/>
      <point x="1169" y="906" type="line" smooth="yes"/>
      <point x="1169" y="1034"/>
      <point x="1279" y="1146"/>
      <point x="1468" y="1278" type="curve"/>
      <point x="1468" y="1282" type="line"/>
      <point x="1416" y="1282" type="line"/>
      <point x="1246" y="1157"/>
      <point x="1130" y="1047"/>
      <point x="1130" y="906" type="curve" smooth="yes"/>
      <point x="1130" y="900" type="line" smooth="yes"/>
      <point x="1130" y="760"/>
      <point x="1208" y="700"/>
      <point x="1346" y="686" type="curve"/>
      <point x="1346" y="684" type="line"/>
      <point x="1205" y="668"/>
      <point x="1125" y="592"/>
      <point x="1125" y="435" type="curve" smooth="yes"/>
      <point x="1125" y="421" type="line" smooth="yes"/>
      <point x="1125" y="218"/>
      <point x="1268" y="128"/>
    </contour>
    <contour>
      <point x="2211" y="245" type="curve" smooth="yes"/>
      <point x="2399" y="245"/>
      <point x="2514" y="340"/>
      <point x="2549" y="453" type="curve"/>
      <point x="2552" y="453" type="line"/>
      <point x="2547" y="518" type="line"/>
      <point x="2507" y="367"/>
      <point x="2385" y="281"/>
      <point x="2211" y="281" type="curve" smooth="yes"/>
      <point x="1978" y="281"/>
      <point x="1866" y="409"/>
      <point x="1866" y="644" type="curve" smooth="yes"/>
      <point x="1866" y="782" type="line" smooth="yes"/>
      <point x="1866" y="1016"/>
      <point x="1971" y="1141"/>
      <point x="2190" y="1141" type="curve" smooth="yes"/>
      <point x="2272" y="1141"/>
      <point x="2328" y="1126"/>
      <point x="2367" y="1110" type="curve"/>
      <point x="2362" y="1148" type="line"/>
      <point x="2330" y="1160"/>
      <point x="2276" y="1176"/>
      <point x="2189" y="1176" type="curve" smooth="yes"/>
      <point x="1947" y="1176"/>
      <point x="1827" y="1040"/>
      <point x="1827" y="782" type="curve" smooth="yes"/>
      <point x="1827" y="644" type="line" smooth="yes"/>
      <point x="1827" y="384"/>
      <point x="1953" y="245"/>
    </contour>
    <contour>
      <point x="2544" y="539" type="line"/>
      <point x="2582" y="539" type="line"/>
      <point x="2582" y="1177" type="line"/>
      <point x="2544" y="1177" type="line"/>
    </contour>
    <contour>
      <point x="2544" y="0" type="line"/>
      <point x="2582" y="0" type="line"/>
      <point x="2582" y="710" type="line"/>
      <point x="2544" y="710" type="line"/>
    </contour>
  </outline>
</glyph>
<glyph name="BaHa.gj" format="2">
  <advance width="2013"/>
  <anchor x="1555" y="-118" name="Bottom"/>
  <anchor x="1623" y="1263" name="Top"/>
  <anchor x="1498" y="1263" name="Top2"/>
  <outline>
    <contour>
      <point x="754" y="695" type="line"/>
      <point x="1319" y="695" type="line"/>
      <point x="1312" y="729" type="line"/>
      <point x="754" y="729" type="line"/>
    </contour>
    <contour>
      <point x="475" y="171" type="curve" smooth="yes"/>
      <point x="678" y="171"/>
      <point x="775" y="282"/>
      <point x="775" y="511" type="curve" smooth="yes"/>
      <point x="775" y="978" type="line"/>
      <point x="737" y="978" type="line"/>
      <point x="737" y="511" type="line" smooth="yes"/>
      <point x="737" y="305"/>
      <point x="651" y="206"/>
      <point x="475" y="206" type="curve" smooth="yes"/>
      <point x="291" y="206"/>
      <point x="199" y="316"/>
      <point x="199" y="540" type="curve" smooth="yes"/>
      <point x="199" y="742" type="line" smooth="yes"/>
      <point x="199" y="943"/>
      <point x="260" y="1076"/>
      <point x="364" y="1177" type="curve"/>
      <point x="315" y="1177" type="line"/>
      <point x="216" y="1077"/>
      <point x="160" y="943"/>
      <point x="160" y="743" type="curve" smooth="yes"/>
      <point x="160" y="540" type="line" smooth="yes"/>
      <point x="160" y="293"/>
      <point x="264" y="171"/>
    </contour>
    <contour>
      <point x="1530" y="-39" type="curve" smooth="yes"/>
      <point x="1667" y="-39"/>
      <point x="1783" y="-8"/>
      <point x="1858" y="40" type="curve"/>
      <point x="1863" y="83" type="line"/>
      <point x="1781" y="30"/>
      <point x="1668" y="-3"/>
      <point x="1531" y="-3" type="curve" smooth="yes"/>
      <point x="1264" y="-3"/>
      <point x="1131" y="114"/>
      <point x="1131" y="350" type="curve" smooth="yes"/>
      <point x="1131" y="421"/>
      <point x="1137" y="484"/>
      <point x="1152" y="563" type="curve"/>
      <point x="1115" y="563" type="line"/>
      <point x="1099" y="488"/>
      <point x="1092" y="424"/>
      <point x="1092" y="351" type="curve" smooth="yes"/>
      <point x="1092" y="91"/>
      <point x="1236" y="-39"/>
    </contour>
    <contour>
      <point x="1782" y="274" type="curve"/>
      <point x="1823" y="274" type="line"/>
      <point x="1849" y="334"/>
      <point x="1864" y="400"/>
      <point x="1864" y="458" type="curve" smooth="yes"/>
      <point x="1864" y="624"/>
      <point x="1777" y="698"/>
      <point x="1597" y="708" type="curve" smooth="yes"/>
      <point x="1409" y="718" type="line" smooth="yes"/>
      <point x="1236" y="727"/>
      <point x="1169" y="804"/>
      <point x="1169" y="923" type="curve" smooth="yes"/>
      <point x="1169" y="934" type="line" smooth="yes"/>
      <point x="1169" y="1087"/>
      <point x="1275" y="1158"/>
      <point x="1477" y="1158" type="curve" smooth="yes"/>
      <point x="1616" y="1158"/>
      <point x="1717" y="1121"/>
      <point x="1793" y="1072" type="curve"/>
      <point x="1787" y="1114" type="line"/>
      <point x="1726" y="1154"/>
      <point x="1619" y="1194"/>
      <point x="1477" y="1194" type="curve" smooth="yes"/>
      <point x="1248" y="1194"/>
      <point x="1130" y="1108"/>
      <point x="1130" y="935" type="curve" smooth="yes"/>
      <point x="1130" y="921" type="line" smooth="yes"/>
      <point x="1130" y="772"/>
      <point x="1219" y="692"/>
      <point x="1406" y="682" type="curve" smooth="yes"/>
      <point x="1594" y="672" type="line" smooth="yes"/>
      <point x="1751" y="664"/>
      <point x="1825" y="600"/>
      <point x="1825" y="457" type="curve" smooth="yes"/>
      <point x="1825" y="399"/>
      <point x="1811" y="340"/>
    </contour>
  </outline>
</glyph>
<glyph name="BaHalf.gj" format="2">
  <advance width="1036"/>
  <outline>
    <contour>
      <point x="754" y="608" type="line"/>
      <point x="1198" y="608" type="line"/>
      <point x="1191" y="642" type="line"/>
      <point x="754" y="642" type="line"/>
    </contour>
    <contour>
      <point x="475" y="171" type="curve" smooth="yes"/>
      <point x="678" y="171"/>
      <point x="775" y="282"/>
      <point x="775" y="511" type="curve" smooth="yes"/>
      <point x="775" y="978" type="line"/>
      <point x="737" y="978" type="line"/>
      <point x="737" y="511" type="line" smooth="yes"/>
      <point x="737" y="305"/>
      <point x="651" y="206"/>
      <point x="475" y="206" type="curve" smooth="yes"/>
      <point x="291" y="206"/>
      <point x="199" y="316"/>
      <point x="199" y="540" type="curve" smooth="yes"/>
      <point x="199" y="742" type="line" smooth="yes"/>
      <point x="199" y="943"/>
      <point x="260" y="1076"/>
      <point x="364" y="1177" type="curve"/>
      <point x="315" y="1177" type="line"/>
      <point x="216" y="1077"/>
      <point x="160" y="943"/>
      <point x="160" y="743" type="curve" smooth="yes"/>
      <point x="160" y="540" type="line" smooth="yes"/>
      <point x="160" y="293"/>
      <point x="264" y="171"/>
    </contour>
  </outline>
</glyph>
<glyph name="BaJaYa.gj" format="2">
  <advance width="3429"/>
  <anchor x="3187" y="-86" name="Bottom"/>
  <anchor x="3171" y="1263" name="Top"/>
  <anchor x="3200" y="1263" name="Top2"/>
  <outline>
    <contour>
      <point x="754" y="649" type="line"/>
      <point x="1185" y="649" type="line"/>
      <point x="1178" y="683" type="line"/>
      <point x="754" y="683" type="line"/>
    </contour>
    <contour>
      <point x="475" y="171" type="curve" smooth="yes"/>
      <point x="678" y="171"/>
      <point x="775" y="282"/>
      <point x="775" y="511" type="curve" smooth="yes"/>
      <point x="775" y="978" type="line"/>
      <point x="737" y="978" type="line"/>
      <point x="737" y="511" type="line" smooth="yes"/>
      <point x="737" y="305"/>
      <point x="651" y="206"/>
      <point x="475" y="206" type="curve" smooth="yes"/>
      <point x="291" y="206"/>
      <point x="199" y="316"/>
      <point x="199" y="540" type="curve" smooth="yes"/>
      <point x="199" y="742" type="line" smooth="yes"/>
      <point x="199" y="943"/>
      <point x="260" y="1076"/>
      <point x="364" y="1177" type="curve"/>
      <point x="315" y="1177" type="line"/>
      <point x="216" y="1077"/>
      <point x="160" y="943"/>
      <point x="160" y="743" type="curve" smooth="yes"/>
      <point x="160" y="540" type="line" smooth="yes"/>
      <point x="160" y="293"/>
      <point x="264" y="171"/>
    </contour>
    <contour>
      <point x="1194" y="433" type="line"/>
      <point x="1194" y="982" type="line" smooth="yes"/>
      <point x="1194" y="1108"/>
      <point x="1254" y="1158"/>
      <point x="1338" y="1158" type="curve" smooth="yes"/>
      <point x="1421" y="1158"/>
      <point x="1480" y="1116"/>
      <point x="1574" y="1004" type="curve" smooth="yes"/>
      <point x="1802" y="735" type="line"/>
      <point x="1837" y="758" type="line"/>
      <point x="1605" y="1027" type="line" smooth="yes"/>
      <point x="1509" y="1140"/>
      <point x="1440" y="1194"/>
      <point x="1338" y="1194" type="curve" smooth="yes"/>
      <point x="1228" y="1194"/>
      <point x="1156" y="1130"/>
      <point x="1156" y="982" type="curve" smooth="yes"/>
      <point x="1156" y="450" type="line"/>
    </contour>
    <contour>
      <point x="1803" y="-13" type="curve" smooth="yes"/>
      <point x="2012" y="-13"/>
      <point x="2121" y="85"/>
      <point x="2121" y="276" type="curve" smooth="yes"/>
      <point x="2121" y="292" type="line" smooth="yes"/>
      <point x="2121" y="436"/>
      <point x="2064" y="516"/>
      <point x="1959" y="630" type="curve" smooth="yes"/>
      <point x="1831" y="768" type="line"/>
      <point x="1803" y="741" type="line"/>
      <point x="1935" y="602" type="line" smooth="yes"/>
      <point x="2029" y="503"/>
      <point x="2082" y="432"/>
      <point x="2082" y="292" type="curve" smooth="yes"/>
      <point x="2082" y="276" type="line" smooth="yes"/>
      <point x="2082" y="108"/>
      <point x="1986" y="23"/>
      <point x="1803" y="23" type="curve" smooth="yes"/>
      <point x="1617" y="23"/>
      <point x="1521" y="108"/>
      <point x="1521" y="276" type="curve" smooth="yes"/>
      <point x="1521" y="292" type="line" smooth="yes"/>
      <point x="1521" y="429"/>
      <point x="1577" y="502"/>
      <point x="1675" y="598" type="curve" smooth="yes"/>
      <point x="1821" y="740" type="line"/>
      <point x="1798" y="774" type="line"/>
      <point x="1652" y="627" type="line" smooth="yes"/>
      <point x="1542" y="519"/>
      <point x="1482" y="436"/>
      <point x="1482" y="292" type="curve" smooth="yes"/>
      <point x="1482" y="276" type="line" smooth="yes"/>
      <point x="1482" y="85"/>
      <point x="1592" y="-13"/>
    </contour>
    <contour>
      <point x="1986" y="738" type="line"/>
      <point x="2372" y="738" type="line"/>
      <point x="2366" y="772" type="line"/>
      <point x="1986" y="772" type="line"/>
      <point x="1785" y="769" type="line"/>
      <point x="1785" y="745" type="line"/>
    </contour>
    <contour>
      <point x="2788" y="151" type="curve" smooth="yes"/>
      <point x="3018" y="151"/>
      <point x="3150" y="247"/>
      <point x="3187" y="378" type="curve"/>
      <point x="3189" y="378" type="line"/>
      <point x="3185" y="444" type="line"/>
      <point x="3143" y="276"/>
      <point x="3004" y="187"/>
      <point x="2788" y="187" type="curve" smooth="yes"/>
      <point x="2538" y="187"/>
      <point x="2390" y="300"/>
      <point x="2390" y="518" type="curve" smooth="yes"/>
      <point x="2390" y="560"/>
      <point x="2391" y="593"/>
      <point x="2392" y="626" type="curve"/>
      <point x="2365" y="602" type="line"/>
      <point x="2521" y="602" type="line" smooth="yes"/>
      <point x="2726" y="602"/>
      <point x="2829" y="692"/>
      <point x="2829" y="882" type="curve" smooth="yes"/>
      <point x="2829" y="927" type="line" smooth="yes"/>
      <point x="2829" y="1104"/>
      <point x="2735" y="1194"/>
      <point x="2567" y="1194" type="curve" smooth="yes"/>
      <point x="2486" y="1194"/>
      <point x="2421" y="1171"/>
      <point x="2374" y="1134" type="curve"/>
      <point x="2369" y="1091" type="line"/>
      <point x="2422" y="1132"/>
      <point x="2488" y="1158"/>
      <point x="2567" y="1158" type="curve" smooth="yes"/>
      <point x="2710" y="1158"/>
      <point x="2790" y="1079"/>
      <point x="2790" y="926" type="curve" smooth="yes"/>
      <point x="2790" y="886" type="line" smooth="yes"/>
      <point x="2790" y="714"/>
      <point x="2700" y="637"/>
      <point x="2516" y="637" type="curve" smooth="yes"/>
      <point x="2353" y="637" type="line"/>
      <point x="2352" y="598"/>
      <point x="2351" y="562"/>
      <point x="2351" y="518" type="curve" smooth="yes"/>
      <point x="2351" y="278"/>
      <point x="2514" y="151"/>
    </contour>
    <contour>
      <point x="3181" y="539" type="line"/>
      <point x="3219" y="539" type="line"/>
      <point x="3219" y="1177" type="line"/>
      <point x="3181" y="1177" type="line"/>
    </contour>
    <contour>
      <point x="3181" y="0" type="line"/>
      <point x="3219" y="0" type="line"/>
      <point x="3219" y="710" type="line"/>
      <point x="3181" y="710" type="line"/>
    </contour>
  </outline>
</glyph>
<glyph name="BaJha.gj" format="2">
  <advance width="2223"/>
  <anchor x="1842" y="-86" name="Bottom"/>
  <anchor x="2032" y="1263" name="Top"/>
  <anchor x="2065" y="1263" name="Top2"/>
  <outline>
    <contour>
      <point x="754" y="632" type="line"/>
      <point x="1130" y="632" type="line"/>
      <point x="1123" y="666" type="line"/>
      <point x="754" y="666" type="line"/>
    </contour>
    <contour>
      <point x="475" y="171" type="curve" smooth="yes"/>
      <point x="678" y="171"/>
      <point x="775" y="282"/>
      <point x="775" y="511" type="curve" smooth="yes"/>
      <point x="775" y="978" type="line"/>
      <point x="737" y="978" type="line"/>
      <point x="737" y="511" type="line" smooth="yes"/>
      <point x="737" y="305"/>
      <point x="651" y="206"/>
      <point x="475" y="206" type="curve" smooth="yes"/>
      <point x="291" y="206"/>
      <point x="199" y="316"/>
      <point x="199" y="540" type="curve" smooth="yes"/>
      <point x="199" y="742" type="line" smooth="yes"/>
      <point x="199" y="943"/>
      <point x="260" y="1076"/>
      <point x="364" y="1177" type="curve"/>
      <point x="315" y="1177" type="line"/>
      <point x="216" y="1077"/>
      <point x="160" y="943"/>
      <point x="160" y="743" type="curve" smooth="yes"/>
      <point x="160" y="540" type="line" smooth="yes"/>
      <point x="160" y="293"/>
      <point x="264" y="171"/>
    </contour>
    <contour>
      <point x="1268" y="154" type="curve" smooth="yes"/>
      <point x="1483" y="154"/>
      <point x="1599" y="291"/>
      <point x="1599" y="553" type="curve" smooth="yes"/>
      <point x="1599" y="805" type="line" smooth="yes"/>
      <point x="1599" y="1060"/>
      <point x="1485" y="1194"/>
      <point x="1269" y="1194" type="curve" smooth="yes"/>
      <point x="1143" y="1194"/>
      <point x="1067" y="1154"/>
      <point x="1021" y="1121" type="curve"/>
      <point x="1015" y="1078" type="line"/>
      <point x="1071" y="1120"/>
      <point x="1152" y="1158"/>
      <point x="1269" y="1158" type="curve" smooth="yes"/>
      <point x="1460" y="1158"/>
      <point x="1560" y="1035"/>
      <point x="1560" y="804" type="curve" smooth="yes"/>
      <point x="1560" y="554" type="line" smooth="yes"/>
      <point x="1560" y="314"/>
      <point x="1460" y="190"/>
      <point x="1268" y="190" type="curve" smooth="yes"/>
      <point x="1142" y="190"/>
      <point x="1055" y="230"/>
      <point x="994" y="275" type="curve"/>
      <point x="999" y="234" type="line"/>
      <point x="1048" y="198"/>
      <point x="1134" y="154"/>
    </contour>
    <contour>
      <point x="1833" y="-13" type="curve" smooth="yes"/>
      <point x="2003" y="-13"/>
      <point x="2101" y="84"/>
      <point x="2101" y="268" type="curve" smooth="yes"/>
      <point x="2101" y="372" type="line" smooth="yes"/>
      <point x="2101" y="587"/>
      <point x="1990" y="685"/>
      <point x="1746" y="685" type="curve"/>
      <point x="1686" y="685" type="line"/>
      <point x="1577" y="685" type="line"/>
      <point x="1577" y="651" type="line"/>
      <point x="1743" y="651" type="line" smooth="yes"/>
      <point x="1963" y="651"/>
      <point x="2062" y="565"/>
      <point x="2062" y="368" type="curve" smooth="yes"/>
      <point x="2062" y="269" type="line" smooth="yes"/>
      <point x="2062" y="105"/>
      <point x="1980" y="23"/>
      <point x="1832" y="23" type="curve" smooth="yes"/>
      <point x="1746" y="23"/>
      <point x="1680" y="49"/>
      <point x="1633" y="74" type="curve"/>
      <point x="1639" y="34" type="line"/>
      <point x="1674" y="16"/>
      <point x="1735" y="-13"/>
    </contour>
    <contour>
      <point x="1695" y="667" type="line"/>
      <point x="1727" y="706"/>
      <point x="1768" y="758"/>
      <point x="1808" y="810" type="curve" smooth="yes"/>
      <point x="2089" y="1173" type="line"/>
      <point x="2089" y="1177" type="line"/>
      <point x="2042" y="1177" type="line"/>
      <point x="1661" y="674" type="line"/>
    </contour>
  </outline>
</glyph>
<glyph name="BaLa.gj" format="2">
  <advance width="2286"/>
  <anchor x="2044" y="-86" name="Bottom"/>
  <anchor x="2028" y="1263" name="Top"/>
  <anchor x="2057" y="1263" name="Top2"/>
  <outline>
    <contour>
      <point x="754" y="608" type="line"/>
      <point x="1185" y="608" type="line"/>
      <point x="1178" y="642" type="line"/>
      <point x="754" y="642" type="line"/>
    </contour>
    <contour>
      <point x="475" y="171" type="curve" smooth="yes"/>
      <point x="678" y="171"/>
      <point x="775" y="282"/>
      <point x="775" y="511" type="curve" smooth="yes"/>
      <point x="775" y="978" type="line"/>
      <point x="737" y="978" type="line"/>
      <point x="737" y="511" type="line" smooth="yes"/>
      <point x="737" y="305"/>
      <point x="651" y="206"/>
      <point x="475" y="206" type="curve" smooth="yes"/>
      <point x="291" y="206"/>
      <point x="199" y="316"/>
      <point x="199" y="540" type="curve" smooth="yes"/>
      <point x="199" y="742" type="line" smooth="yes"/>
      <point x="199" y="943"/>
      <point x="260" y="1076"/>
      <point x="364" y="1177" type="curve"/>
      <point x="315" y="1177" type="line"/>
      <point x="216" y="1077"/>
      <point x="160" y="943"/>
      <point x="160" y="743" type="curve" smooth="yes"/>
      <point x="160" y="540" type="line" smooth="yes"/>
      <point x="160" y="293"/>
      <point x="264" y="171"/>
    </contour>
    <contour>
      <point x="2038" y="539" type="line"/>
      <point x="2076" y="539" type="line"/>
      <point x="2076" y="1177" type="line"/>
      <point x="2038" y="1177" type="line"/>
    </contour>
    <contour>
      <point x="2038" y="0" type="line"/>
      <point x="2076" y="0" type="line"/>
      <point x="2076" y="710" type="line"/>
      <point x="2038" y="710" type="line"/>
    </contour>
    <contour>
      <point x="1572" y="13" type="curve" smooth="yes"/>
      <point x="1684" y="13"/>
      <point x="1752" y="34"/>
      <point x="1792" y="53" type="curve"/>
      <point x="1797" y="94" type="line"/>
      <point x="1751" y="70"/>
      <point x="1682" y="49"/>
      <point x="1573" y="49" type="curve" smooth="yes"/>
      <point x="1318" y="49"/>
      <point x="1197" y="198"/>
      <point x="1197" y="483" type="curve" smooth="yes"/>
      <point x="1197" y="721" type="line" smooth="yes"/>
      <point x="1197" y="998"/>
      <point x="1316" y="1141"/>
      <point x="1563" y="1141" type="curve" smooth="yes"/>
      <point x="1653" y="1141"/>
      <point x="1717" y="1126"/>
      <point x="1760" y="1106" type="curve"/>
      <point x="1756" y="1144" type="line"/>
      <point x="1718" y="1160"/>
      <point x="1655" y="1177"/>
      <point x="1562" y="1177" type="curve" smooth="yes"/>
      <point x="1292" y="1177"/>
      <point x="1158" y="1021"/>
      <point x="1158" y="721" type="curve" smooth="yes"/>
      <point x="1158" y="483" type="line" smooth="yes"/>
      <point x="1158" y="174"/>
      <point x="1295" y="13"/>
    </contour>
    <contour>
      <point x="1523" y="539" type="line"/>
      <point x="2052" y="708" type="line"/>
      <point x="2056" y="747" type="line"/>
      <point x="1526" y="578" type="line"/>
    </contour>
  </outline>
</glyph>
<glyph name="BaLaYa.gj" format="2">
  <advance width="3042"/>
  <anchor x="2800" y="-86" name="Bottom"/>
  <anchor x="2784" y="1263" name="Top"/>
  <anchor x="2813" y="1263" name="Top2"/>
  <outline>
    <contour>
      <point x="754" y="608" type="line"/>
      <point x="1157" y="608" type="line"/>
      <point x="1150" y="642" type="line"/>
      <point x="754" y="642" type="line"/>
    </contour>
    <contour>
      <point x="475" y="171" type="curve" smooth="yes"/>
      <point x="678" y="171"/>
      <point x="775" y="282"/>
      <point x="775" y="511" type="curve" smooth="yes"/>
      <point x="775" y="978" type="line"/>
      <point x="737" y="978" type="line"/>
      <point x="737" y="511" type="line" smooth="yes"/>
      <point x="737" y="305"/>
      <point x="651" y="206"/>
      <point x="475" y="206" type="curve" smooth="yes"/>
      <point x="291" y="206"/>
      <point x="199" y="316"/>
      <point x="199" y="540" type="curve" smooth="yes"/>
      <point x="199" y="742" type="line" smooth="yes"/>
      <point x="199" y="943"/>
      <point x="260" y="1076"/>
      <point x="364" y="1177" type="curve"/>
      <point x="315" y="1177" type="line"/>
      <point x="216" y="1077"/>
      <point x="160" y="943"/>
      <point x="160" y="743" type="curve" smooth="yes"/>
      <point x="160" y="540" type="line" smooth="yes"/>
      <point x="160" y="293"/>
      <point x="264" y="171"/>
    </contour>
    <contour>
      <point x="1547" y="13" type="curve" smooth="yes"/>
      <point x="1659" y="13"/>
      <point x="1727" y="34"/>
      <point x="1767" y="53" type="curve"/>
      <point x="1772" y="94" type="line"/>
      <point x="1726" y="70"/>
      <point x="1657" y="49"/>
      <point x="1548" y="49" type="curve" smooth="yes"/>
      <point x="1293" y="49"/>
      <point x="1172" y="198"/>
      <point x="1172" y="483" type="curve" smooth="yes"/>
      <point x="1172" y="721" type="line" smooth="yes"/>
      <point x="1172" y="998"/>
      <point x="1291" y="1141"/>
      <point x="1538" y="1141" type="curve" smooth="yes"/>
      <point x="1628" y="1141"/>
      <point x="1692" y="1126"/>
      <point x="1735" y="1106" type="curve"/>
      <point x="1731" y="1144" type="line"/>
      <point x="1693" y="1160"/>
      <point x="1630" y="1177"/>
      <point x="1537" y="1177" type="curve" smooth="yes"/>
      <point x="1267" y="1177"/>
      <point x="1133" y="1021"/>
      <point x="1133" y="721" type="curve" smooth="yes"/>
      <point x="1133" y="483" type="line" smooth="yes"/>
      <point x="1133" y="174"/>
      <point x="1270" y="13"/>
    </contour>
    <contour>
      <point x="1503" y="569" type="line"/>
      <point x="1982" y="569" type="line"/>
      <point x="1982" y="594" type="line"/>
      <point x="1908" y="600"/>
      <point x="1865" y="603"/>
      <point x="1810" y="603" type="curve" smooth="yes"/>
      <point x="1503" y="603" type="line"/>
    </contour>
    <contour>
      <point x="2401" y="151" type="curve" smooth="yes"/>
      <point x="2631" y="151"/>
      <point x="2763" y="247"/>
      <point x="2800" y="378" type="curve"/>
      <point x="2802" y="378" type="line"/>
      <point x="2798" y="444" type="line"/>
      <point x="2756" y="276"/>
      <point x="2617" y="187"/>
      <point x="2401" y="187" type="curve" smooth="yes"/>
      <point x="2151" y="187"/>
      <point x="2003" y="300"/>
      <point x="2003" y="518" type="curve" smooth="yes"/>
      <point x="2003" y="560"/>
      <point x="2004" y="593"/>
      <point x="2005" y="626" type="curve"/>
      <point x="1978" y="602" type="line"/>
      <point x="2134" y="602" type="line" smooth="yes"/>
      <point x="2339" y="602"/>
      <point x="2442" y="692"/>
      <point x="2442" y="882" type="curve" smooth="yes"/>
      <point x="2442" y="927" type="line" smooth="yes"/>
      <point x="2442" y="1104"/>
      <point x="2348" y="1194"/>
      <point x="2180" y="1194" type="curve" smooth="yes"/>
      <point x="2099" y="1194"/>
      <point x="2034" y="1171"/>
      <point x="1987" y="1134" type="curve"/>
      <point x="1982" y="1091" type="line"/>
      <point x="2035" y="1132"/>
      <point x="2101" y="1158"/>
      <point x="2180" y="1158" type="curve" smooth="yes"/>
      <point x="2323" y="1158"/>
      <point x="2403" y="1079"/>
      <point x="2403" y="926" type="curve" smooth="yes"/>
      <point x="2403" y="886" type="line" smooth="yes"/>
      <point x="2403" y="714"/>
      <point x="2313" y="637"/>
      <point x="2129" y="637" type="curve" smooth="yes"/>
      <point x="1966" y="637" type="line"/>
      <point x="1965" y="598"/>
      <point x="1964" y="562"/>
      <point x="1964" y="518" type="curve" smooth="yes"/>
      <point x="1964" y="278"/>
      <point x="2127" y="151"/>
    </contour>
    <contour>
      <point x="2794" y="539" type="line"/>
      <point x="2832" y="539" type="line"/>
      <point x="2832" y="1177" type="line"/>
      <point x="2794" y="1177" type="line"/>
    </contour>
    <contour>
      <point x="2794" y="0" type="line"/>
      <point x="2832" y="0" type="line"/>
      <point x="2832" y="710" type="line"/>
      <point x="2794" y="710" type="line"/>
    </contour>
  </outline>
</glyph>
